<svg width="160" height="117" viewBox="0 0 160 117" fill="none" xmlns="http://www.w3.org/2000/svg">
<g clip-path="url(#clip0_895_62541)">
<path opacity="0.2" d="M22.5848 6.4217C21.3982 6.38784 20.1822 6.4217 19.0692 6.76325C16.0409 7.69367 14.6055 10.7381 15.0722 13.3689C15.5389 15.9997 17.4586 18.2919 19.4505 20.3869C21.4424 22.4818 23.6006 24.5531 24.6929 27.0573C25.2377 28.3072 25.4923 29.7073 24.9388 30.9557C24.0849 32.8798 21.5101 33.9545 19.0383 34.1783C16.5665 34.4021 14.0844 33.9663 11.6037 33.8205C10.5629 33.7602 9.49263 33.7528 8.51216 34.034C7.43599 34.3402 6.53943 34.9659 5.715 35.6181C2.49239 38.1738 -0.0868785 41.6643 0.334166 45.3257C0.805266 49.4817 5.00688 52.7661 9.60893 54.5283C11.1326 55.1172 12.7447 55.5853 14.0858 56.4186C17.6191 58.6166 18.4126 62.7387 18.0607 66.3765C17.7089 70.0142 16.5105 73.6564 17.1774 77.2618C17.9621 81.456 21.435 85.2455 26.1195 87.015C30.2931 88.5917 35.5164 88.4872 39.2219 86.2627C41.0283 85.1763 42.3945 83.6673 43.5826 82.1068C45.3466 79.8022 46.804 77.2784 47.9181 74.5986C48.4349 73.3487 48.9207 72.0046 50.1264 71.136C50.8625 70.6016 51.8165 70.3028 52.7602 70.0702C55.6044 69.3694 58.6003 69.178 61.4711 68.5538C64.3418 67.9296 67.2229 66.7651 68.7834 64.6849C70.9917 61.7405 69.9612 57.9688 69.9715 54.5062C69.9891 46.6065 75.7292 39.5356 77.8477 31.8346C78.5396 29.3186 78.7972 26.5347 77.2514 24.2896C76.2018 22.7659 74.4307 21.6662 72.5699 20.8167C68.4757 18.9485 63.8222 18.1167 59.2451 17.307C52.8838 16.1823 45.1593 16.0365 40.2289 12.3973C35.5047 8.91117 29.0315 6.4217 22.5848 6.4217Z" fill="url(#paint0_linear_895_62541)"/>
<g opacity="0.5">
<path opacity="0.5" d="M4.02498 51.4308C3.70993 51.896 3.45083 52.5717 3.86304 53.3593C4.67274 54.9051 6.67491 54.5871 7.64803 56.0667C7.90805 56.4767 8.05297 56.9491 8.0676 57.4344C8.10441 58.272 7.8453 58.9316 7.71133 59.6691C7.53612 60.5389 7.67267 61.4427 8.09704 62.2219C8.57474 63.0354 9.29561 63.6785 10.1581 64.0607C10.9119 64.3934 11.6303 64.4788 12.3517 64.6407C13.2466 64.8459 14.1182 65.1419 14.953 65.524C15.3498 65.6904 15.723 65.9082 16.063 66.1718C16.4778 66.5358 16.8542 66.9413 17.1863 67.3819L20.3177 71.2479C20.7155 71.769 21.1589 72.2538 21.6426 72.6965C22.1703 73.1222 22.7501 73.4789 23.368 73.758C24.6179 74.3807 25.9252 75.0181 27.0102 74.946C28.0952 74.8739 28.849 73.8271 28.3352 72.3638C27.8494 70.9711 26.4802 69.7978 25.859 68.408C24.88 66.2174 26.1622 64.5803 25.3422 62.3868C24.5561 60.2786 22.3522 58.8653 20.9448 56.9397C19.9349 55.5706 19.3725 53.9777 18.4627 52.5393C17.1377 50.4783 15.165 48.9016 13.3101 48.1036C11.6787 47.4101 9.8923 47.1627 8.13385 47.3867C7.46253 47.4603 6.80152 47.5854 6.32453 47.9873C5.8181 48.4143 5.88288 49.2122 5.55311 49.779C5.17476 50.4312 4.45339 50.8007 4.02498 51.4308Z" fill="#00BF6F"/>
<path opacity="0.5" d="M5.99036 48.4658C5.99036 48.4658 21.6662 63.1214 27.9877 74.5323" stroke="#535461" stroke-width="2" stroke-miterlimit="10"/>
<path opacity="0.5" d="M3.92334 53.4491C3.92334 53.4491 10.1875 52.2316 14.5231 57.1148" stroke="#535461" stroke-width="2" stroke-miterlimit="10"/>
<path opacity="0.5" d="M8.37524 62.6518C8.37524 62.6518 15.2945 57.8128 17.6883 60.6275" stroke="#535461" stroke-width="2" stroke-miterlimit="10"/>
<path opacity="0.5" d="M13.2806 48.0682C13.2806 48.0682 12.5519 51.7723 15.1739 57.8229" stroke="#535461" stroke-width="2" stroke-miterlimit="10"/>
<path opacity="0.5" d="M25.3349 62.4442C25.3349 62.4442 24.7224 64.8733 19.7994 63.0876" stroke="#535461" stroke-width="2" stroke-miterlimit="10"/>
<path opacity="0.5" d="M20.3368 70.9416C20.3368 70.9416 23.3415 67.4687 21.9753 65.7639" stroke="#535461" stroke-width="2" stroke-miterlimit="10"/>
</g>
<path d="M1.07913 34.4314C0.343041 35.3015 -0.345942 36.5057 0.195823 37.6938C1.23813 40.0257 5.09673 38.8848 6.47322 41.0562C6.88543 41.7055 6.94137 42.499 6.84568 43.2071C6.66019 44.5924 5.97415 45.7687 5.50011 47.0348C5.02606 48.3009 4.78021 49.8319 5.44858 51.1687C6.09192 52.4627 7.44781 53.2798 8.761 53.6052C10.0742 53.9305 11.3903 53.8569 12.702 53.8996C14.2604 53.9607 15.8076 54.1887 17.3173 54.5797C17.9808 54.73 18.616 54.9855 19.1988 55.3364C19.8686 55.7649 20.4104 56.3935 20.9404 57.0118L25.6514 62.5016C26.2771 63.2377 26.916 63.9738 27.6918 64.5141C28.5869 65.1368 29.6057 65.4533 30.6082 65.7581C32.765 66.4176 35.0248 67.083 37.0858 66.6311C39.1469 66.1791 40.8767 64.2093 40.3615 61.9289C39.8712 59.7574 37.66 58.2175 36.9151 56.0902C35.7373 52.738 38.6449 49.6288 37.7719 46.2177C36.9357 42.9465 33.2287 41.2594 31.1677 38.4902C29.6955 36.5057 29.1154 34.0236 27.8287 31.9125C25.9708 28.8651 22.732 26.8467 19.5079 26.0797C16.2839 25.3127 13.0406 25.6704 10.0168 26.4374C8.73597 26.7628 7.45517 27.1735 6.43936 27.9862C5.36025 28.8504 5.23658 30.1621 4.45044 31.2044C3.53916 32.416 2.07139 33.2537 1.07913 34.4314Z" fill="url(#paint1_linear_895_62541)"/>
<path d="M5.66492 28.896C5.66492 28.896 30.6435 48.5497 39.0482 65.6417" stroke="#535461" stroke-width="2" stroke-miterlimit="10"/>
<path d="M0.27533 37.8175C0.27533 37.8175 12.4017 33.8942 19.0516 40.7119" stroke="#535461" stroke-width="2" stroke-miterlimit="10"/>
<path d="M5.84021 51.8032C5.84021 51.8032 20.2838 41.6451 23.9348 45.6068" stroke="#535461" stroke-width="2" stroke-miterlimit="10"/>
<path d="M19.4711 26.0223C19.4711 26.0223 16.9817 32.4101 20.06 41.6952" stroke="#535461" stroke-width="2" stroke-miterlimit="10"/>
<path d="M37.7336 46.3105C37.7336 46.3105 35.8477 50.5401 27.1486 49.0606" stroke="#535461" stroke-width="2" stroke-miterlimit="10"/>
<path d="M25.778 61.9761C25.778 61.9761 32.472 55.2806 30.4256 52.8485" stroke="#535461" stroke-width="2" stroke-miterlimit="10"/>
<path opacity="0.1" d="M90.9766 113.606C128.784 113.606 159.433 105.398 159.433 95.2739C159.433 85.1496 128.784 76.9423 90.9766 76.9423C53.1691 76.9423 22.52 85.1496 22.52 95.2739C22.52 105.398 53.1691 113.606 90.9766 113.606Z" fill="url(#paint2_linear_895_62541)"/>
<path d="M144.296 0.0603027C144.296 0.0603027 139.021 5.33514 142 13.1627C144.978 20.9903 136.894 34.0074 136.894 34.0074C136.894 34.0074 136.981 33.9942 137.141 33.9662C147.975 32.0523 153.359 19.6624 147.335 10.4569C145.096 7.03551 143.257 3.02234 144.296 0.0603027Z" fill="#00BF6F"/>
<path d="M144.296 0.0603027C144.296 0.0603027 141.318 6.52614 144.296 11.801C147.274 17.0758 144.807 31.8801 136.894 34.0074" stroke="#535461" stroke-width="2" stroke-miterlimit="10"/>
<path d="M153.692 21.3967C153.692 21.3967 147.672 20.4383 147.124 25.8324C146.577 31.2265 135.55 31.9743 135.55 31.9743L135.756 32.1113C144.86 38.0868 153.569 35.9183 152.244 27.9891C151.763 25.033 151.803 22.0651 153.692 21.3967Z" fill="#00BF6F"/>
<path opacity="0.2" d="M153.692 21.3967C153.692 21.3967 147.672 20.4383 147.124 25.8324C146.577 31.2265 135.55 31.9743 135.55 31.9743L135.756 32.1113C144.86 38.0868 153.569 35.9183 152.244 27.9891C151.763 25.033 151.803 22.0651 153.692 21.3967Z" fill="#F5F5F5"/>
<path d="M153.692 21.3967C153.692 21.3967 149.019 22.4273 149.403 26.6701C149.787 30.9129 142.465 36.0111 135.55 31.97" stroke="#535461" stroke-width="2" stroke-miterlimit="10"/>
<path d="M36.3188 41.1918C36.3188 41.1918 34.3667 34.5669 36.6854 29.6881C37.6706 27.6487 37.9676 25.3448 37.5319 23.1222C37.317 22.0689 37.006 21.0375 36.6029 20.0409" stroke="#535461" stroke-width="2" stroke-miterlimit="10"/>
<path d="M38.0428 16.9567C38.0428 17.7693 36.5706 20.1233 36.5706 20.1233C36.5706 20.1233 35.0984 17.7679 35.0984 16.9567C35.0984 16.5662 35.2535 16.1918 35.5296 15.9157C35.8057 15.6396 36.1801 15.4845 36.5706 15.4845C36.961 15.4845 37.3355 15.6396 37.6116 15.9157C37.8877 16.1918 38.0428 16.5662 38.0428 16.9567Z" fill="#00BF6F"/>
<path d="M40.4748 21.4556C40.0332 22.1372 37.5187 23.315 37.5187 23.315C37.5187 23.315 37.5643 20.5384 38.006 19.8568C38.1064 19.685 38.2406 19.5354 38.4005 19.417C38.5604 19.2986 38.7426 19.2138 38.9362 19.1677C39.1298 19.1217 39.3307 19.1154 39.5268 19.1492C39.7228 19.183 39.91 19.2561 40.077 19.3643C40.2441 19.4724 40.3874 19.6133 40.4984 19.7784C40.6095 19.9435 40.6859 20.1294 40.7231 20.3249C40.7603 20.5204 40.7574 20.7213 40.7148 20.9157C40.6721 21.11 40.5905 21.2937 40.4748 21.4556Z" fill="#00BF6F"/>
<path d="M40.3687 29.1434C39.6429 29.5085 36.8782 29.2567 36.8782 29.2567C36.8782 29.2567 38.3194 26.8836 39.0438 26.5185C39.2171 26.4215 39.4083 26.3606 39.6058 26.3394C39.8033 26.3183 40.0031 26.3373 40.193 26.3954C40.383 26.4535 40.5592 26.5494 40.7111 26.6774C40.8631 26.8054 40.9875 26.9628 41.077 27.1401C41.1664 27.3175 41.2191 27.5111 41.2318 27.7094C41.2444 27.9076 41.2168 28.1063 41.1507 28.2936C41.0845 28.4809 40.9811 28.6529 40.8467 28.7992C40.7123 28.9455 40.5497 29.0631 40.3687 29.1448V29.1434Z" fill="#00BF6F"/>
<path d="M38.9791 34.9409C38.3254 35.4237 35.5577 35.6416 35.5577 35.6416C35.5577 35.6416 36.5765 33.0594 37.2301 32.5765C37.3845 32.4503 37.5628 32.3568 37.7544 32.3016C37.9459 32.2464 38.1467 32.2307 38.3445 32.2554C38.5423 32.2801 38.733 32.3447 38.9051 32.4453C39.0772 32.5459 39.2271 32.6804 39.3456 32.8407C39.4642 33.001 39.5489 33.1836 39.5948 33.3776C39.6406 33.5716 39.6466 33.7729 39.6123 33.9693C39.578 34.1657 39.5042 34.3531 39.3954 34.5201C39.2866 34.6871 39.1449 34.8302 38.9791 34.9409Z" fill="#00BF6F"/>
<path d="M34.4314 23.4725C35.0203 24.0378 37.7276 24.6252 37.7276 24.6252C37.7276 24.6252 37.0637 21.9296 36.4807 21.3643C36.3445 21.219 36.1803 21.1028 35.9979 21.0227C35.8155 20.9427 35.6188 20.9005 35.4197 20.8987C35.2205 20.8969 35.0231 20.9356 34.8393 21.0123C34.6555 21.089 34.4892 21.2022 34.3504 21.3451C34.2116 21.4879 34.1033 21.6575 34.0319 21.8434C33.9606 22.0294 33.9277 22.2278 33.9353 22.4269C33.9428 22.6259 33.9907 22.8213 34.076 23.0013C34.1613 23.1812 34.2822 23.342 34.4314 23.4739V23.4725Z" fill="#00BF6F"/>
<path d="M32.8901 30.274C33.6159 30.6391 36.3806 30.3874 36.3806 30.3874C36.3806 30.3874 34.9394 28.0142 34.2151 27.6491C33.8692 27.4929 33.4764 27.4762 33.1185 27.6026C32.7607 27.7291 32.4655 27.9888 32.2945 28.3276C32.1236 28.6665 32.0901 29.0583 32.2011 29.4212C32.312 29.7842 32.5589 30.0902 32.8901 30.2755V30.274Z" fill="#00BF6F"/>
<path d="M32.3013 37.0903C32.9549 37.5732 35.7226 37.791 35.7226 37.791C35.7226 37.791 34.7039 35.2088 34.0502 34.7259C33.7357 34.5161 33.3525 34.4353 32.9801 34.5003C32.6076 34.5653 32.2745 34.7711 32.0496 35.0751C31.8248 35.379 31.7255 35.7578 31.7723 36.133C31.8192 36.5082 32.0086 36.8509 32.3013 37.0903Z" fill="#00BF6F"/>
<path d="M157.879 79.7188H145.352C145.642 79.1397 145.793 78.5012 145.793 77.8536V20.8094C145.793 19.6975 145.35 18.6314 144.564 17.8455C143.777 17.0595 142.711 16.618 141.599 16.618H44.6308C43.5184 16.618 42.4516 17.0599 41.665 17.8465C40.8784 18.6331 40.4365 19.6999 40.4365 20.8123V77.8536C40.4371 78.5012 40.5883 79.1397 40.8782 79.7188H27.9082C27.6142 79.7188 27.3323 79.8356 27.1244 80.0435C26.9165 80.2514 26.7997 80.5334 26.7997 80.8274V81.721C26.7997 83.3663 27.4533 84.9443 28.6167 86.1077C29.7802 87.2712 31.3581 87.9248 33.0035 87.9248H152.792C154.438 87.9248 156.015 87.2712 157.179 86.1077C158.342 84.9443 158.996 83.3663 158.996 81.721V80.8274C158.996 80.6811 158.967 80.5362 158.911 80.4011C158.854 80.266 158.772 80.1434 158.668 80.0404C158.564 79.9373 158.441 79.8559 158.306 79.8007C158.17 79.7455 158.025 79.7177 157.879 79.7188ZM80.6934 83.2668L79.6187 82.0464H106.281L105.092 83.2668H80.6934Z" fill="url(#paint3_linear_895_62541)"/>
<path d="M141.171 17.4233H45.0488C43.1576 17.4233 41.6245 18.9565 41.6245 20.8476V77.9493C41.6245 79.8405 43.1576 81.3736 45.0488 81.3736H141.171C143.062 81.3736 144.595 79.8405 144.595 77.9493V20.8476C144.595 18.9565 143.062 17.4233 141.171 17.4233Z" fill="#535461"/>
<path d="M142.212 26.7452H43.7931V78.9887H142.212V26.7452Z" fill="#F1F1F4"/>
<path d="M93.0024 23.0588C93.4813 23.0588 93.8695 22.6706 93.8695 22.1917C93.8695 21.7128 93.4813 21.3246 93.0024 21.3246C92.5235 21.3246 92.1353 21.7128 92.1353 22.1917C92.1353 22.6706 92.5235 23.0588 93.0024 23.0588Z" fill="white"/>
<path d="M108.198 79.0961L104.812 82.5645H80.9628L77.9066 79.0961H29.376C29.0886 79.0961 28.813 79.2102 28.6098 79.4134C28.4066 79.6166 28.2925 79.8922 28.2925 80.1796V81.0541C28.2925 81.8508 28.4495 82.6398 28.7547 83.3758C29.0598 84.1118 29.507 84.7804 30.0707 85.3435C30.6345 85.9065 31.3037 86.3529 32.04 86.6571C32.7764 86.9614 33.5655 87.1175 34.3623 87.1165H151.43C153.038 87.1165 154.58 86.4778 155.717 85.3409C156.854 84.2039 157.493 82.6619 157.493 81.0541V80.1796C157.493 79.8922 157.379 79.6166 157.176 79.4134C156.972 79.2102 156.697 79.0961 156.409 79.0961H108.198Z" fill="#535461"/>
<path d="M76.7111 30.726H49.804V51.0038H76.7111V30.726Z" fill="white"/>
<path opacity="0.2" d="M61.4048 32.4808H52.4363V37.5496H61.4048V32.4808Z" fill="#00BF6F"/>
<path d="M74.0789 32.4808H63.5498V33.6512H74.0789V32.4808Z" fill="#E6E8EC"/>
<path d="M70.9593 34.4299H63.5498V35.6003H70.9593V34.4299Z" fill="#E6E8EC"/>
<path d="M74.0789 36.3792H63.5498V37.5495H74.0789V36.3792Z" fill="#E6E8EC"/>
<path d="M74.0789 38.3298H52.4363V39.5002H74.0789V38.3298Z" fill="#E6E8EC"/>
<path d="M74.0789 40.2791H52.4363V41.4494H74.0789V40.2791Z" fill="#E6E8EC"/>
<path d="M74.0789 42.2296H52.4363V43.4H74.0789V42.2296Z" fill="#E6E8EC"/>
<path d="M72.324 44.1788H52.4363V45.3492H72.324V44.1788Z" fill="#E6E8EC"/>
<path d="M74.0789 46.1281H52.4363V47.2984H74.0789V46.1281Z" fill="#E6E8EC"/>
<path d="M74.0789 48.0786H52.4363V49.249H74.0789V48.0786Z" fill="#E6E8EC"/>
<path d="M106.348 30.726H79.4406V51.0038H106.348V30.726Z" fill="white"/>
<path opacity="0.2" d="M91.04 32.4808H82.0714V37.5496H91.04V32.4808Z" fill="#00BF6F"/>
<path d="M103.715 32.4808H93.1864V33.6512H103.715V32.4808Z" fill="#E6E8EC"/>
<path d="M100.596 34.4299H93.1864V35.6003H100.596V34.4299Z" fill="#E6E8EC"/>
<path d="M103.715 36.3792H93.1864V37.5495H103.715V36.3792Z" fill="#E6E8EC"/>
<path d="M103.714 38.3298H82.0714V39.5002H103.714V38.3298Z" fill="#E6E8EC"/>
<path d="M103.714 40.2791H82.0714V41.4494H103.714V40.2791Z" fill="#E6E8EC"/>
<path d="M103.714 42.2296H82.0714V43.4H103.714V42.2296Z" fill="#E6E8EC"/>
<path d="M101.959 44.1788H82.0714V45.3492H101.959V44.1788Z" fill="#E6E8EC"/>
<path d="M103.714 46.1281H82.0714V47.2984H103.714V46.1281Z" fill="#E6E8EC"/>
<path d="M103.714 48.0786H82.0714V49.249H103.714V48.0786Z" fill="#E6E8EC"/>
<path d="M135.983 30.726H109.076V51.0038H135.983V30.726Z" fill="white"/>
<path opacity="0.2" d="M120.677 32.4808H111.708V37.5496H120.677V32.4808Z" fill="#FFCD00"/>
<path d="M133.35 32.4808H122.821V33.6512H133.35V32.4808Z" fill="#E6E8EC"/>
<path d="M130.231 34.4299H122.821V35.6003H130.231V34.4299Z" fill="#E6E8EC"/>
<path d="M133.35 36.3792H122.821V37.5495H133.35V36.3792Z" fill="#E6E8EC"/>
<path d="M133.351 38.3298H111.708V39.5002H133.351V38.3298Z" fill="#E6E8EC"/>
<path d="M133.351 40.2791H111.708V41.4494H133.351V40.2791Z" fill="#E6E8EC"/>
<path d="M133.351 42.2296H111.708V43.4H133.351V42.2296Z" fill="#E6E8EC"/>
<path d="M131.596 44.1788H111.708V45.3492H131.596V44.1788Z" fill="#E6E8EC"/>
<path d="M133.351 46.1281H111.708V47.2984H133.351V46.1281Z" fill="#E6E8EC"/>
<path d="M133.351 48.0786H111.708V49.249H133.351V48.0786Z" fill="#E6E8EC"/>
<path d="M76.7111 53.5375H49.804V73.8153H76.7111V53.5375Z" fill="white"/>
<path opacity="0.2" d="M61.4048 55.2924H52.4363V60.3611H61.4048V55.2924Z" fill="#00BF6F"/>
<path d="M74.0789 55.2924H63.5498V56.4627H74.0789V55.2924Z" fill="#E6E8EC"/>
<path d="M70.9593 57.243H63.5498V58.4134H70.9593V57.243Z" fill="#E6E8EC"/>
<path d="M74.0789 59.1921H63.5498V60.3625H74.0789V59.1921Z" fill="#E6E8EC"/>
<path d="M74.0789 61.1414H52.4363V62.3117H74.0789V61.1414Z" fill="#E6E8EC"/>
<path d="M74.0789 63.0919H52.4363V64.2623H74.0789V63.0919Z" fill="#E6E8EC"/>
<path d="M74.0789 65.0411H52.4363V66.2115H74.0789V65.0411Z" fill="#E6E8EC"/>
<path d="M72.324 66.9917H52.4363V68.1621H72.324V66.9917Z" fill="#E6E8EC"/>
<path d="M74.0789 68.9409H52.4363V70.1113H74.0789V68.9409Z" fill="#E6E8EC"/>
<path d="M74.0789 70.8901H52.4363V72.0605H74.0789V70.8901Z" fill="#E6E8EC"/>
<path d="M106.348 53.5375H79.4406V73.8153H106.348V53.5375Z" fill="white"/>
<path opacity="0.2" d="M91.04 55.2924H82.0714V60.3611H91.04V55.2924Z" fill="#FFCD00"/>
<path d="M103.715 55.2924H93.1864V56.4627H103.715V55.2924Z" fill="#E6E8EC"/>
<path d="M100.596 57.243H93.1864V58.4134H100.596V57.243Z" fill="#E6E8EC"/>
<path d="M103.715 59.1921H93.1864V60.3625H103.715V59.1921Z" fill="#E6E8EC"/>
<path d="M103.714 61.1414H82.0714V62.3117H103.714V61.1414Z" fill="#E6E8EC"/>
<path d="M103.714 63.0919H82.0714V64.2623H103.714V63.0919Z" fill="#E6E8EC"/>
<path d="M103.714 65.0411H82.0714V66.2115H103.714V65.0411Z" fill="#E6E8EC"/>
<path d="M101.959 66.9917H82.0714V68.1621H101.959V66.9917Z" fill="#E6E8EC"/>
<path d="M103.714 68.9409H82.0714V70.1113H103.714V68.9409Z" fill="#E6E8EC"/>
<path d="M103.714 70.8901H82.0714V72.0605H103.714V70.8901Z" fill="#E6E8EC"/>
<path opacity="0.1" d="M135.983 53.5375H109.076V73.8153H135.983V53.5375Z" fill="black"/>
<path d="M65.0809 37.5496H23.5653C23.0654 37.5486 22.5702 37.6462 22.1081 37.8368C21.646 38.0273 21.226 38.3072 20.8721 38.6602C20.5183 39.0133 20.2375 39.4326 20.0458 39.8943C19.8542 40.356 19.7554 40.8509 19.7552 41.3508V98.8749C19.7558 99.3744 19.8548 99.8689 20.0465 100.33C20.2383 100.791 20.519 101.21 20.8727 101.563C21.2263 101.916 21.646 102.195 22.1078 102.386C22.5695 102.576 23.0643 102.674 23.5638 102.673H65.0794C65.5789 102.674 66.0737 102.576 66.5354 102.386C66.9972 102.195 67.4169 101.916 67.7705 101.563C68.1242 101.21 68.4049 100.791 68.5967 100.33C68.7884 99.8689 68.8874 99.3744 68.888 98.8749V41.3508C68.8878 40.8511 68.7891 40.3564 68.5976 39.895C68.4062 39.4335 68.1257 39.0143 67.7721 38.6613C67.4185 38.3082 66.9989 38.0284 66.5371 37.8376C66.0753 37.6469 65.5805 37.549 65.0809 37.5496Z" fill="url(#paint4_linear_895_62541)"/>
<path d="M65.3606 38.3298H23.2856C21.6594 38.3298 20.3412 39.6481 20.3412 41.2742V99.1429C20.3412 100.769 21.6594 102.087 23.2856 102.087H65.3606C66.9867 102.087 68.305 100.769 68.305 99.1429V41.2742C68.305 39.6481 66.9867 38.3298 65.3606 38.3298Z" fill="#535461"/>
<path d="M65.867 44.3613H22.7776V96.0571H65.867V44.3613Z" fill="#F1F1F4"/>
<path d="M44.1273 41.8394C44.4501 41.8394 44.7118 41.5778 44.7118 41.255C44.7118 40.9322 44.4501 40.6705 44.1273 40.6705C43.8045 40.6705 43.5428 40.9322 43.5428 41.255C43.5428 41.5778 43.8045 41.8394 44.1273 41.8394Z" fill="white"/>
<path d="M44.1273 100.722C45.0965 100.722 45.8821 99.9368 45.8821 98.9676C45.8821 97.9984 45.0965 97.2128 44.1273 97.2128C43.1581 97.2128 42.3724 97.9984 42.3724 98.9676C42.3724 99.9368 43.1581 100.722 44.1273 100.722Z" fill="white"/>
<path d="M36.9298 49.6436H24.64V58.9065H36.9298V49.6436Z" fill="white"/>
<path opacity="0.2" d="M29.9399 50.4458H25.8428V52.7616H29.9399V50.4458Z" fill="#00BF6F"/>
<path d="M35.7285 50.4458H30.9188V50.9802H35.7285V50.4458Z" fill="#E6E8EC"/>
<path d="M34.3034 51.3365H30.9188V51.871H34.3034V51.3365Z" fill="#E6E8EC"/>
<path d="M35.7285 52.2273H30.9188V52.7617H35.7285V52.2273Z" fill="#E6E8EC"/>
<path d="M35.7285 53.1179H25.8428V53.6523H35.7285V53.1179Z" fill="#E6E8EC"/>
<path d="M35.7285 54.0085H25.8428V54.5429H35.7285V54.0085Z" fill="#E6E8EC"/>
<path d="M35.7285 54.8992H25.8428V55.4336H35.7285V54.8992Z" fill="#E6E8EC"/>
<path d="M34.9276 55.7899H25.8428V56.3243H34.9276V55.7899Z" fill="#E6E8EC"/>
<path d="M35.7285 56.6805H25.8428V57.2149H35.7285V56.6805Z" fill="#E6E8EC"/>
<path d="M35.7285 57.5713H25.8428V58.1057H35.7285V57.5713Z" fill="#E6E8EC"/>
<path d="M50.468 49.6436H38.1782V58.9065H50.468V49.6436Z" fill="white"/>
<path opacity="0.2" d="M43.4766 50.4458H39.3795V52.7616H43.4766V50.4458Z" fill="#00BF6F"/>
<path d="M49.2667 50.4458H44.457V50.9802H49.2667V50.4458Z" fill="#E6E8EC"/>
<path d="M47.8416 51.3365H44.457V51.871H47.8416V51.3365Z" fill="#E6E8EC"/>
<path d="M49.2667 52.2273H44.457V52.7617H49.2667V52.2273Z" fill="#E6E8EC"/>
<path d="M49.2652 53.1179H39.3795V53.6523H49.2652V53.1179Z" fill="#E6E8EC"/>
<path d="M49.2652 54.0085H39.3795V54.5429H49.2652V54.0085Z" fill="#E6E8EC"/>
<path d="M49.2652 54.8992H39.3795V55.4336H49.2652V54.8992Z" fill="#E6E8EC"/>
<path d="M48.4644 55.7899H39.3795V56.3243H48.4644V55.7899Z" fill="#E6E8EC"/>
<path d="M49.2652 56.6805H39.3795V57.2149H49.2652V56.6805Z" fill="#E6E8EC"/>
<path d="M49.2652 57.5713H39.3795V58.1057H49.2652V57.5713Z" fill="#E6E8EC"/>
<path d="M64.0047 49.6436H51.715V58.9065H64.0047V49.6436Z" fill="white"/>
<path opacity="0.2" d="M57.0148 50.4458H52.9177V52.7616H57.0148V50.4458Z" fill="#00BF6F"/>
<path d="M62.8034 50.4458H57.9938V50.9802H62.8034V50.4458Z" fill="#E6E8EC"/>
<path d="M61.3783 51.3365H57.9938V51.871H61.3783V51.3365Z" fill="#E6E8EC"/>
<path d="M62.8034 52.2273H57.9938V52.7617H62.8034V52.2273Z" fill="#E6E8EC"/>
<path d="M62.8034 53.1179H52.9177V53.6523H62.8034V53.1179Z" fill="#E6E8EC"/>
<path d="M62.8034 54.0085H52.9177V54.5429H62.8034V54.0085Z" fill="#E6E8EC"/>
<path d="M62.8034 54.8992H52.9177V55.4336H62.8034V54.8992Z" fill="#E6E8EC"/>
<path d="M62.0026 55.7899H52.9177V56.3243H62.0026V55.7899Z" fill="#E6E8EC"/>
<path d="M62.8034 56.6805H52.9177V57.2149H62.8034V56.6805Z" fill="#E6E8EC"/>
<path d="M62.8034 57.5713H52.9177V58.1057H62.8034V57.5713Z" fill="#E6E8EC"/>
<path d="M36.9298 60.0637H24.64V69.3267H36.9298V60.0637Z" fill="white"/>
<path opacity="0.2" d="M29.9399 60.8661H25.8428V63.1818H29.9399V60.8661Z" fill="#00BF6F"/>
<path d="M35.7285 60.8661H30.9188V61.4005H35.7285V60.8661Z" fill="#E6E8EC"/>
<path d="M34.3034 61.7567H30.9188V62.2911H34.3034V61.7567Z" fill="#E6E8EC"/>
<path d="M35.7285 62.6473H30.9188V63.1817H35.7285V62.6473Z" fill="#E6E8EC"/>
<path d="M35.7285 63.5381H25.8428V64.0725H35.7285V63.5381Z" fill="#E6E8EC"/>
<path d="M35.7285 64.4287H25.8428V64.9631H35.7285V64.4287Z" fill="#E6E8EC"/>
<path d="M35.7285 65.3193H25.8428V65.8537H35.7285V65.3193Z" fill="#E6E8EC"/>
<path d="M34.9276 66.2101H25.8428V66.7445H34.9276V66.2101Z" fill="#E6E8EC"/>
<path d="M35.7285 67.1007H25.8428V67.6351H35.7285V67.1007Z" fill="#E6E8EC"/>
<path d="M35.7285 67.9915H25.8428V68.5259H35.7285V67.9915Z" fill="#E6E8EC"/>
<path d="M50.468 60.0637H38.1782V69.3267H50.468V60.0637Z" fill="white"/>
<path opacity="0.2" d="M43.4766 60.8661H39.3795V63.1818H43.4766V60.8661Z" fill="#00BF6F"/>
<path d="M49.2667 60.8661H44.457V61.4005H49.2667V60.8661Z" fill="#E6E8EC"/>
<path d="M47.8416 61.7567H44.457V62.2911H47.8416V61.7567Z" fill="#E6E8EC"/>
<path d="M49.2667 62.6473H44.457V63.1817H49.2667V62.6473Z" fill="#E6E8EC"/>
<path d="M49.2652 63.5381H39.3795V64.0725H49.2652V63.5381Z" fill="#E6E8EC"/>
<path d="M49.2652 64.4287H39.3795V64.9631H49.2652V64.4287Z" fill="#E6E8EC"/>
<path d="M49.2652 65.3193H39.3795V65.8537H49.2652V65.3193Z" fill="#E6E8EC"/>
<path d="M48.4644 66.2101H39.3795V66.7445H48.4644V66.2101Z" fill="#E6E8EC"/>
<path d="M49.2652 67.1007H39.3795V67.6351H49.2652V67.1007Z" fill="#E6E8EC"/>
<path d="M49.2652 67.9915H39.3795V68.5259H49.2652V67.9915Z" fill="#E6E8EC"/>
<path d="M64.0047 60.0637H51.715V69.3267H64.0047V60.0637Z" fill="white"/>
<path opacity="0.2" d="M57.0148 60.8661H52.9177V63.1818H57.0148V60.8661Z" fill="#FFCD00"/>
<path d="M62.8034 60.8661H57.9938V61.4005H62.8034V60.8661Z" fill="#E6E8EC"/>
<path d="M61.3783 61.7567H57.9938V62.2911H61.3783V61.7567Z" fill="#E6E8EC"/>
<path d="M62.8034 62.6473H57.9938V63.1817H62.8034V62.6473Z" fill="#E6E8EC"/>
<path d="M62.8034 63.5381H52.9177V64.0725H62.8034V63.5381Z" fill="#E6E8EC"/>
<path d="M62.8034 64.4287H52.9177V64.9631H62.8034V64.4287Z" fill="#E6E8EC"/>
<path d="M62.8034 65.3193H52.9177V65.8537H62.8034V65.3193Z" fill="#E6E8EC"/>
<path d="M62.0026 66.2101H52.9177V66.7445H62.0026V66.2101Z" fill="#E6E8EC"/>
<path d="M62.8034 67.1007H52.9177V67.6351H62.8034V67.1007Z" fill="#E6E8EC"/>
<path d="M62.8034 67.9915H52.9177V68.5259H62.8034V67.9915Z" fill="#E6E8EC"/>
<path d="M36.9298 70.896H24.64V80.159H36.9298V70.896Z" fill="white"/>
<path opacity="0.2" d="M29.9399 71.6984H25.8428V74.0141H29.9399V71.6984Z" fill="#00BF6F"/>
<path d="M35.7285 71.6984H30.9188V72.2327H35.7285V71.6984Z" fill="#E6E8EC"/>
<path d="M34.3034 72.589H30.9188V73.1234H34.3034V72.589Z" fill="#E6E8EC"/>
<path d="M35.7285 73.4797H30.9188V74.0141H35.7285V73.4797Z" fill="#E6E8EC"/>
<path d="M35.7285 74.3704H25.8428V74.9048H35.7285V74.3704Z" fill="#E6E8EC"/>
<path d="M35.7285 75.2611H25.8428V75.7955H35.7285V75.2611Z" fill="#E6E8EC"/>
<path d="M35.7285 76.1517H25.8428V76.6861H35.7285V76.1517Z" fill="#E6E8EC"/>
<path d="M34.9276 77.0424H25.8428V77.5768H34.9276V77.0424Z" fill="#E6E8EC"/>
<path d="M35.7285 77.9331H25.8428V78.4675H35.7285V77.9331Z" fill="#E6E8EC"/>
<path d="M35.7285 78.8237H25.8428V79.3581H35.7285V78.8237Z" fill="#E6E8EC"/>
<path d="M50.468 70.896H38.1782V80.159H50.468V70.896Z" fill="white"/>
<path opacity="0.2" d="M43.4766 71.6984H39.3795V74.0141H43.4766V71.6984Z" fill="#00BF6F"/>
<path d="M49.2667 71.6984H44.457V72.2327H49.2667V71.6984Z" fill="#E6E8EC"/>
<path d="M47.8416 72.589H44.457V73.1234H47.8416V72.589Z" fill="#E6E8EC"/>
<path d="M49.2667 73.4797H44.457V74.0141H49.2667V73.4797Z" fill="#E6E8EC"/>
<path d="M49.2652 74.3704H39.3795V74.9048H49.2652V74.3704Z" fill="#E6E8EC"/>
<path d="M49.2652 75.2611H39.3795V75.7955H49.2652V75.2611Z" fill="#E6E8EC"/>
<path d="M49.2652 76.1517H39.3795V76.6861H49.2652V76.1517Z" fill="#E6E8EC"/>
<path d="M48.4644 77.0424H39.3795V77.5768H48.4644V77.0424Z" fill="#E6E8EC"/>
<path d="M49.2652 77.9331H39.3795V78.4675H49.2652V77.9331Z" fill="#E6E8EC"/>
<path d="M49.2652 78.8237H39.3795V79.3581H49.2652V78.8237Z" fill="#E6E8EC"/>
<path d="M64.0047 70.896H51.715V80.159H64.0047V70.896Z" fill="white"/>
<path opacity="0.2" d="M57.0148 71.6984H52.9177V74.0141H57.0148V71.6984Z" fill="#00BF6F"/>
<path d="M62.8034 71.6984H57.9938V72.2327H62.8034V71.6984Z" fill="#E6E8EC"/>
<path d="M61.3783 72.589H57.9938V73.1234H61.3783V72.589Z" fill="#E6E8EC"/>
<path d="M62.8034 73.4797H57.9938V74.0141H62.8034V73.4797Z" fill="#E6E8EC"/>
<path d="M62.8034 74.3704H52.9177V74.9048H62.8034V74.3704Z" fill="#E6E8EC"/>
<path d="M62.8034 75.2611H52.9177V75.7955H62.8034V75.2611Z" fill="#E6E8EC"/>
<path d="M62.8034 76.1517H52.9177V76.6861H62.8034V76.1517Z" fill="#E6E8EC"/>
<path d="M62.0026 77.0424H52.9177V77.5768H62.0026V77.0424Z" fill="#E6E8EC"/>
<path d="M62.8034 77.9331H52.9177V78.4675H62.8034V77.9331Z" fill="#E6E8EC"/>
<path d="M62.8034 78.8237H52.9177V79.3581H62.8034V78.8237Z" fill="#E6E8EC"/>
<path d="M36.9298 81.3162H24.64V90.5792H36.9298V81.3162Z" fill="white"/>
<path opacity="0.2" d="M29.9399 82.1185H25.8428V84.4343H29.9399V82.1185Z" fill="#00BF6F"/>
<path d="M35.7285 82.1185H30.9188V82.6529H35.7285V82.1185Z" fill="#E6E8EC"/>
<path d="M34.3034 83.0092H30.9188V83.5436H34.3034V83.0092Z" fill="#E6E8EC"/>
<path d="M35.7285 83.8998H30.9188V84.4342H35.7285V83.8998Z" fill="#E6E8EC"/>
<path d="M35.7285 84.7905H25.8428V85.3249H35.7285V84.7905Z" fill="#E6E8EC"/>
<path d="M35.7285 85.6812H25.8428V86.2156H35.7285V85.6812Z" fill="#E6E8EC"/>
<path d="M35.7285 86.5718H25.8428V87.1062H35.7285V86.5718Z" fill="#E6E8EC"/>
<path d="M34.9276 87.4625H25.8428V87.9969H34.9276V87.4625Z" fill="#E6E8EC"/>
<path d="M35.7285 88.3531H25.8428V88.8876H35.7285V88.3531Z" fill="#E6E8EC"/>
<path d="M35.7285 89.2439H25.8428V89.7783H35.7285V89.2439Z" fill="#E6E8EC"/>
<path d="M50.468 81.3162H38.1782V90.5792H50.468V81.3162Z" fill="white"/>
<path opacity="0.2" d="M43.4766 82.1185H39.3795V84.4343H43.4766V82.1185Z" fill="#00BF6F"/>
<path d="M49.2667 82.1185H44.457V82.6529H49.2667V82.1185Z" fill="#E6E8EC"/>
<path d="M47.8416 83.0092H44.457V83.5436H47.8416V83.0092Z" fill="#E6E8EC"/>
<path d="M49.2667 83.8998H44.457V84.4342H49.2667V83.8998Z" fill="#E6E8EC"/>
<path d="M49.2652 84.7905H39.3795V85.3249H49.2652V84.7905Z" fill="#E6E8EC"/>
<path d="M49.2652 85.6812H39.3795V86.2156H49.2652V85.6812Z" fill="#E6E8EC"/>
<path d="M49.2652 86.5718H39.3795V87.1062H49.2652V86.5718Z" fill="#E6E8EC"/>
<path d="M48.4644 87.4625H39.3795V87.9969H48.4644V87.4625Z" fill="#E6E8EC"/>
<path d="M49.2652 88.3531H39.3795V88.8876H49.2652V88.3531Z" fill="#E6E8EC"/>
<path d="M49.2652 89.2439H39.3795V89.7783H49.2652V89.2439Z" fill="#E6E8EC"/>
<path opacity="0.1" d="M64.0047 81.3162H51.715V90.5792H64.0047V81.3162Z" fill="black"/>
<path d="M33.4363 57.0471H12.1191C11.8422 57.0465 11.568 57.1005 11.312 57.2059C11.056 57.3113 10.8232 57.4661 10.6271 57.6615C10.4309 57.8568 10.2751 58.0889 10.1686 58.3445C10.0622 58.6 10.007 58.874 10.0065 59.1509V105.832C10.007 106.109 10.0622 106.383 10.1686 106.639C10.2751 106.894 10.4309 107.126 10.6271 107.322C10.8232 107.517 11.056 107.672 11.312 107.777C11.568 107.883 11.8422 107.937 12.1191 107.936H33.4363C33.7131 107.937 33.9874 107.883 34.2434 107.777C34.4994 107.672 34.7321 107.517 34.9283 107.322C35.1245 107.126 35.2802 106.894 35.3867 106.639C35.4932 106.383 35.5483 106.109 35.5489 105.832V59.1524C35.5485 58.8754 35.4935 58.6012 35.3871 58.3455C35.2808 58.0897 35.125 57.8575 34.9288 57.662C34.7326 57.4665 34.4998 57.3116 34.2437 57.2061C33.9876 57.1005 33.7133 57.0465 33.4363 57.0471Z" fill="url(#paint5_linear_895_62541)"/>
<path d="M33.7351 57.4387H11.8217C10.9273 57.4387 10.2023 58.1638 10.2023 59.0581V106.124C10.2023 107.018 10.9273 107.743 11.8217 107.743H33.7351C34.6295 107.743 35.3546 107.018 35.3546 106.124V59.0581C35.3546 58.1638 34.6295 57.4387 33.7351 57.4387Z" fill="#535461"/>
<path d="M33.501 62.1174H12.0542V103.062H33.501V62.1174Z" fill="#F1F1F4"/>
<path d="M20.2425 59.9724C20.3499 59.9724 20.4369 59.8854 20.4369 59.7781C20.4369 59.6707 20.3499 59.5837 20.2425 59.5837C20.1352 59.5837 20.0482 59.6707 20.0482 59.7781C20.0482 59.8854 20.1352 59.9724 20.2425 59.9724Z" fill="white"/>
<path d="M25.3614 59.5823H21.3658C21.2845 59.5823 21.2186 59.6482 21.2186 59.7295V59.8252C21.2186 59.9065 21.2845 59.9724 21.3658 59.9724H25.3614C25.4427 59.9724 25.5086 59.9065 25.5086 59.8252V59.7295C25.5086 59.6482 25.4427 59.5823 25.3614 59.5823Z" fill="white"/>
<path d="M22.6805 106.377C23.4342 106.377 24.0452 105.766 24.0452 105.012C24.0452 104.259 23.4342 103.648 22.6805 103.648C21.9268 103.648 21.3158 104.259 21.3158 105.012C21.3158 105.766 21.9268 106.377 22.6805 106.377Z" fill="white"/>
<path opacity="0.1" d="M30.09 64.5686H15.4653V75.5909H30.09V64.5686Z" fill="black"/>
<path d="M30.09 76.9688H15.4653V87.991H30.09V76.9688Z" fill="white"/>
<path opacity="0.2" d="M21.7706 77.9227H16.8962V80.6787H21.7706V77.9227Z" fill="#00BF6F"/>
<path d="M28.659 77.9227H22.9366V78.5587H28.659V77.9227Z" fill="#E6E8EC"/>
<path d="M26.9645 78.9827H22.9366V79.6186H26.9645V78.9827Z" fill="#E6E8EC"/>
<path d="M28.659 80.0413H22.9366V80.6772H28.659V80.0413Z" fill="#E6E8EC"/>
<path d="M28.6605 81.1012H16.8962V81.7372H28.6605V81.1012Z" fill="#E6E8EC"/>
<path d="M28.6605 82.1611H16.8962V82.7971H28.6605V82.1611Z" fill="#E6E8EC"/>
<path d="M28.6605 83.2212H16.8962V83.8572H28.6605V83.2212Z" fill="#E6E8EC"/>
<path d="M27.7065 84.2811H16.8962V84.9171H27.7065V84.2811Z" fill="#E6E8EC"/>
<path d="M28.6605 85.3411H16.8962V85.9771H28.6605V85.3411Z" fill="#E6E8EC"/>
<path d="M28.6605 86.4011H16.8962V87.0371H28.6605V86.4011Z" fill="#E6E8EC"/>
<path d="M30.09 89.394H15.4653V100.416H30.09V89.394Z" fill="white"/>
<path opacity="0.2" d="M21.7706 90.348H16.8962V93.104H21.7706V90.348Z" fill="#FFCD00"/>
<path d="M28.659 90.348H22.9366V90.984H28.659V90.348Z" fill="#E6E8EC"/>
<path d="M26.9645 91.408H22.9366V92.0439H26.9645V91.408Z" fill="#E6E8EC"/>
<path d="M28.659 92.4679H22.9366V93.1039H28.659V92.4679Z" fill="#E6E8EC"/>
<path d="M28.6605 93.528H16.8962V94.1639H28.6605V93.528Z" fill="#E6E8EC"/>
<path d="M28.6605 94.5879H16.8962V95.2239H28.6605V94.5879Z" fill="#E6E8EC"/>
<path d="M28.6605 95.6478H16.8962V96.2838H28.6605V95.6478Z" fill="#E6E8EC"/>
<path d="M27.7065 96.7079H16.8962V97.3439H27.7065V96.7079Z" fill="#E6E8EC"/>
<path d="M28.6605 97.7664H16.8962V98.4023H28.6605V97.7664Z" fill="#E6E8EC"/>
<path d="M28.6605 98.8263H16.8962V99.4623H28.6605V98.8263Z" fill="#E6E8EC"/>
<path d="M80.0368 94.6011C79.0474 93.4012 77.8491 92.0218 78.0169 90.4245C78.1524 89.1304 77.827 87.935 77.8918 86.638C77.9831 84.7949 77.6106 83.3506 76.2827 82.1685C75.5068 81.478 74.2098 80.9348 73.8241 81.0732C73.0586 81.347 72.2239 81.2425 71.4363 81.4265C70.8385 81.5737 70.4396 81.7813 70.1937 82.0507C69.6976 82.4924 69.6888 83.1195 69.9155 83.7894C69.7175 84.1512 69.5981 84.5506 69.5648 84.9617C69.5316 85.3727 69.5853 85.7862 69.7225 86.1751C69.8598 86.564 70.0774 86.9196 70.3613 87.2188C70.6451 87.518 70.9888 87.754 71.37 87.9115C70.8179 88.1411 70.3395 88.6726 70.1555 89.7502C70.0245 90.4907 69.8274 91.2179 69.5666 91.9232C69.4496 91.9788 69.3297 92.0279 69.2074 92.0704C69.2339 92.0807 69.2618 92.0881 69.2898 92.0984C69.2324 92.1204 69.1735 92.1425 69.1161 92.1631C69.222 92.2043 69.3314 92.2358 69.4429 92.2573C69.0413 93.2998 68.5016 94.2837 67.8382 95.1826C67.8382 95.1826 66.1717 95.5506 65.524 94.9073C65.524 94.9073 65.63 95.0309 65.7728 95.2164C65.1382 94.9529 64.0989 94.5245 63.2097 94.1712C62.5649 93.915 62.3985 94.1712 62.4073 94.5275C62.2488 94.5459 62.0956 94.5959 61.9569 94.6747C61.7663 94.5523 61.5664 94.445 61.3592 94.3537C60.9882 94.2625 59.7854 93.6177 58.5811 95.8259C57.8804 97.1111 56.0784 99.4548 54.7019 101.191C52.0152 102.426 48.5188 103.988 47.2203 104.384H46.39C46.281 104.206 46.2045 104.089 46.2045 104.089L46.1397 104.132L46.1117 104.089C46.1117 104.089 44.4761 105.221 42.8155 105.23C42.5792 105.226 42.3441 105.196 42.1148 105.139C41.3507 104.946 40.8134 104.861 40.4291 104.868C39.9742 104.861 39.7166 104.968 39.5561 105.171C39.5352 105.198 39.516 105.226 39.4987 105.255C39.4809 105.285 39.4647 105.316 39.4501 105.348C39.4354 105.38 39.4221 105.414 39.4089 105.45C39.4038 105.481 39.4058 105.512 39.4147 105.542C39.4236 105.572 39.4393 105.6 39.4604 105.623C39.4825 105.655 39.5066 105.686 39.5326 105.715L39.5782 105.765C39.9071 106.071 40.2634 106.346 40.6426 106.588C40.7795 106.68 40.9238 106.775 41.0754 106.872L41.3625 107.054L41.6186 107.215L41.7217 107.278L41.8365 107.349L42.0412 107.474L42.1633 107.547L42.393 107.684L42.5785 107.795C43.0643 108.089 43.5501 108.36 43.9859 108.606L44.2921 108.778L44.3216 108.794L44.5174 108.903L44.8574 109.092L45.0915 109.22L45.2005 109.28L45.3182 109.343L45.3418 109.357L45.545 109.467C45.5868 109.474 45.6296 109.472 45.6705 109.461C45.7114 109.45 45.7495 109.43 45.782 109.402C45.8409 109.152 45.9851 108.616 46.1382 108.575C46.2913 108.534 46.9597 107.362 47.1496 106.582H48.956C49.311 106.552 49.6637 106.498 50.0116 106.421C49.5449 106.754 49.0826 106.963 48.7234 106.873C47.9637 106.685 47.2439 107.147 47.1717 107.609L47.1629 107.637C47.1629 107.646 47.1629 107.656 47.1629 107.665C47.1629 107.674 47.1629 107.687 47.1629 107.699C47.1629 107.711 47.1629 107.718 47.1629 107.727C47.1629 107.736 47.1629 107.749 47.1629 107.761C47.1629 107.773 47.1629 107.78 47.1629 107.789C47.1629 107.798 47.1629 107.812 47.1629 107.823C47.1629 107.833 47.1629 107.84 47.1629 107.849C47.1629 107.858 47.1629 107.874 47.1717 107.886C47.1805 107.898 47.1717 107.902 47.1717 107.91C47.1772 107.926 47.1836 107.941 47.1909 107.957V107.968C47.2009 107.988 47.2122 108.007 47.2247 108.024L47.2394 108.044L47.2689 108.08L47.2895 108.101L47.3234 108.133L47.3484 108.154L47.3881 108.183L47.4176 108.203L47.4662 108.231L47.4985 108.248L47.5589 108.276L47.5898 108.289C47.6222 108.303 47.6561 108.316 47.6929 108.328C47.7297 108.339 47.8195 108.366 47.8975 108.385L47.9755 108.404L48.0889 108.431L48.1492 108.444L48.3966 108.494L48.5173 108.516L48.6159 108.534L48.8426 108.574L49.2843 108.646L49.6744 108.705L50.1823 108.777L50.2942 108.791L50.4768 108.816L50.7388 108.852L50.9184 108.875L51.3822 108.934L51.5294 108.952L51.8238 108.987C52.2081 109.033 52.5805 109.077 52.9221 109.115L53.3181 109.159L53.5183 109.182L53.6037 109.19L53.8437 109.217L53.9776 109.232L54.141 109.249L54.3722 109.273H54.3972L54.5444 109.288C54.5628 109.289 54.5814 109.287 54.5991 109.282C54.6167 109.276 54.6329 109.267 54.6467 109.254C54.6606 109.242 54.6717 109.227 54.6794 109.21C54.6872 109.193 54.6913 109.175 54.6916 109.157C54.6916 109.157 54.6916 109.146 54.6916 109.142C54.7056 109.121 54.7133 109.096 54.7137 109.071C54.7174 108.851 54.7451 108.632 54.7962 108.417C54.8065 108.381 54.8182 108.342 54.83 108.306L54.8447 108.263C54.8609 108.217 54.8771 108.172 54.8963 108.125C54.9094 108.091 54.9207 108.057 54.9301 108.023L54.939 107.991C54.939 107.973 54.9478 107.954 54.9522 107.935C55.1392 107.299 54.9139 106.114 54.8492 105.648C54.8288 105.498 54.7948 105.35 54.7476 105.207C54.7593 105.208 54.7712 105.208 54.7829 105.207C54.8789 105.171 54.9692 105.121 55.0508 105.059C56.4156 104.572 57.5683 104.016 57.9319 103.458C58.5234 103.3 59.1522 103.366 59.6985 103.642C60.4052 103.994 65.7536 105.738 68.2446 106.545C68.6862 106.931 69.0425 107.156 69.2353 107.134C69.2353 107.134 72.4049 107.646 73.6799 106.645C73.7932 106.723 73.8639 106.766 73.8639 106.766C73.8639 106.766 75.7159 105.846 75.9941 104.65C76.0839 104.263 76.1649 103.69 76.2473 103.057C76.6774 102.624 76.9191 102.039 76.9201 101.429C76.9776 99.4195 77.7563 97.1244 78.3334 95.0795C79.0342 95.134 79.3051 95.003 79.9528 94.685L79.9249 94.6482L80.0368 94.6011ZM69.4194 97.6102L69.066 97.491C69.1857 97.3311 69.2888 97.1594 69.3737 96.9786L69.4194 97.6102ZM67.426 98.4552L69.5725 99.7434L69.5916 100.005C69.5654 100.205 69.5714 100.407 69.6093 100.605C68.6641 99.764 67.557 98.7438 67.4275 98.4552H67.426ZM66.5501 96.5797C66.316 96.4825 66.1217 96.3957 65.9892 96.3235L66.4868 96.3544C66.5162 96.427 66.5379 96.5025 66.5515 96.5797H66.5501ZM60.8086 98.6775C60.8086 98.6775 61.1795 97.8502 62.0128 99.2296C62.1424 99.4445 62.3808 99.7846 62.6959 100.209L60.2727 99.8833C60.5244 99.5183 60.7052 99.1093 60.8056 98.6775H60.8086Z" fill="url(#paint6_linear_895_62541)"/>
<path d="M66.1394 95.352C66.1394 95.352 64.4405 94.6365 63.1008 94.1006C61.7611 93.5647 62.565 95.352 62.565 95.352C62.565 95.352 64.7997 95.9776 64.7997 96.0674C64.7997 96.1572 66.6768 96.2456 66.6768 96.2456L66.1394 95.352Z" fill="#F7C4A7"/>
<path opacity="0.05" d="M66.1394 95.352C66.1394 95.352 64.4405 94.6365 63.1008 94.1006C61.7611 93.5647 62.565 95.352 62.565 95.352C62.565 95.352 64.7997 95.9776 64.7997 96.0674C64.7997 96.1572 66.6768 96.2456 66.6768 96.2456L66.1394 95.352Z" fill="black"/>
<path d="M73.3752 88.2913C73.3752 88.2913 70.3366 86.6822 69.7993 89.8106C69.4647 91.715 68.7021 93.5187 67.5689 95.0854C67.5689 95.0854 65.9598 95.4432 65.3341 94.8175C65.3341 94.8175 66.8534 96.6047 66.1379 96.7843C66.1379 96.7843 67.747 97.9459 68.4625 97.5881C69.178 97.2304 69.7139 94.8175 69.9818 94.1918C70.2498 93.5661 71.2332 88.1117 73.3752 88.2913Z" fill="#575988"/>
<path opacity="0.1" d="M73.3752 88.2913C73.3752 88.2913 70.3366 86.6822 69.7993 89.8106C69.4647 91.715 68.7021 93.5187 67.5689 95.0854C67.5689 95.0854 65.9598 95.4432 65.3341 94.8175C65.3341 94.8175 66.8534 96.6047 66.1379 96.7843C66.1379 96.7843 67.747 97.9459 68.4625 97.5881C69.178 97.2304 69.7139 94.8175 69.9818 94.1918C70.2498 93.5661 71.2332 88.1117 73.3752 88.2913Z" fill="black"/>
<path d="M71.6807 87.2181C71.6807 87.2181 73.5577 89.3631 73.6475 91.1503C73.7373 92.9375 75.7925 89.2733 75.9721 89.1835C76.1517 89.0937 74.1834 86.0565 74.0038 85.0746C73.8242 84.0926 71.6807 87.2181 71.6807 87.2181Z" fill="#F7C4A7"/>
<path d="M72.9762 88.1353L71.7926 89.207L72.3506 91.4639L73.8699 90.0344L73.6917 88.6049L72.9762 88.1353Z" fill="#F7C4A7"/>
<path d="M48.2627 104.023H46.2075L47.0113 105.988L48.9782 105.453L48.2627 104.023Z" fill="#F7C4A7"/>
<path opacity="0.1" d="M46.6815 103.739C46.6815 103.739 44.5557 105.222 42.7346 104.759C40.9135 104.297 40.4218 104.465 40.2098 105.067C40.014 105.615 45.2903 108.513 46.1309 108.971C46.1441 108.98 46.1594 108.985 46.1752 108.987C46.1911 108.988 46.207 108.986 46.2216 108.979C46.2362 108.973 46.2491 108.963 46.2589 108.951C46.2688 108.938 46.2754 108.924 46.2781 108.908C46.3355 108.665 46.4739 108.144 46.6211 108.104C46.814 108.053 47.6958 106.408 47.6516 105.759C47.6075 105.11 46.6815 103.739 46.6815 103.739Z" fill="black"/>
<path d="M46.5931 103.739C46.5931 103.739 44.4673 105.222 42.6462 104.759C40.8251 104.297 40.3334 104.465 40.1214 105.067C39.9256 105.615 45.2019 108.513 46.0425 108.971C46.0558 108.98 46.071 108.985 46.0869 108.987C46.1027 108.988 46.1187 108.986 46.1333 108.979C46.1479 108.973 46.1607 108.963 46.1706 108.951C46.1804 108.938 46.187 108.924 46.1898 108.908C46.2472 108.665 46.3856 108.144 46.5328 108.104C46.7256 108.053 47.6075 106.408 47.5633 105.759C47.5191 105.11 46.5931 103.739 46.5931 103.739Z" fill="#F3B5B7"/>
<path d="M64.1725 100.179L58.1837 99.3755C58.1837 99.3755 48.4407 104.023 47.2792 104.113L47.5471 106.174H49.3343C50.0498 106.174 57.0206 104.655 58.004 103.135C58.573 102.984 59.1778 103.047 59.7029 103.314C60.5966 103.755 69.1779 106.532 69.1779 106.532L64.1725 100.179Z" fill="#575988"/>
<path opacity="0.1" d="M64.1725 100.179L58.1837 99.3755C58.1837 99.3755 48.4407 104.023 47.2792 104.113L47.5471 106.174H49.3343C50.0498 106.174 57.0206 104.655 58.004 103.135C58.573 102.984 59.1778 103.047 59.7029 103.314C60.5966 103.755 69.1779 106.532 69.1779 106.532L64.1725 100.179Z" fill="black"/>
<path d="M53.536 102.95L52.5526 104.201L53.536 104.737L54.967 103.665L53.536 102.95Z" fill="#F7C4A7"/>
<path d="M70.6075 101.519C70.6075 101.519 67.3923 98.7659 67.167 98.2654C66.9418 97.7648 61.6699 94.37 61.3121 94.2802C60.9544 94.1904 59.7928 93.5647 58.6313 95.7097C57.4697 97.8546 53.1842 103.038 53.1842 103.038C53.1842 103.038 54.5254 104.915 54.9714 104.825C55.4175 104.736 60.4185 100.535 60.7807 98.4789C60.7807 98.4789 61.1384 97.675 61.9422 99.0147C62.746 100.354 67.9311 106.791 68.9145 106.701C68.9145 106.701 72.7584 107.327 73.5622 105.807C74.366 104.288 70.6075 101.519 70.6075 101.519Z" fill="#575988"/>
<path d="M69.705 87.0886H56.3214V97.1746H69.705V87.0886Z" fill="url(#paint7_linear_895_62541)"/>
<path d="M69.1574 87.4993H56.8676V96.7623H69.1574V87.4993Z" fill="white"/>
<path opacity="0.2" d="M62.1674 88.3016H58.0703V90.6174H62.1674V88.3016Z" fill="#00BF6F"/>
<path d="M67.9561 88.3016H63.1465V88.836H67.9561V88.3016Z" fill="#E6E8EC"/>
<path d="M66.531 89.1924H63.1465V89.7268H66.531V89.1924Z" fill="#E6E8EC"/>
<path d="M67.9561 90.083H63.1465V90.6174H67.9561V90.083Z" fill="#E6E8EC"/>
<path d="M67.956 90.9736H58.0703V91.508H67.956V90.9736Z" fill="#E6E8EC"/>
<path d="M67.956 91.8644H58.0703V92.3988H67.956V91.8644Z" fill="#E6E8EC"/>
<path d="M67.956 92.755H58.0703V93.2894H67.956V92.755Z" fill="#E6E8EC"/>
<path d="M67.1552 93.6456H58.0703V94.18H67.1552V93.6456Z" fill="#E6E8EC"/>
<path d="M67.956 94.5364H58.0703V95.0708H67.956V94.5364Z" fill="#E6E8EC"/>
<path d="M67.956 95.427H58.0703V95.9614H67.956V95.427Z" fill="#E6E8EC"/>
<path d="M72.4404 88.4253C72.4404 88.4253 71.323 88.917 71.2332 90.9721C71.1434 93.0273 69.1721 96.5134 69.1721 96.5134L69.3502 100.625C69.3502 100.625 71.4952 102.77 71.6748 104.111C71.8544 105.453 73.3752 106.346 73.3752 106.346C73.3752 106.346 75.1625 105.453 75.4363 104.285C75.7101 103.118 75.8779 100.263 76.3299 99.1899C76.7819 98.1167 76.508 91.4138 76.508 91.4138L75.1669 89.0892L74.4514 88.2854L72.5743 90.4304C72.5743 90.4304 71.5468 89.0495 72.4404 88.4253Z" fill="#F3B5B7"/>
<path opacity="0.1" d="M69.8037 99.2842C69.8037 99.2842 69.5358 96.066 70.3396 95.352L71.9487 90.7882C71.9487 90.7882 72.5302 88.599 72.4404 88.4194C72.3506 88.2398 70.3396 90.1625 70.3396 90.1625L68.9984 94.9L69.3562 99.9054L69.8037 99.2842Z" fill="black"/>
<path d="M69.7139 99.2842C69.7139 99.2842 69.4459 96.066 70.2497 95.352L71.8588 90.7882C71.8588 90.7882 72.4845 88.5534 72.3947 88.3753C72.3049 88.1972 70.2497 90.1625 70.2497 90.1625L68.9086 94.9001L69.2663 99.9055L69.7139 99.2842Z" fill="#575988"/>
<path d="M70.3396 97.8547C70.3396 97.8547 65.8671 96.4252 65.6021 96.0674C65.3371 95.7097 62.4737 93.3866 61.4903 94.9942C60.5069 96.6019 65.1545 97.0553 65.1545 97.0553L69.892 99.9158L70.3396 97.8547Z" fill="#F7C4A7"/>
<path opacity="0.1" d="M53.7288 104.192L52.4038 103.954C52.4038 103.954 50.2368 106.729 49.1091 106.448C47.9814 106.167 46.942 107.381 48.1345 107.773C49.2121 108.125 53.8628 108.618 54.752 108.709C54.7702 108.712 54.7887 108.71 54.8063 108.705C54.8239 108.7 54.8402 108.691 54.8541 108.679C54.8681 108.667 54.8793 108.652 54.887 108.636C54.8948 108.619 54.899 108.601 54.8992 108.583C54.9034 108.238 54.9702 107.896 55.0965 107.576C55.335 106.987 55.0965 105.732 55.0302 105.255C54.9934 104.974 54.905 104.702 54.7696 104.453L53.7288 104.192Z" fill="black"/>
<path d="M53.7082 104.279L52.3833 104.041C52.3833 104.041 50.2192 106.817 49.0841 106.535C47.949 106.252 46.917 107.468 48.1095 107.86C49.1872 108.212 53.8378 108.705 54.727 108.796C54.7452 108.798 54.7637 108.797 54.7813 108.792C54.7989 108.787 54.8152 108.778 54.8291 108.766C54.8431 108.754 54.8543 108.739 54.8621 108.722C54.8698 108.706 54.874 108.688 54.8742 108.669C54.8784 108.325 54.9453 107.983 55.0715 107.662C55.31 107.073 55.0715 105.819 55.0052 105.342C54.9684 105.061 54.8801 104.789 54.7447 104.54L53.7082 104.279Z" fill="#F3B5B7"/>
<path opacity="0.1" d="M72.3506 88.2471C73.9304 88.2471 75.211 86.9665 75.211 85.3867C75.211 83.8069 73.9304 82.5262 72.3506 82.5262C70.7708 82.5262 69.4901 83.8069 69.4901 85.3867C69.4901 86.9665 70.7708 88.2471 72.3506 88.2471Z" fill="black"/>
<path d="M72.0826 88.2471C73.6624 88.2471 74.9431 86.9665 74.9431 85.3867C74.9431 83.8069 73.6624 82.5262 72.0826 82.5262C70.5028 82.5262 69.2222 83.8069 69.2222 85.3867C69.2222 86.9665 70.5028 88.2471 72.0826 88.2471Z" fill="#F7C4A7"/>
<path d="M74.8975 88.2015C74.8975 88.2015 78.2938 89.3631 78.2938 91.7775C78.2938 94.1919 76.4168 98.0343 76.327 101.163C76.2372 104.291 71.3215 103.844 71.3215 103.844C71.3215 103.844 70.606 93.2968 71.3215 92.4915C72.037 91.6862 75.2552 88.5593 74.8975 88.2015Z" fill="#575988"/>
<path opacity="0.1" d="M74.2717 93.207C74.2717 93.207 73.0204 98.7483 70.0701 97.7708C70.0701 97.7708 68.5508 100.006 69.6285 100.989C69.6285 100.989 72.221 101.615 73.9184 99.9158C75.6158 98.2169 76.8643 97.5883 77.1322 95.5272C77.4001 93.4661 77.5739 90.6116 76.6905 90.8795C75.8072 91.1474 74.2717 93.207 74.2717 93.207Z" fill="black"/>
<path d="M74.3616 93.1172C74.3616 93.1172 73.1102 98.6586 70.1599 97.681C70.1599 97.681 68.6407 99.9158 69.7183 100.899C69.7183 100.899 72.3108 101.525 74.0082 99.826C75.7057 98.1271 76.9526 97.5014 77.2264 95.4462C77.5003 93.3911 77.6681 90.5306 76.7848 90.7985C75.9015 91.0665 74.3616 93.1172 74.3616 93.1172Z" fill="#575988"/>
<path d="M55.148 107.375C55.148 107.384 55.148 107.393 55.1392 107.4C55.0753 107.553 55.026 107.711 54.9919 107.873C55.0126 107.802 55.0376 107.726 55.067 107.659C55.1048 107.568 55.1319 107.473 55.148 107.375Z" fill="#DDDBE2"/>
<path d="M48.1816 107.599C47.8136 107.478 47.659 107.28 47.6531 107.071C47.5059 107.365 47.5972 107.689 48.1169 107.86C49.1945 108.212 53.8466 108.705 54.7343 108.796C54.7526 108.799 54.7713 108.797 54.789 108.792C54.8067 108.787 54.8231 108.778 54.837 108.765C54.851 108.753 54.8621 108.738 54.8698 108.721C54.8775 108.705 54.8815 108.686 54.8815 108.668C54.8821 108.635 54.8705 108.604 54.849 108.579C54.8275 108.555 54.7976 108.539 54.7652 108.535C53.7862 108.429 49.2446 107.945 48.1816 107.599Z" fill="#DDDBE2"/>
<path d="M40.2436 104.909C40.2665 104.843 40.2956 104.78 40.3305 104.719C40.2339 104.817 40.1618 104.936 40.1199 105.067C39.9241 105.615 45.2005 108.512 46.0411 108.971C46.0544 108.98 46.0696 108.985 46.0854 108.986C46.1011 108.987 46.1169 108.984 46.1314 108.978C46.1459 108.972 46.1586 108.962 46.1685 108.95C46.1785 108.938 46.1852 108.923 46.1883 108.908C46.1932 108.887 46.1913 108.866 46.1828 108.846C46.1743 108.827 46.1597 108.811 46.1412 108.8C45.2078 108.291 40.0493 105.451 40.2436 104.909Z" fill="#DDDBE2"/>
<path d="M46.6491 107.946C46.602 107.96 46.5549 108.022 46.5122 108.11H46.5269C46.5652 108.1 46.6329 108.023 46.7154 107.904C46.6968 107.923 46.6742 107.938 46.6491 107.946Z" fill="#DDDBE2"/>
<path opacity="0.1" d="M71.6851 87.9041C71.4334 88.4592 71.3804 89.0819 71.1949 89.6708C71.0142 90.2408 70.7043 90.7614 70.2894 91.1919C69.8744 91.6225 69.3656 91.9513 68.8026 92.1529C69.7316 92.5239 70.8269 92.0704 71.5453 91.3196C72.2637 90.5688 72.6833 89.5692 73.0867 88.5975C74.129 89.2983 74.0024 90.9089 74.3513 92.1632C74.5017 92.7088 74.7675 93.2157 75.1307 93.6498C75.4938 94.0838 75.946 94.4349 76.4565 94.6792C76.9652 94.9076 77.5183 95.0202 78.0758 95.009C78.6333 94.9978 79.1814 94.863 79.6806 94.6144C78.7251 93.4484 77.3648 91.8496 77.5268 90.2979C77.6578 89.0407 76.7553 88.0808 76.8186 86.8206C76.907 85.0304 76.2298 84.125 74.9416 82.9767C74.1923 82.3054 75.3715 81.3573 74.4057 81.6356C74.0259 81.7445 73.6255 81.3411 73.253 81.4722C72.5169 81.7372 71.7087 81.637 70.9491 81.8152C66.9992 82.7397 72.0502 87.093 71.6851 87.9041Z" fill="black"/>
<path d="M71.7749 87.8143C71.5231 88.3694 71.4701 88.9921 71.2846 89.581C71.104 90.151 70.7941 90.6716 70.3791 91.1021C69.9641 91.5327 69.4553 91.8615 68.8923 92.0631C69.8213 92.4341 70.9166 91.9806 71.635 91.2298C72.3534 90.479 72.773 89.4794 73.1764 88.5077C74.2187 89.2085 74.0921 90.8191 74.441 92.0734C74.5914 92.619 74.8572 93.1259 75.2204 93.56C75.5836 93.994 76.0357 94.3451 76.5462 94.5893C77.0549 94.8177 77.608 94.9304 78.1655 94.9192C78.723 94.908 79.2711 94.7732 79.7703 94.5246C78.8148 93.3586 77.5443 92.0219 77.7092 90.4761C77.8403 89.2188 77.6445 87.9277 77.7092 86.6675C77.7976 84.8773 76.9216 83.1534 75.6393 82.0051C74.89 81.3338 73.7255 81.2484 73.3472 81.3824C72.6111 81.6474 71.8028 81.5472 71.0432 81.7254C67.0889 82.6514 72.1429 87.0032 71.7749 87.8143Z" fill="#B96B6B"/>
<path d="M24.1188 115.032C29.2714 113.447 32.313 113.578 32.313 113.578L31.8904 111.182C32.0224 111.094 32.1422 110.989 32.2467 110.869C32.2467 110.869 31.7182 107.961 32.2467 107.234C32.7752 106.507 34.2297 99.8996 34.2297 99.8996V97.6516C36.8797 96.727 39.9786 91.3742 39.9786 91.3742L43.8784 101.416C43.8784 101.416 47.7768 109.148 48.3053 109.411C48.7278 109.622 48.9383 111.352 49.0075 112.039L48.9751 112.05C48.9913 112.216 48.9987 112.319 48.9987 112.319L49.0296 112.298V112.319C49.095 112.273 49.164 112.233 49.2357 112.198C48.4746 113.073 47.3351 114.33 46.387 115.16C45.8644 115.618 46.8022 115.971 47.2409 115.964C47.4905 115.956 47.7396 115.991 47.977 116.069C50.1985 116.836 53.851 114.036 53.851 114.036L52.9368 111.486C53.1753 111.467 53.3225 111.458 53.3225 111.458C53.3225 111.458 50.3487 101.017 48.9604 100.025C48.5216 99.7048 48.1258 99.3298 47.7827 98.9088C47.1224 98.1064 46.7896 97.0842 46.8508 96.0469L47.3381 87.4802C48.1213 87.3654 48.6262 87.2697 48.6262 87.2697C48.6262 87.2697 48.8088 84.9289 48.8029 83.1329C48.8029 82.198 48.7646 81.378 48.6262 81.0571C48.4628 80.6773 48.4113 79.9176 48.4084 79.155C48.4084 78.1245 48.4937 77.1587 48.4937 77.1587C48.4937 77.1587 49.5508 75.7705 51.0053 72.595C51.6457 71.1979 51.812 70.0922 51.7973 69.3002C51.8072 68.9312 51.7716 68.5623 51.6913 68.202C51.6501 68.0238 51.5739 67.8556 51.4669 67.7072C51.36 67.5588 51.2246 67.4332 51.0686 67.3378C50.2324 66.8255 48.3289 65.5609 47.768 64.336C47.0554 62.7814 46.0264 62.5605 45.9851 62.5517L45.9218 62.2779C46.3165 61.9516 46.6046 61.5148 46.7492 61.0236C46.9641 60.3611 47.0083 59.6544 47.1909 58.9817C47.2792 58.6578 47.4014 58.3442 47.4853 58.0203C47.5691 57.6944 47.6092 57.3587 47.6045 57.0222C47.6205 56.532 47.5196 56.045 47.3101 55.6015C46.9686 54.8993 46.2884 54.3472 45.514 54.2559C45.0871 54.2059 44.6145 54.2795 44.2642 54.0307C44.0227 53.8585 43.8961 53.5655 43.6753 53.3609C43.2557 52.9634 42.5844 52.984 42.0382 53.1695C41.3028 53.4217 40.6727 53.9124 40.248 54.5636C39.9933 54.9552 39.8152 55.4042 39.4884 55.7414C39.2131 56.0226 38.8524 56.2022 38.5491 56.4524C38.3246 56.6276 38.1421 56.8507 38.0147 57.1054C37.8874 57.36 37.8185 57.6399 37.813 57.9246C37.813 57.9246 37.813 57.9394 37.813 57.9467C37.813 57.9835 37.813 58.0203 37.813 58.0571C37.8278 58.6254 38.2238 59.1907 38.7803 59.3055C38.926 59.3324 39.075 59.3363 39.2219 59.3173C39.0964 59.7811 39.0659 60.2654 39.1321 60.7412C39.1983 61.217 39.3599 61.6746 39.6072 62.0864C39.8545 62.4983 40.1825 62.856 40.5714 63.1381C40.9602 63.4201 41.4021 63.6208 41.8704 63.728C41.8615 63.7751 41.8512 63.8222 41.8409 63.8752H41.8719C41.8081 64.1043 41.7284 64.3286 41.6334 64.5465H41.5907L41.6981 64.3551L40.1818 64.2506C39.7403 64.2174 39.2977 64.3001 38.898 64.4906C38.3754 64.7438 37.8042 65.2267 37.7335 66.1394C37.601 67.8501 34.3622 70.4264 34.3622 70.4264C33.239 72.2107 25.9031 72.5405 25.9031 72.5405C25.9031 72.5405 25.9355 72.5817 25.9502 72.6038L25.803 72.5758L25.2479 72.4742C25.2479 72.4742 23.5299 67.3864 21.8781 68.3109C20.2263 69.2354 24.7194 74.2585 24.7194 74.2585L26.0179 74.3454L26.1489 74.3542C26.1013 74.6835 26.0329 75.0095 25.9443 75.3303C25.9266 75.3951 25.9134 75.4363 25.9104 75.4466C25.9104 75.4466 29.3259 75.052 32.2276 75.1153H32.4896L32.6751 75.1065C32.8223 76.7009 35.0954 79.9412 35.0954 79.9412L36.4984 80.2356L36.6044 80.2577C36.1523 81.1927 35.578 82.0635 34.8966 82.8473L34.4344 85.4251L34.4712 85.4162L34.4344 85.6238C34.5136 85.6045 34.5869 85.5661 34.6478 85.5119C33.7424 87.9145 32.2408 91.6539 31.197 92.9582C29.6115 94.9413 29.8088 98.1109 29.8088 98.1109C29.8088 98.1109 28.2232 106.438 28.2895 107.957C28.2971 108.69 28.0987 109.411 27.7168 110.037C27.4058 110.394 27.1325 110.782 26.9012 111.196C25.7117 113.245 23.7949 113.11 23.7949 113.11C22.1431 114.172 24.1188 115.032 24.1188 115.032ZM34.3254 74.7252L34.4962 74.6575L34.536 74.6413L34.6994 74.5706L34.7273 74.5574L34.8746 74.4897L34.9069 74.4749L35.063 74.3969L35.0998 74.3778L35.247 74.2997H35.2588L35.406 74.2144L35.4413 74.1938L35.5886 74.1084L35.6121 74.0936L35.7402 74.0156L35.7696 73.998L35.9066 73.9111L35.9375 73.8905L36.0641 73.8066L36.0759 73.7992L36.2054 73.7094L36.2349 73.6888L36.3585 73.6005L36.3777 73.5872L36.4866 73.5077L36.5102 73.49L36.6235 73.4032L36.6471 73.3855L36.7501 73.3046H36.759L36.8635 73.2206L36.8856 73.203L36.9842 73.122L36.993 73.1146L37.0814 73.0396L37.0961 73.0263L37.1829 72.9512L37.1962 72.9395L37.2757 72.8673L37.3522 72.7981L37.3626 72.7878L37.5098 72.6406L37.7247 72.6229C37.9073 72.8599 37.9794 73.2795 37.9868 73.7609C37.9661 74.9961 37.5922 76.5213 37.5922 76.5213C37.5603 77.2782 37.4287 78.0277 37.2006 78.7502C37.0394 78.7414 36.8812 78.703 36.7339 78.6368C36.7339 78.6368 36.7251 78.6839 36.7118 78.7634L36.5852 78.731L35.9419 78.5706C35.9419 78.5706 35.4075 75.85 34.3254 74.7252Z" fill="url(#paint8_linear_895_62541)"/>
<path d="M52.2464 109.924L53.4727 113.341C53.4727 113.341 50.1147 115.917 47.9329 115.384C47.6042 115.302 47.2694 115.248 46.9318 115.222C46.4798 115.188 45.7025 114.86 46.1824 114.44C47.7312 113.086 49.7952 110.57 49.7952 110.57L52.2464 109.924Z" fill="#4F4D59"/>
<path d="M31.8596 109.601L32.4396 112.892C32.4396 112.892 29.4717 112.762 24.4397 114.311C24.4397 114.311 22.5038 113.472 24.1173 112.44C24.1173 112.44 25.9885 112.569 27.15 110.568C28.3116 108.568 29.0212 108.827 29.0212 108.827L31.8596 109.601Z" fill="#4F4D59"/>
<path d="M47.2144 85.7297L46.6462 95.7406C46.5853 96.8075 46.9392 97.8567 47.634 98.6688C47.9481 99.0416 48.3059 99.3753 48.6999 99.6625C50.0543 100.63 52.9574 110.823 52.9574 110.823C52.9574 110.823 49.6671 111.016 48.7646 111.662C48.7646 111.662 48.5718 109.082 48.055 108.824C47.5383 108.566 43.7327 101.021 43.7327 101.021L39.9242 91.2136C39.9242 91.2136 36.8915 96.4399 34.3107 97.3423V99.5359C34.3107 99.5359 32.8915 105.987 32.3748 106.697C31.8581 107.406 32.3748 110.245 32.3748 110.245C32.3748 110.245 30.8908 112.116 27.4724 110.115C27.4724 110.115 28.5692 108.889 28.5029 107.405C28.4367 105.921 29.9898 97.7943 29.9898 97.7943C29.9898 97.7943 29.797 94.7027 31.3443 92.7624C32.8915 90.822 35.4664 83.4081 35.4664 83.4081L37.2418 79.5878L47.2144 85.7297Z" fill="#787C9C"/>
<g opacity="0.1">
<path opacity="0.1" d="M52.3435 110.826C52.3435 110.826 49.4404 100.633 48.086 99.6654C47.6696 99.361 47.2932 99.0054 46.9656 98.6069C46.3029 97.8059 45.9697 96.7827 46.0337 95.745L46.602 85.7341L37.0873 79.8689L37.2168 79.5907L47.182 85.7327L46.6138 95.7435C46.5498 96.7812 46.8829 97.8044 47.5457 98.6054C47.8732 99.0039 48.2496 99.3595 48.666 99.6639C50.0204 100.631 52.9236 110.825 52.9236 110.825C52.9236 110.825 49.6332 111.017 48.7308 111.664C48.7308 111.664 48.7234 111.564 48.7072 111.4C49.9763 110.966 52.3435 110.826 52.3435 110.826Z" fill="black"/>
<path opacity="0.1" d="M31.7639 110.249C31.7639 110.249 31.2471 107.411 31.7639 106.701C32.2806 105.991 33.6998 99.5403 33.6998 99.5403V97.3467C36.2805 96.4428 39.3132 91.218 39.3132 91.218L39.5385 91.7995C38.664 93.1863 36.3306 96.6298 34.2813 97.3467V99.5403C34.2813 99.5403 32.8621 105.991 32.3454 106.701C31.8286 107.411 32.3454 110.249 32.3454 110.249C32.3454 110.249 31.6255 111.154 30.0355 111.032C31.2206 110.931 31.7639 110.249 31.7639 110.249Z" fill="black"/>
</g>
<path d="M25.0212 74.5043L26.2888 74.5882L26.9572 74.6324V73.013L26.0739 72.854L25.5306 72.7554C25.5306 72.7554 23.8538 67.7882 22.2403 68.6907C20.6268 69.5931 25.0212 74.5043 25.0212 74.5043Z" fill="#714B4F"/>
<path d="M45.3433 61.215C45.3433 61.215 46.1824 64.4405 46.4401 66.4412C46.6977 68.4419 40.4409 66.8284 40.4409 66.8284C40.4409 66.8284 42.8273 63.9253 41.4714 62.3765L45.3433 61.215Z" fill="#714B4F"/>
<path d="M38.5698 74.6339L38.4402 75.8602L40.4394 75.7307L42.4387 73.9891L44.4379 68.3757L45.7305 66.3779L46.6977 65.1516L46.3105 63.6676C46.3105 63.6676 46.1338 63.8148 45.835 64.0504C44.853 64.8027 42.5476 66.3646 40.8634 65.9333C40.7855 65.9139 40.7088 65.8898 40.6338 65.8612L38.1178 70.1835L38.5698 74.6339Z" fill="#E6E6F0"/>
<path opacity="0.1" d="M45.7953 63.2863C45.7953 63.2863 46.8258 63.4791 47.5369 65.0278C48.0831 66.2188 49.9248 67.4466 50.7477 67.9516C50.9046 68.0476 51.0407 68.174 51.1479 68.3235C51.2551 68.4729 51.3313 68.6423 51.3719 68.8217C51.5383 69.5578 51.6016 70.9269 50.6977 72.8996C49.2785 75.9912 48.2465 77.3515 48.2465 77.3515C48.2465 77.3515 47.9889 80.4431 48.376 81.3514C48.7632 82.2598 48.376 87.2225 48.376 87.2225C48.376 87.2225 41.604 88.5121 39.3442 87.2225C37.0844 85.9329 37.4083 80.9525 37.4083 80.9525C37.4083 80.9525 35.2795 85.4721 34.5095 85.6016L34.9512 83.0856C34.9512 83.0856 37.4672 80.3754 37.6011 76.8922C37.6011 76.8922 38.3755 73.7314 37.7307 72.8923C37.7307 72.8923 26.8277 73.7962 26.1829 73.0218C26.1829 73.0218 33.3436 72.6994 34.4403 70.9607C34.4403 70.9607 37.6011 68.4448 37.7307 66.768C37.7496 66.4534 37.8483 66.1489 38.0175 65.8831C38.1868 65.6172 38.4209 65.3989 38.6979 65.2487C39.1368 64.9992 39.6403 64.8869 40.1436 64.9263L41.6011 65.0264C41.6011 65.0264 39.0866 69.4694 39.2205 70.0583C39.3545 70.6472 39.091 75.3479 39.091 75.3479C39.091 75.3479 41.9941 69.0896 43.2838 68.38C44.5734 67.6704 46.0529 64.7584 46.0529 64.7584L45.7953 63.2863Z" fill="black"/>
<path opacity="0.1" d="M38.5698 74.6339L38.4402 75.8602L40.4394 75.7307L42.4387 73.9891L44.4379 68.3757L45.7305 66.3779L46.6977 65.1516L46.3105 63.6676C46.3105 63.6676 46.1338 63.8148 45.835 64.0504L45.9233 64.5597C45.9233 64.5597 44.4394 67.4732 43.1497 68.1828C41.8601 68.8924 38.9569 75.1507 38.9569 75.1507C38.9569 75.1507 39.2146 70.4397 39.0865 69.8611C38.9982 69.4665 40.1288 67.2921 40.8634 65.9333C40.7855 65.9139 40.7088 65.8898 40.6338 65.8612L38.1178 70.1835L38.5698 74.6339Z" fill="black"/>
<path opacity="0.1" d="M26.2888 74.5897L26.9572 74.6339V73.0145L26.0739 72.8555C26.3845 73.2677 26.3742 73.9832 26.2888 74.5897Z" fill="black"/>
<path d="M45.7953 63.0861C45.7953 63.0861 46.8258 63.2789 47.5369 64.8277C48.0831 66.0186 49.9248 67.2464 50.7477 67.7514C50.9046 67.8474 51.0407 67.9738 51.1479 68.1232C51.2551 68.2727 51.3313 68.4421 51.3719 68.6215C51.5383 69.3576 51.6016 70.7267 50.6977 72.6994C49.2785 75.791 48.2465 77.1513 48.2465 77.1513C48.2465 77.1513 47.9889 80.2429 48.376 81.1512C48.7632 82.0596 48.376 87.0223 48.376 87.0223C48.376 87.0223 41.604 88.3119 39.3442 87.0223C37.0844 85.7327 37.4083 80.764 37.4083 80.764C37.4083 80.764 35.2795 85.2792 34.5095 85.4073L34.9512 82.8913C34.9512 82.8913 37.4672 80.181 37.6011 76.6979C37.6011 76.6979 38.3755 73.5371 37.7307 72.6979C37.7307 72.6979 35.2147 75.4082 32.3763 75.3479C29.538 75.2875 26.1829 75.6703 26.1829 75.6703C26.1829 75.6703 26.8277 73.6092 26.1829 72.8319C26.1829 72.8319 33.3436 72.5095 34.4403 70.7709C34.4403 70.7709 37.6011 68.2549 37.7307 66.5781C37.7488 66.2624 37.8472 65.9565 38.0168 65.6896C38.1863 65.4226 38.4213 65.2035 38.6994 65.0529C39.1382 64.8034 39.6418 64.6911 40.1451 64.7305L41.6025 64.8306C41.6025 64.8306 39.0866 69.2795 39.2205 69.8596C39.3545 70.4396 39.091 75.1491 39.091 75.1491C39.091 75.1491 41.9941 68.8909 43.2838 68.1813C44.5734 67.4717 46.0574 64.5582 46.0574 64.5582L45.7997 63.0861" fill="#67647E"/>
<path opacity="0.1" d="M47.2144 69.8596C47.2144 69.8596 45.6657 75.0859 44.7633 75.7307C43.8608 76.3755 38.3769 79.6659 36.7634 78.8915C36.7634 78.8915 36.3762 80.8274 36.9563 81.2779C36.9563 81.2779 42.9716 81.0424 43.0202 81.0203C43.0202 81.0203 46.9553 80.5035 47.6002 78.5691C48.245 76.6346 49.0193 73.3428 49.0193 73.3428L47.2144 69.8596Z" fill="black"/>
<path d="M38.9569 75.7631C39.0813 75.7631 39.1822 75.6188 39.1822 75.4407C39.1822 75.2626 39.0813 75.1183 38.9569 75.1183C38.8325 75.1183 38.7317 75.2626 38.7317 75.4407C38.7317 75.6188 38.8325 75.7631 38.9569 75.7631Z" fill="#BA7855"/>
<path d="M38.3122 78.0214C38.4366 78.0214 38.5374 77.8771 38.5374 77.699C38.5374 77.5209 38.4366 77.3766 38.3122 77.3766C38.1878 77.3766 38.0869 77.5209 38.0869 77.699C38.0869 77.8771 38.1878 78.0214 38.3122 78.0214Z" fill="#BA7855"/>
<g opacity="0.1">
<path opacity="0.1" d="M47.9241 86.9561C47.9241 86.9561 48.3113 81.9889 47.9241 81.085C47.5369 80.1811 47.7945 77.0851 47.7945 77.0851C47.7945 77.0851 48.8251 75.7307 50.2457 72.6332C51.1497 70.6605 51.0849 69.2913 50.92 68.5552C50.8792 68.3758 50.8028 68.2063 50.6953 68.0568C50.5878 67.9074 50.4515 67.781 50.2943 67.6852C49.4714 67.1802 47.6297 65.9524 47.085 64.7614C46.6845 63.8884 46.1825 63.4453 45.8189 63.226L45.7938 63.0787C45.7938 63.0787 46.8244 63.2716 47.5354 64.8203C48.0816 66.0113 49.9233 67.2391 50.7448 67.7441C50.902 67.8399 51.0383 67.9663 51.1458 68.1157C51.2533 68.2652 51.3297 68.4346 51.3705 68.6141C51.5368 69.3502 51.6002 70.7194 50.6962 72.6921C49.277 75.7837 48.245 77.144 48.245 77.144C48.245 77.144 47.9874 80.2355 48.3746 81.1439C48.7618 82.0522 48.3746 87.0149 48.3746 87.0149C48.3746 87.0149 43.5355 87.9365 40.6736 87.4433C43.565 87.7864 47.9241 86.9561 47.9241 86.9561Z" fill="black"/>
<path opacity="0.1" d="M39.2205 69.8596C39.3089 70.2571 39.2205 72.595 39.1484 74.0259C38.8363 74.6634 38.6405 75.0844 38.6405 75.0844C38.6405 75.0844 38.8981 70.3734 38.7701 69.7949C38.6479 69.2428 40.9136 65.1943 41.1388 64.7894L41.6084 64.8218C41.6084 64.8218 39.0866 69.2796 39.2205 69.8596Z" fill="black"/>
<path opacity="0.1" d="M31.9244 75.2787C34.7628 75.3435 37.2787 72.6288 37.2787 72.6288C37.3548 72.7342 37.4103 72.8531 37.4421 72.9792C36.706 73.6726 34.645 75.3906 32.3763 75.3347C29.538 75.2699 26.1829 75.6571 26.1829 75.6571C26.1829 75.6571 26.1961 75.6144 26.2167 75.5408C28.1129 75.3476 30.0184 75.2601 31.9244 75.2787Z" fill="black"/>
<path opacity="0.1" d="M36.9563 80.6978C36.9563 80.6978 36.9298 81.1011 36.9445 81.7062C36.2732 83.0312 35.0513 85.316 34.5051 85.4073L34.6008 84.8773C35.5401 83.6981 36.9563 80.6978 36.9563 80.6978Z" fill="black"/>
</g>
<path d="M37.7026 64.4169H22.2815V76.0383H37.7026V64.4169Z" fill="url(#paint9_linear_895_62541)"/>
<path d="M37.3036 64.7158H22.679V75.738H37.3036V64.7158Z" fill="white"/>
<path opacity="0.2" d="M28.9844 65.6698H24.11V68.4257H28.9844V65.6698Z" fill="#00BF6F"/>
<path d="M35.8728 65.6698H30.1504V66.3058H35.8728V65.6698Z" fill="#E6E8EC"/>
<path d="M34.1783 66.7297H30.1504V67.3657H34.1783V66.7297Z" fill="#E6E8EC"/>
<path d="M35.8728 67.7897H30.1504V68.4257H35.8728V67.7897Z" fill="#E6E8EC"/>
<path d="M35.8742 68.8496H24.11V69.4856H35.8742V68.8496Z" fill="#E6E8EC"/>
<path d="M35.8742 69.9097H24.11V70.5456H35.8742V69.9097Z" fill="#E6E8EC"/>
<path d="M35.8742 70.9681H24.11V71.6041H35.8742V70.9681Z" fill="#E6E8EC"/>
<path d="M34.9202 72.0281H24.11V72.6641H34.9202V72.0281Z" fill="#E6E8EC"/>
<path d="M35.8742 73.0881H24.11V73.7241H35.8742V73.0881Z" fill="#E6E8EC"/>
<path d="M35.8742 74.1481H24.11V74.784H35.8742V74.1481Z" fill="#E6E8EC"/>
<path d="M35.1498 80.0529L36.5204 80.3474L37.601 80.5697L37.021 78.9503L36.6176 78.8487L35.989 78.6926C35.989 78.6926 35.0865 74.1804 33.2802 74.5043C31.4738 74.8282 35.1498 80.0529 35.1498 80.0529Z" fill="#714B4F"/>
<path opacity="0.1" d="M36.5205 80.3415L37.601 80.5697L37.021 78.9503L36.6176 78.8488C36.5274 79.3409 36.4948 79.8419 36.5205 80.3415Z" fill="black"/>
<path d="M47.2144 69.7316C47.2144 69.7316 45.6657 74.9578 44.7633 75.6026C43.8608 76.2474 38.3769 79.5378 36.7634 78.7634C36.7634 78.7634 36.3762 80.6993 36.9563 81.1498C36.9563 81.1498 42.9716 80.9143 43.0202 80.8922C43.0202 80.8922 46.9553 80.3754 47.6002 78.441C48.245 76.5065 49.0193 73.2147 49.0193 73.2147L47.2144 69.7316Z" fill="#67647E"/>
<path opacity="0.1" d="M45.2785 61.3445C45.2785 61.3445 45.4095 61.8494 45.5847 62.5841C45.2268 63.26 44.6562 63.7993 43.9612 64.1186C43.2662 64.4379 42.4853 64.5195 41.7393 64.3507C41.8939 63.6882 41.86 63.0257 41.4066 62.5001L45.2785 61.3445Z" fill="black"/>
<path d="M42.5697 64.3124C44.4935 64.3124 46.0529 62.7529 46.0529 60.8292C46.0529 58.9054 44.4935 57.3459 42.5697 57.3459C40.646 57.3459 39.0865 58.9054 39.0865 60.8292C39.0865 62.7529 40.646 64.3124 42.5697 64.3124Z" fill="#714B4F"/>
<path opacity="0.1" d="M39.5443 59.8694C39.2914 59.9396 39.0266 59.9557 38.767 59.9165C38.2238 59.8046 37.8366 59.2525 37.8234 58.6975C37.8288 58.4195 37.8961 58.1461 38.0204 57.8973C38.1446 57.6485 38.3228 57.4306 38.5418 57.2592C38.8362 57.0133 39.1895 56.8382 39.459 56.5643C39.7784 56.239 39.9521 55.8003 40.195 55.4175C40.6101 54.7818 41.2257 54.303 41.944 54.0572C42.4784 53.8761 43.1321 53.8555 43.5428 54.2442C43.7533 54.4429 43.877 54.73 44.1125 54.8978C44.4541 55.1407 44.9163 55.0686 45.333 55.1172C45.7106 55.1752 46.0681 55.3254 46.3739 55.5544C46.6797 55.7835 46.9244 56.0843 47.0863 56.4304C47.4027 57.1314 47.4631 57.9212 47.2571 58.6622C47.1761 58.9787 47.0584 59.2864 46.9715 59.6015C46.7904 60.258 46.7477 60.947 46.5387 61.5948C46.3296 62.2426 45.8983 62.8756 45.2461 63.067C45.2977 62.3408 45.1544 61.614 44.8309 60.9617C44.7774 60.8196 44.6723 60.703 44.5365 60.6349C44.4201 60.6051 44.2981 60.6051 44.1817 60.6349C43.3649 60.756 42.5315 60.5873 41.8262 60.1579C41.5789 60.0107 41.1932 59.494 40.9282 59.4425C40.594 59.3821 39.8977 59.7899 39.5443 59.8694Z" fill="black"/>
<path d="M39.5443 59.7397C39.2914 59.8099 39.0266 59.826 38.767 59.7868C38.2238 59.6749 37.8366 59.1229 37.8234 58.5679C37.8288 58.2898 37.8961 58.0165 38.0204 57.7677C38.1446 57.5189 38.3228 57.3009 38.5418 57.1295C38.8362 56.8837 39.1895 56.7085 39.459 56.4347C39.7784 56.1093 39.9521 55.6706 40.195 55.2879C40.6101 54.6521 41.2257 54.1733 41.944 53.9276C42.4784 53.7465 43.1321 53.7259 43.5428 54.1145C43.7533 54.3133 43.877 54.6003 44.1125 54.7682C44.4541 55.0111 44.9163 54.9389 45.333 54.9875C45.7106 55.0456 46.0681 55.1958 46.3739 55.4248C46.6797 55.6538 46.9244 55.9547 47.0863 56.3007C47.4027 57.0017 47.4631 57.7915 47.2571 58.5325C47.1761 58.8491 47.0584 59.1567 46.9715 59.4718C46.7904 60.1284 46.7477 60.8174 46.5387 61.4651C46.3296 62.1129 45.8983 62.7459 45.2461 62.9373C45.2977 62.2111 45.1544 61.4843 44.8309 60.8321C44.7774 60.69 44.6723 60.5733 44.5365 60.5053C44.4201 60.4754 44.2981 60.4754 44.1817 60.5053C43.3649 60.6264 42.5315 60.4576 41.8262 60.0283C41.5789 59.8811 41.1932 59.3643 40.9282 59.3128C40.594 59.2524 39.8977 59.6617 39.5443 59.7397Z" fill="#503F43"/>
<path d="M12.6858 111.929C12.9556 111.709 13.1522 111.412 13.2496 111.078C13.3232 110.739 13.179 110.334 12.8551 110.211C12.4929 110.072 12.1057 110.323 11.8128 110.577C11.5198 110.832 11.1827 111.121 10.7984 111.066C10.9959 110.887 11.1437 110.66 11.2273 110.407C11.3108 110.154 11.3274 109.883 11.2754 109.622C11.2588 109.513 11.213 109.412 11.1429 109.327C10.9412 109.112 10.5776 109.205 10.3362 109.375C9.57063 109.913 9.35716 110.953 9.35275 111.889C9.27619 111.552 9.34097 111.2 9.33802 110.859C9.33508 110.517 9.24086 110.122 8.94937 109.943C8.76861 109.846 8.56561 109.797 8.36049 109.803C8.016 109.79 7.63323 109.825 7.39768 110.077C7.10325 110.389 7.18127 110.914 7.43596 111.255C7.69065 111.595 8.07636 111.814 8.43263 112.052C8.71816 112.222 8.96172 112.454 9.14517 112.731C9.16674 112.77 9.18449 112.81 9.19817 112.852H11.352C11.8362 112.606 12.2849 112.295 12.6858 111.929Z" fill="#00BF6F"/>
<path d="M140.619 91.4654C140.889 91.2454 141.085 90.9487 141.183 90.6145C141.256 90.2759 141.112 89.871 140.788 89.7473C140.426 89.609 140.039 89.8592 139.746 90.1139C139.453 90.3686 139.116 90.6571 138.731 90.6027C138.929 90.4237 139.077 90.1965 139.16 89.9434C139.244 89.6903 139.26 89.4199 139.208 89.1585C139.192 89.0501 139.146 88.9483 139.076 88.864C138.874 88.6491 138.511 88.7418 138.269 88.9111C137.504 89.45 137.29 90.4893 137.286 91.4256C137.209 91.0885 137.274 90.7366 137.271 90.3951C137.268 90.0536 137.174 89.659 136.882 89.4794C136.702 89.3823 136.499 89.3341 136.293 89.3395C135.949 89.3263 135.566 89.3616 135.331 89.6134C135.036 89.9255 135.114 90.451 135.369 90.7911C135.624 91.1312 136.009 91.3505 136.366 91.589C136.651 91.7588 136.895 91.9908 137.078 92.2677C137.1 92.3061 137.117 92.3465 137.131 92.3884H139.288C139.771 92.1422 140.219 91.8317 140.619 91.4654Z" fill="#00BF6F"/>
<path d="M159.754 47.2115C159.449 46.3193 159.009 45.1887 158.662 44.9222C158.641 44.9051 158.617 44.8908 158.593 44.8795H158.55V43.7769L157.728 43.9079C157.598 43.5096 157.499 43.1015 157.434 42.6874C157.513 42.7667 157.614 42.8207 157.724 42.8427C157.833 42.8647 157.947 42.8537 158.051 42.8111C158.038 42.789 158.026 42.7655 158.014 42.7419L158.051 42.7257C157.921 42.4976 157.853 42.2401 157.852 41.9778C157.859 41.7383 157.897 41.5007 157.965 41.2712C158.113 40.7633 158.361 40.2893 158.5 39.7784C158.588 39.4497 158.63 39.1102 158.624 38.77C158.628 38.1931 158.497 37.6233 158.241 37.1064C158.176 36.9571 158.075 36.8265 157.946 36.7266C157.831 36.6624 157.712 36.6044 157.59 36.5528C157.386 36.4153 157.21 36.2399 157.072 36.0361C156.488 35.3254 155.707 34.8038 154.827 34.5374C154.597 34.4517 154.348 34.4318 154.108 34.48C153.556 34.6272 153.356 35.3118 152.908 35.671C152.514 35.9875 151.972 36.0199 151.476 36.1259C150.98 36.2319 150.481 36.4424 150.142 36.8252C149.909 37.092 149.782 37.4351 149.785 37.7895C149.771 37.955 149.8 38.1213 149.869 38.2723C149.938 38.4234 150.045 38.5542 150.179 38.6522C150.332 38.7524 150.505 38.8175 150.686 38.843C150.867 38.8684 151.051 38.8535 151.226 38.7994C151.089 39.2706 151.052 39.765 151.115 40.2514C151.179 40.7378 151.343 41.2058 151.596 41.6261C151.849 42.0463 152.186 42.4097 152.586 42.6934C152.986 42.9772 153.441 43.1751 153.921 43.2748L154.017 43.4471C154.313 43.9979 154.538 44.5841 154.685 45.1916C153.929 45.62 153.103 46.0219 152.604 46.0602C152.584 46.2553 152.547 46.4483 152.495 46.6373C152.378 47.1112 152.154 47.552 151.84 47.9255C151.161 48.6881 148.109 54.4531 148.109 54.4531C148.109 54.4531 148.013 54.6828 147.856 55.0744C145.961 55.307 142.868 55.6427 142.005 55.4704L138.619 52.2493C138.619 52.2493 137.524 53.0855 137.62 54.1013L137.009 53.5212C137.009 53.5212 133.788 55.9798 138.874 57.5904L146.613 58.4884C145.877 60.7129 145.188 63.3024 145.402 64.7113H145.465C145.613 64.7112 145.761 64.6999 145.907 64.6775L145.894 64.9277L145.149 78.2746C145.149 78.2746 144.979 80.7331 147.269 81.8343C147.269 81.8343 150.066 90.0564 148.965 90.9898C148.965 90.9898 149.096 91.059 149.316 91.1547L147.015 93.1937C147.015 93.1937 145.319 93.6177 144.387 93.5323C144.224 93.5098 144.057 93.5484 143.92 93.6407C143.783 93.733 143.685 93.8726 143.644 94.0328C143.644 94.0505 143.644 94.0681 143.635 94.0858V94.1079C143.635 94.1256 143.635 94.1432 143.635 94.1624C143.635 94.1815 143.635 94.1756 143.635 94.183C143.635 94.1903 143.635 94.2139 143.635 94.2301C143.635 94.2463 143.635 94.2433 143.635 94.2492C143.635 94.2551 143.635 94.286 143.645 94.3037V94.3243C143.65 94.3439 143.657 94.3636 143.665 94.3832L143.672 94.4009C143.679 94.42 143.688 94.4391 143.699 94.4583V94.4715C143.709 94.4907 143.721 94.5083 143.732 94.5275L143.743 94.5437C143.756 94.5633 143.772 94.5829 143.788 94.6025L143.802 94.6173C143.819 94.6379 143.838 94.657 143.858 94.6762L143.866 94.6835L143.93 94.738L143.943 94.7483C143.966 94.7674 143.993 94.7851 144.019 94.8028L144.037 94.8145C144.065 94.8322 144.095 94.8499 144.125 94.8661H144.139L144.234 94.9132H144.248L144.36 94.9573L144.383 94.9662L144.505 95.0059H144.526L144.66 95.0413H144.67L144.817 95.0707H144.847L145.006 95.0943H145.037L145.216 95.1119C145.565 95.1384 146.035 95.1487 146.578 95.1458C146.578 95.1458 146.578 95.159 146.578 95.1664C146.578 95.1738 146.578 95.1973 146.578 95.2135V95.2326C146.578 95.2503 146.578 95.2694 146.588 95.2871V95.3077C146.593 95.3274 146.6 95.347 146.608 95.3666L146.615 95.3843C146.622 95.4034 146.631 95.4226 146.641 95.4417V95.4549C146.652 95.4741 146.663 95.4917 146.675 95.5109L146.686 95.5271C146.699 95.5467 146.715 95.5663 146.731 95.586L146.744 95.6007C146.762 95.6213 146.781 95.6404 146.8 95.6596L146.809 95.6669L146.873 95.7214L146.886 95.7317C146.909 95.7509 146.936 95.7685 146.962 95.7862L146.981 95.798C147.009 95.8156 147.039 95.8333 147.07 95.8495H147.083L147.179 95.8966H147.192L147.304 95.9408L147.327 95.9496L147.45 95.9893H147.47L147.604 96.0247H147.615L147.762 96.0541H147.791L147.95 96.0777H147.981L148.161 96.0953C150.369 96.2646 157.4 95.7567 157.4 95.7567V95.7376V95.7126C157.469 95.3843 157.808 93.4763 156.607 92.066C156.642 92.0292 156.677 91.9894 156.71 91.9482C156.71 91.9482 155.778 90.3376 156.286 89.8283C156.794 89.3189 153.743 80.5034 153.743 80.5034C153.743 80.5034 152.133 77.961 153.065 75.0784C153.996 72.1959 152.979 69.0601 152.979 69.0601C152.979 69.0601 155.202 68.3991 155.248 65.6623C155.248 65.5799 155.248 65.4945 155.248 65.4077C155.297 65.4146 155.346 65.4176 155.395 65.4165C155.426 65.4187 155.458 65.4187 155.489 65.4165C155.489 65.4165 155.065 63.8913 155.575 62.7886C156.084 61.686 157.185 62.7033 158.202 58.2116C158.939 54.961 159.586 51.2217 159.888 49.4021C160.019 48.6717 159.973 47.9204 159.754 47.2115ZM140.408 56.7468L139.635 56.0107C139.891 56.1167 140.176 56.2212 140.494 56.3213L143.408 56.6599C142.107 56.7807 140.898 56.8454 140.408 56.7483V56.7468Z" fill="url(#paint10_linear_895_62541)"/>
<path d="M147.787 56.3155C147.787 56.3155 141.791 57.1487 140.541 56.9044L137.209 53.7391C137.209 53.7391 134.044 56.155 139.042 57.7361L148.37 58.8182L147.787 56.3155Z" fill="#FDC2CC"/>
<path opacity="0.05" d="M147.787 56.3155C147.787 56.3155 141.791 57.1487 140.541 56.9044L137.209 53.7391C137.209 53.7391 134.044 56.155 139.042 57.7361L148.37 58.8182L147.787 56.3155Z" fill="black"/>
<path d="M149.952 90.1287L147.037 92.7109C147.037 92.7109 145.372 93.1275 144.455 93.0436C143.538 92.9597 143.123 94.4598 145.289 94.6262C147.454 94.7926 154.366 94.2935 154.366 94.2935C154.366 94.2935 155.033 91.6288 153.034 90.1287H149.952Z" fill="#47465A"/>
<path opacity="0.05" d="M149.952 90.1287L147.037 92.7109C147.037 92.7109 145.372 93.1275 144.455 93.0436C143.538 92.9597 143.123 94.4598 145.289 94.6262C147.454 94.7926 154.366 94.2935 154.366 94.2935C154.366 94.2935 155.033 91.6288 153.034 90.1287H149.952Z" fill="black"/>
<path opacity="0.3" d="M154.47 93.1393C154.466 93.4428 154.431 93.7451 154.366 94.0417C154.366 94.0417 147.447 94.5408 145.288 94.3744C144.248 94.2949 143.805 93.9063 143.725 93.5338C143.631 93.9607 144.008 94.526 145.288 94.6247C147.454 94.791 154.366 94.292 154.366 94.292C154.447 93.9133 154.482 93.5263 154.47 93.1393Z" fill="white"/>
<path d="M153.366 42.9069C153.366 42.9069 155.199 45.4891 154.532 47.238C153.865 48.987 158.026 45.4052 158.026 45.4052C158.026 45.4052 156.693 43.0732 157.359 40.575L153.366 42.9069Z" fill="#FDC2CC"/>
<path d="M152.873 91.1268L149.958 93.7091C149.958 93.7091 148.293 94.1257 147.376 94.0418C146.459 93.9579 146.044 95.458 148.209 95.6244C150.375 95.7907 157.287 95.2917 157.287 95.2917C157.287 95.2917 157.954 92.627 155.954 91.1268H152.873Z" fill="#47465A"/>
<path d="M153.701 90.5438C153.266 91.0797 152.654 91.2799 152.013 91.3167C150.557 91.3859 148.954 90.5438 148.954 90.5438C150.036 89.6281 147.289 81.5488 147.289 81.5488C145.041 80.4667 145.207 78.0509 145.207 78.0509L145.944 64.9381L146.128 61.6449L148.46 60.2286L150.298 61.639L152.041 62.9772C152.155 63.4027 152.228 63.8379 152.259 64.2771C152.461 67.3378 150.042 68.0577 150.042 68.0577C150.042 68.0577 151.042 71.139 150.126 73.97C149.21 76.801 150.793 79.2993 150.793 79.2993C150.793 79.2993 153.792 87.9601 153.296 88.4607C152.8 88.9612 153.701 90.5438 153.701 90.5438Z" fill="#565171"/>
<path opacity="0.05" d="M153.701 90.5438C153.266 91.0797 152.654 91.2799 152.013 91.3167C150.557 91.3859 148.954 90.5438 148.954 90.5438C150.036 89.6281 147.289 81.5488 147.289 81.5488C145.041 80.4667 145.207 78.0509 145.207 78.0509L145.944 64.9381L146.128 61.6449L148.46 60.2286L150.298 61.639L152.041 62.9772C152.155 63.4027 152.228 63.8379 152.259 64.2771C152.461 67.3378 150.042 68.0577 150.042 68.0577C150.042 68.0577 151.042 71.139 150.126 73.97C149.21 76.801 150.793 79.2993 150.793 79.2993C150.793 79.2993 153.792 87.9601 153.296 88.4607C152.8 88.9612 153.701 90.5438 153.701 90.5438Z" fill="black"/>
<path d="M156.615 91.5434C155.199 93.2924 151.869 91.5434 151.869 91.5434C151.937 91.4818 151.988 91.4037 152.016 91.3167C152.627 89.6561 149.955 81.7166 149.955 81.7166C147.707 80.6345 147.453 78.0523 147.453 78.0523L146.864 64.7069L146.787 62.9786L150.291 61.6404L151.367 61.2296L154.949 63.9782C155.104 64.5456 155.181 65.1315 155.179 65.7198C155.133 68.4095 152.95 69.0587 152.95 69.0587C152.95 69.0587 153.949 72.14 153.034 74.971C152.118 77.802 153.7 80.3003 153.7 80.3003C153.7 80.3003 156.699 88.9612 156.203 89.4617C155.707 89.9623 156.615 91.5434 156.615 91.5434Z" fill="#565171"/>
<path opacity="0.1" d="M155.179 65.7183C154.459 65.6152 153.001 64.7481 152.252 64.277C151.966 64.0974 151.784 63.9826 151.784 63.9826C151.784 63.9826 151.034 61.9009 149.035 63.4835C148.385 64.0114 147.651 64.4264 146.864 64.7113C146.563 64.8178 146.252 64.8957 145.936 64.9439L146.12 61.6506L148.452 60.2344L150.291 61.6447L151.367 61.234L154.949 63.9826C155.104 64.5481 155.181 65.132 155.179 65.7183Z" fill="black"/>
<path d="M159.686 49.7422C159.392 51.5294 158.753 55.2025 158.03 58.3972C157.031 62.8137 155.949 61.8112 155.448 62.8947C154.947 63.9782 155.364 65.4769 155.364 65.4769C154.531 65.5608 151.782 63.728 151.782 63.728C151.782 63.728 151.033 61.6463 149.034 63.2289C147.034 64.8115 145.452 64.7276 145.452 64.7276C145.035 61.979 148.116 54.6505 148.116 54.6505C148.116 54.6505 151.115 48.987 151.781 48.2376C152.089 47.8705 152.31 47.4373 152.424 46.9715C152.475 46.7859 152.511 46.5963 152.53 46.4048C153.612 46.3208 156.278 44.4909 156.278 44.4909L158.36 44.1582V45.2403C158.384 45.2511 158.407 45.265 158.428 45.2815C158.771 45.5435 159.202 46.655 159.501 47.531C159.744 48.2416 159.807 49.0011 159.686 49.7422Z" fill="#E10600"/>
<path opacity="0.1" d="M158.026 46.3223C158.026 46.3223 155.86 44.5734 152.613 50.2369C149.365 55.9004 148.616 54.9832 148.616 54.9832C148.616 54.9832 149.283 57.4859 148.948 57.982C148.948 57.982 151.196 57.8157 152.03 57.982C152.863 58.1484 158.026 51.6561 158.026 51.6561C158.026 51.6561 160.696 47.9874 158.026 46.3223Z" fill="black"/>
<path opacity="0.1" d="M157.948 45.9881C157.948 45.9881 155.782 44.2392 152.535 49.9027C149.287 55.5662 148.538 54.649 148.538 54.649C148.538 54.649 151.12 57.48 151.952 57.6478C152.783 57.8157 157.948 51.3174 157.948 51.3174C157.948 51.3174 160.613 47.6546 157.948 45.9881Z" fill="black"/>
<path opacity="0.1" d="M148.876 57.4402C148.91 56.8233 148.677 55.7383 148.543 55.176C149.05 55.1097 149.369 55.0656 149.369 55.0656L149.958 57.5683L148.876 57.4402Z" fill="black"/>
<path opacity="0.1" d="M157.447 40.7427L153.45 43.0746C153.619 43.3205 153.774 43.5751 153.916 43.8372C154.146 43.8842 154.381 43.9078 154.616 43.9079C155.684 43.9079 156.181 42.7875 156.825 42.0338C156.779 41.4287 157.269 41.4125 157.447 40.7427Z" fill="black"/>
<path d="M154.534 43.7401C156.466 43.7401 158.032 42.174 158.032 40.2422C158.032 38.3103 156.466 36.7443 154.534 36.7443C152.602 36.7443 151.036 38.3103 151.036 40.2422C151.036 42.174 152.602 43.7401 154.534 43.7401Z" fill="#FDC2CC"/>
<path d="M149.128 44.2289H120.958V65.4578H149.128V44.2289Z" fill="url(#paint11_linear_895_62541)"/>
<path d="M148.496 44.7043H121.589V64.9822H148.496V44.7043Z" fill="white"/>
<path opacity="0.2" d="M133.19 46.4592H124.221V51.528H133.19V46.4592Z" fill="#00BF6F"/>
<path d="M145.864 46.4592H135.335V47.6296H145.864V46.4592Z" fill="#E6E8EC"/>
<path d="M142.744 48.4099H135.335V49.5803H142.744V48.4099Z" fill="#E6E8EC"/>
<path d="M145.864 50.359H135.335V51.5294H145.864V50.359Z" fill="#E6E8EC"/>
<path d="M145.864 52.3082H124.221V53.4786H145.864V52.3082Z" fill="#E6E8EC"/>
<path d="M145.864 54.2588H124.221V55.4292H145.864V54.2588Z" fill="#E6E8EC"/>
<path d="M145.864 56.208H124.221V57.3784H145.864V56.208Z" fill="#E6E8EC"/>
<path d="M144.109 58.1587H124.221V59.3291H144.109V58.1587Z" fill="#E6E8EC"/>
<path d="M145.864 60.1078H124.221V61.2782H145.864V60.1078Z" fill="#E6E8EC"/>
<path d="M145.864 62.057H124.221V63.2274H145.864V62.057Z" fill="#E6E8EC"/>
<path opacity="0.1" d="M150.108 37.4126C150.461 37.0507 150.92 36.81 151.419 36.7251C151.905 36.6206 152.437 36.5882 152.826 36.2835C153.268 35.9316 153.462 35.2632 154.004 35.1145C154.24 35.0672 154.484 35.0865 154.709 35.1705C155.575 35.4316 156.343 35.944 156.917 36.6427C157.053 36.8429 157.225 37.0153 157.425 37.1506C157.545 37.2013 157.662 37.2583 157.776 37.3213C157.9 37.4198 157.999 37.5478 158.061 37.6938C158.452 38.4823 158.542 39.3862 158.314 40.2363C158.179 40.7383 157.935 41.2035 157.79 41.7084C157.646 42.2134 157.609 42.7743 157.874 43.2204C157.618 43.3514 157.294 43.1865 157.138 42.948C156.982 42.7095 156.929 42.4151 156.844 42.1398C156.677 41.5983 156.365 41.1129 155.941 40.7368C155.679 40.5042 155.205 40.3481 155.027 40.6485C154.956 40.7648 154.961 40.912 154.9 41.0327C154.781 41.2683 154.437 41.3154 154.208 41.1799C153.989 41.0281 153.834 40.7989 153.776 40.5381C153.433 39.378 152.848 38.6478 151.607 39.1439C151.145 39.3294 150.6 39.4545 150.156 39.1365C149.575 38.717 149.689 37.8867 150.108 37.4126Z" fill="black"/>
<path d="M150.108 37.3288C150.461 36.9668 150.92 36.7261 151.419 36.6413C151.905 36.5367 152.437 36.5043 152.826 36.1996C153.268 35.8477 153.462 35.1794 154.004 35.0307C154.24 34.9833 154.484 35.0027 154.709 35.0866C155.575 35.3478 156.343 35.8602 156.917 36.5588C157.053 36.759 157.225 36.9314 157.425 37.0667C157.545 37.1174 157.662 37.1744 157.776 37.2375C157.9 37.3359 157.999 37.464 158.061 37.61C158.452 38.3985 158.542 39.3023 158.314 40.1524C158.179 40.6544 157.935 41.1196 157.79 41.6246C157.646 42.1296 157.609 42.6905 157.874 43.1365C157.618 43.2676 157.294 43.1027 157.138 42.8642C156.982 42.6257 156.929 42.3313 156.844 42.056C156.677 41.5144 156.365 41.0291 155.941 40.653C155.679 40.4204 155.205 40.2643 155.027 40.5646C154.956 40.6809 154.961 40.8282 154.9 40.9489C154.781 41.1844 154.437 41.2315 154.208 41.0961C153.989 40.9443 153.834 40.715 153.776 40.4542C153.433 39.2941 152.848 38.5639 151.607 39.0601C151.145 39.2456 150.6 39.3707 150.156 39.0527C149.575 38.6331 149.689 37.8043 150.108 37.3288Z" fill="#B96B6B"/>
<path opacity="0.05" d="M158.432 45.2815H156.739C156.739 45.2815 153.408 46.9465 153.325 46.8641C153.269 46.8081 152.754 46.9038 152.427 46.973C152.478 46.7874 152.514 46.5978 152.533 46.4062C153.615 46.3223 156.281 44.4924 156.281 44.4924L158.363 44.1597V45.2417C158.388 45.252 158.411 45.2654 158.432 45.2815Z" fill="black"/>
<path opacity="0.3" d="M157.385 94.1389C157.38 94.4425 157.345 94.7448 157.281 95.0414C157.281 95.0414 150.362 95.5405 148.203 95.3741C147.163 95.2946 146.719 94.9059 146.64 94.5335C146.546 94.9604 146.923 95.5257 148.203 95.6244C150.369 95.7907 157.281 95.2917 157.281 95.2917C157.362 94.913 157.397 94.526 157.385 94.1389Z" fill="white"/>
<g opacity="0.05">
<path opacity="0.05" d="M148.245 63.1391C147.121 64.0224 146.128 64.3919 145.475 64.5391C145.475 64.6009 145.487 64.6628 145.496 64.7217C145.496 64.7217 147.079 64.8056 149.078 63.223C149.388 62.9576 149.754 62.7663 150.148 62.6635C149.712 62.4619 149.09 62.4751 148.245 63.1391Z" fill="black"/>
<path opacity="0.05" d="M159.548 47.5339C159.254 46.6506 158.812 45.5464 158.475 45.2844C158.454 45.2679 158.431 45.254 158.407 45.2432C158.407 45.2432 157.718 45.2667 157.74 45.2844C158.083 45.5464 158.416 46.574 158.715 47.45C158.956 48.16 159.018 48.9185 158.896 49.6583C158.602 51.4455 157.963 55.1186 157.24 58.3132C156.24 62.7298 155.158 61.7272 154.658 62.8108C154.248 63.6941 154.453 64.863 154.541 65.2561C154.897 65.4033 155.207 65.496 155.407 65.4754C155.407 65.4754 154.99 63.9767 155.491 62.8932C155.991 61.8097 157.073 62.8093 158.073 58.3957C158.796 55.2025 159.432 51.5279 159.729 49.7407C159.851 49.0014 159.789 48.2435 159.548 47.5339Z" fill="black"/>
</g>
<path d="M149.952 57.5654L148.876 57.4402L140.632 56.4818C135.635 54.8992 138.799 52.4849 138.799 52.4849L142.131 55.6501C143.092 55.8429 146.861 55.3939 148.549 55.1775C149.056 55.1112 149.375 55.0671 149.375 55.0671L149.952 57.5654Z" fill="#FDC2CC"/>
<path d="M158.026 46.156C158.026 46.156 155.86 44.407 152.613 50.0705C149.365 55.734 148.616 54.8168 148.616 54.8168C148.616 54.8168 149.283 57.3195 148.948 57.8157C148.948 57.8157 151.196 57.6493 152.03 57.8157C152.863 57.982 158.026 51.4853 158.026 51.4853C158.026 51.4853 160.696 47.821 158.026 46.156Z" fill="#E10600"/>
</g>
<defs>
<linearGradient id="paint0_linear_895_62541" x1="78.3936" y1="94.3213" x2="-6.65373" y2="13.7388" gradientUnits="userSpaceOnUse">
<stop stop-color="#FFCD00"/>
<stop offset="1" stop-color="#00BF6F"/>
</linearGradient>
<linearGradient id="paint1_linear_895_62541" x1="40.4533" y1="69.9208" x2="-2.42102" y2="28.1392" gradientUnits="userSpaceOnUse">
<stop stop-color="#FFCD00"/>
<stop offset="1" stop-color="#00BF6F"/>
</linearGradient>
<linearGradient id="paint2_linear_895_62541" x1="159.433" y1="116.406" x2="140.172" y2="45.1432" gradientUnits="userSpaceOnUse">
<stop stop-color="#FFCD00"/>
<stop offset="1" stop-color="#00BF6F"/>
</linearGradient>
<linearGradient id="paint3_linear_895_62541" x1="92.8934" y1="87.9248" x2="92.8934" y2="16.6151" gradientUnits="userSpaceOnUse">
<stop stop-color="#808080" stop-opacity="0.25"/>
<stop offset="0.54" stop-color="#808080" stop-opacity="0.12"/>
<stop offset="1" stop-color="#808080" stop-opacity="0.1"/>
</linearGradient>
<linearGradient id="paint4_linear_895_62541" x1="17592.6" y1="49045" x2="17592.6" y2="20237.6" gradientUnits="userSpaceOnUse">
<stop stop-color="#808080" stop-opacity="0.25"/>
<stop offset="0.54" stop-color="#808080" stop-opacity="0.12"/>
<stop offset="1" stop-color="#808080" stop-opacity="0.1"/>
</linearGradient>
<linearGradient id="paint5_linear_895_62541" x1="5407.37" y1="40172.4" x2="5407.37" y2="22581.5" gradientUnits="userSpaceOnUse">
<stop stop-color="#808080" stop-opacity="0.25"/>
<stop offset="0.54" stop-color="#808080" stop-opacity="0.12"/>
<stop offset="1" stop-color="#808080" stop-opacity="0.1"/>
</linearGradient>
<linearGradient id="paint6_linear_895_62541" x1="18820.5" y1="22783.5" x2="18820.5" y2="17293.9" gradientUnits="userSpaceOnUse">
<stop stop-color="#808080" stop-opacity="0.25"/>
<stop offset="0.54" stop-color="#808080" stop-opacity="0.12"/>
<stop offset="1" stop-color="#808080" stop-opacity="0.1"/>
</linearGradient>
<linearGradient id="paint7_linear_895_62541" x1="5176.5" y1="6398.97" x2="6393.21" y2="6398.97" gradientUnits="userSpaceOnUse">
<stop stop-color="#808080" stop-opacity="0.25"/>
<stop offset="0.54" stop-color="#808080" stop-opacity="0.12"/>
<stop offset="1" stop-color="#808080" stop-opacity="0.1"/>
</linearGradient>
<linearGradient id="paint8_linear_895_62541" x1="-16519.4" y1="53389.7" x2="-16519.4" y2="26296" gradientUnits="userSpaceOnUse">
<stop stop-color="#808080" stop-opacity="0.25"/>
<stop offset="0.54" stop-color="#808080" stop-opacity="0.12"/>
<stop offset="1" stop-color="#808080" stop-opacity="0.1"/>
</linearGradient>
<linearGradient id="paint9_linear_895_62541" x1="3163.88" y1="6066.89" x2="3163.88" y2="5149.49" gradientUnits="userSpaceOnUse">
<stop stop-color="#808080" stop-opacity="0.25"/>
<stop offset="0.54" stop-color="#808080" stop-opacity="0.12"/>
<stop offset="1" stop-color="#808080" stop-opacity="0.1"/>
</linearGradient>
<linearGradient id="paint10_linear_895_62541" x1="25578.1" y1="43736.5" x2="25578.1" y2="17867.9" gradientUnits="userSpaceOnUse">
<stop stop-color="#808080" stop-opacity="0.25"/>
<stop offset="0.54" stop-color="#808080" stop-opacity="0.12"/>
<stop offset="1" stop-color="#808080" stop-opacity="0.1"/>
</linearGradient>
<linearGradient id="paint11_linear_895_62541" x1="25961.5" y1="9483.25" x2="25961.5" y2="6422.04" gradientUnits="userSpaceOnUse">
<stop stop-color="#808080" stop-opacity="0.25"/>
<stop offset="0.54" stop-color="#808080" stop-opacity="0.12"/>
<stop offset="1" stop-color="#808080" stop-opacity="0.1"/>
</linearGradient>
<clipPath id="clip0_895_62541">
<rect width="160" height="116.207" fill="white"/>
</clipPath>
</defs>
</svg>
