<svg width="160" height="148" viewBox="0 0 160 148" fill="none" xmlns="http://www.w3.org/2000/svg">
<g clip-path="url(#clip0_895_62325)">
<path d="M67.6882 38.3571H65.4913C64.6878 38.3571 64.0364 39.0085 64.0364 39.812V68.8177C64.0364 69.6212 64.6878 70.2726 65.4913 70.2726H67.6882C68.4918 70.2726 69.1432 69.6212 69.1432 68.8177V39.812C69.1432 39.0085 68.4918 38.3571 67.6882 38.3571Z" fill="#FFCD00"/>
<path d="M132.937 38.3571H130.741C129.937 38.3571 129.286 39.0085 129.286 39.812V67.541C129.286 68.3445 129.937 68.9959 130.741 68.9959H132.937C133.741 68.9959 134.392 68.3445 134.392 67.541V39.812C134.392 39.0085 133.741 38.3571 132.937 38.3571Z" fill="#FFCD00"/>
<path d="M140.77 35.2787H57.8001C56.5954 35.2787 55.6187 36.2553 55.6187 37.4601V42.7839C55.6187 43.9887 56.5954 44.9653 57.8001 44.9653H140.77C141.975 44.9653 142.951 43.9887 142.951 42.7839V37.4601C142.951 36.2553 141.975 35.2787 140.77 35.2787Z" fill="url(#paint0_linear_895_62325)"/>
<path d="M140.877 45.3528H57.9067C56.7019 45.3528 55.7253 46.3294 55.7253 47.5342V52.858C55.7253 54.0628 56.7019 55.0394 57.9067 55.0394H140.877C142.081 55.0394 143.058 54.0628 143.058 52.858V47.5342C143.058 46.3294 142.081 45.3528 140.877 45.3528Z" fill="url(#paint1_linear_895_62325)"/>
<path d="M140.985 55.4269H58.0152C56.8104 55.4269 55.8337 56.4035 55.8337 57.6083V62.9321C55.8337 64.1369 56.8104 65.1135 58.0152 65.1135H140.985C142.19 65.1135 143.167 64.1369 143.167 62.9321V57.6083C143.167 56.4035 142.19 55.4269 140.985 55.4269Z" fill="url(#paint2_linear_895_62325)"/>
<path d="M139.869 35.8037H58.6991C57.4943 35.8037 56.5176 36.7804 56.5176 37.9851V41.2825C56.5176 42.4872 57.4943 43.4639 58.6991 43.4639H139.869C141.074 43.4639 142.051 42.4872 142.051 41.2825V37.9851C142.051 36.7804 141.074 35.8037 139.869 35.8037Z" fill="#E0E0E0"/>
<path d="M139.869 46.0173H58.6991C57.4943 46.0173 56.5176 46.994 56.5176 48.1988V51.4961C56.5176 52.7009 57.4943 53.6775 58.6991 53.6775H139.869C141.074 53.6775 142.051 52.7009 142.051 51.4961V48.1988C142.051 46.994 141.074 46.0173 139.869 46.0173Z" fill="#E0E0E0"/>
<path d="M139.869 56.229H58.6991C57.4943 56.229 56.5176 57.2057 56.5176 58.4104V61.7078C56.5176 62.9125 57.4943 63.8892 58.6991 63.8892H139.869C141.074 63.8892 142.051 62.9125 142.051 61.7078V58.4104C142.051 57.2057 141.074 56.229 139.869 56.229Z" fill="#E0E0E0"/>
<path d="M139.869 65.1659H58.6991C57.4943 65.1659 56.5176 66.1426 56.5176 67.3473V70.6447C56.5176 71.8494 57.4943 72.8261 58.6991 72.8261H139.869C141.074 72.8261 142.051 71.8494 142.051 70.6447V67.3473C142.051 66.1426 141.074 65.1659 139.869 65.1659Z" fill="#FFCD00"/>
<path d="M66.5898 40.9104C67.2949 40.9104 67.8665 40.3388 67.8665 39.6337C67.8665 38.9286 67.2949 38.3571 66.5898 38.3571C65.8847 38.3571 65.3131 38.9286 65.3131 39.6337C65.3131 40.3388 65.8847 40.9104 66.5898 40.9104Z" fill="#FFCD00"/>
<path d="M66.5898 51.1241C67.2949 51.1241 67.8665 50.5525 67.8665 49.8474C67.8665 49.1423 67.2949 48.5707 66.5898 48.5707C65.8847 48.5707 65.3131 49.1423 65.3131 49.8474C65.3131 50.5525 65.8847 51.1241 66.5898 51.1241Z" fill="#FFCD00"/>
<path d="M66.5898 61.3357C67.2949 61.3357 67.8665 60.7641 67.8665 60.059C67.8665 59.3539 67.2949 58.7823 66.5898 58.7823C65.8847 58.7823 65.3131 59.3539 65.3131 60.059C65.3131 60.7641 65.8847 61.3357 66.5898 61.3357Z" fill="#FFCD00"/>
<path d="M131.839 61.3357C132.544 61.3357 133.116 60.7641 133.116 60.059C133.116 59.3539 132.544 58.7823 131.839 58.7823C131.134 58.7823 130.562 59.3539 130.562 60.059C130.562 60.7641 131.134 61.3357 131.839 61.3357Z" fill="#FFCD00"/>
<path d="M131.839 51.1241C132.544 51.1241 133.116 50.5525 133.116 49.8474C133.116 49.1423 132.544 48.5707 131.839 48.5707C131.134 48.5707 130.562 49.1423 130.562 49.8474C130.562 50.5525 131.134 51.1241 131.839 51.1241Z" fill="#FFCD00"/>
<path d="M131.839 40.9104C132.544 40.9104 133.116 40.3388 133.116 39.6337C133.116 38.9286 132.544 38.3571 131.839 38.3571C131.134 38.3571 130.562 38.9286 130.562 39.6337C130.562 40.3388 131.134 40.9104 131.839 40.9104Z" fill="#FFCD00"/>
<path d="M66.4755 71.5493H64.0538C63.6526 71.5493 63.3273 71.8746 63.3273 72.2758V91.2481C63.3273 91.6493 63.6526 91.9746 64.0538 91.9746H66.4755C66.8767 91.9746 67.202 91.6493 67.202 91.2481V72.2758C67.202 71.8746 66.8767 71.5493 66.4755 71.5493Z" fill="url(#paint3_linear_895_62325)"/>
<path d="M134.282 71.743H131.86C131.459 71.743 131.134 72.0683 131.134 72.4695V91.4418C131.134 91.843 131.459 92.1683 131.86 92.1683H134.282C134.683 92.1683 135.008 91.843 135.008 91.4418V72.4695C135.008 72.0683 134.683 71.743 134.282 71.743Z" fill="url(#paint4_linear_895_62325)"/>
<path d="M65.8633 71.5493H64.7629C64.3616 71.5493 64.0364 71.8746 64.0364 72.2758V91.2481C64.0364 91.6493 64.3616 91.9746 64.7629 91.9746H65.8633C66.2645 91.9746 66.5898 91.6493 66.5898 91.2481V72.2758C66.5898 71.8746 66.2645 71.5493 65.8633 71.5493Z" fill="#FFCD00"/>
<path d="M133.666 71.5493H132.565C132.164 71.5493 131.839 71.8746 131.839 72.2758V91.2481C131.839 91.6493 132.164 91.9746 132.565 91.9746H133.666C134.067 91.9746 134.392 91.6493 134.392 91.2481V72.2758C134.392 71.8746 134.067 71.5493 133.666 71.5493Z" fill="#FFCD00"/>
<path d="M42.6348 36.1234C41.9051 35.6535 41.0379 35.4446 40.1744 35.5305L41.856 34.403L40.1317 34.2848L40.9435 33.5099C39.3742 34.2558 37.5861 33.6475 36.0556 32.7912C34.5251 31.9349 33.0566 30.8209 31.3866 30.5129C29.0522 30.0828 26.6208 31.3827 25.102 33.5351C23.5831 35.6875 22.9244 38.5722 23.0038 41.3832C23.0426 42.7645 23.2673 44.1923 23.9531 45.3082C24.4665 46.1432 25.2841 46.7574 26.1326 46.8581C27.3338 48.7644 29.1703 49.983 31.2297 49.983C34.8506 49.983 37.7837 46.2169 37.7837 41.5711C37.7881 40.3727 37.5856 39.1825 37.1851 38.0529C39.0817 37.7778 41.0074 37.4737 42.6348 36.1234Z" fill="url(#paint5_linear_895_62325)"/>
<path d="M32.1674 32.7389L54.7799 81.2205C54.7799 81.2205 60.4195 83.4194 63.0019 76.8557" stroke="#2D5676" stroke-width="1.71" stroke-miterlimit="10" stroke-linecap="round"/>
<path d="M50.1671 72.5181C51.5441 72.5181 52.6604 71.5918 52.6604 70.4491C52.6604 69.3064 51.5441 68.38 50.1671 68.38C48.7901 68.38 47.6738 69.3064 47.6738 70.4491C47.6738 71.5918 48.7901 72.5181 50.1671 72.5181Z" fill="#CA7070"/>
<path d="M25.7548 1.6913C7.86362 7.52653 -3.27988 26.7991 0.864061 44.7368C45.1359 47.449 65.6502 23.6025 65.6502 23.6025C61.5082 5.65895 43.6461 -4.14974 25.7548 1.6913Z" fill="url(#paint6_linear_895_62325)"/>
<path d="M26.1268 2.7781C9.17714 8.30724 -1.38323 26.5666 2.54567 43.5608L63.9202 23.5385C60.001 6.53458 43.0765 -2.75103 26.1268 2.7781Z" fill="#00BF6F"/>
<path d="M2.54565 43.5608C2.54565 43.5608 24.5924 27.7503 63.9202 23.5386C63.9202 23.5386 44.4888 46.1336 2.54565 43.5608Z" fill="#00BF6F"/>
<path opacity="0.2" d="M2.54565 43.5608C2.54565 43.5608 24.5924 27.7503 63.9202 23.5386C63.9202 23.5386 44.4888 46.1336 2.54565 43.5608Z" fill="black"/>
<path d="M39.8237 67.9711C39.8237 67.9711 38.4676 63.7497 36.9352 59.8111C36.9352 58.5906 36.8151 57.5367 36.5477 56.7463C34.6859 51.2752 31.4719 50.7057 31.4719 50.7057L26.1307 49.4755C26.1307 49.4755 13.2765 51.8681 16.9981 82.629L15.4754 100.76H35.7011L32.9888 80.2247C32.9888 80.2247 33.8839 76.4935 35.0366 70.9256C35.6488 73.1748 36.0866 73.4654 36.5245 73.5061C37.9968 73.6398 49.0415 72.9055 49.0415 72.9055V67.9711H39.8237Z" fill="url(#paint7_linear_895_62325)"/>
<path d="M32.2314 55.3921C32.2314 55.3921 35.3311 72.9888 36.7802 73.1187C38.2293 73.2485 49.0474 72.5278 49.0474 72.5278V68.2463H39.2484C39.2484 68.2463 35.7399 55.7137 33.6301 54.7276C31.5204 53.7415 32.2314 55.3921 32.2314 55.3921Z" fill="#263238"/>
<path d="M24.6447 132.564H24.8172L24.6234 96.723H17.9939V140.476H26.7816C27.512 139.712 25.9602 137.477 25.1853 135.621C24.7817 134.654 24.5971 133.61 24.6447 132.564Z" fill="url(#paint8_linear_895_62325)"/>
<path d="M34.0311 135.621C33.8392 135.157 33.6963 134.675 33.6049 134.181V96.7211H27.3628V140.476H35.6352C36.3559 139.712 34.8041 137.477 34.0311 135.621Z" fill="url(#paint9_linear_895_62325)"/>
<path d="M24.081 96.7211H18.6332V138.056H24.081V96.7211Z" fill="#00695C"/>
<path d="M33.1593 96.7211H27.7115V138.056H33.1593V96.7211Z" fill="#00695C"/>
<path d="M29.0735 54.2083C30.4462 54.2083 31.5591 51.8274 31.5591 48.8904C31.5591 45.9533 30.4462 43.5724 29.0735 43.5724C27.7007 43.5724 26.5879 45.9533 26.5879 48.8904C26.5879 51.8274 27.7007 54.2083 29.0735 54.2083Z" fill="#A86576"/>
<path d="M31.3111 49.4833C34.7446 49.4833 37.528 45.9115 37.528 41.5054C37.528 37.0993 34.7446 33.5275 31.3111 33.5275C27.8776 33.5275 25.0942 37.0993 25.0942 41.5054C25.0942 45.9115 27.8776 49.4833 31.3111 49.4833Z" fill="#CA7070"/>
<path d="M26.5879 49.4832C26.5879 49.4832 13.9953 51.8293 17.6374 82.0961L16.1457 99.937H35.209L32.5549 79.7326C32.5549 79.7326 37.8593 62.0138 36.042 56.63C34.2248 51.2461 31.0689 50.692 31.0689 50.692L26.5879 49.4832Z" fill="#263238"/>
<path d="M18.6332 132.085H24.1004C24.0559 133.115 24.2275 134.143 24.6041 135.103C25.3248 136.934 26.7681 139.141 26.0881 139.894H18.6332V132.085Z" fill="#263238"/>
<path d="M27.7115 132.085H33.0508C33.0063 133.115 33.1779 134.143 33.5545 135.103C34.2752 136.934 35.7185 139.141 35.0385 139.894H27.7115V132.085Z" fill="#263238"/>
<path d="M24.1003 56.5739C24.1003 56.5739 19.1795 74.9571 22.1107 79.628L24.1003 56.5739Z" fill="#C62828"/>
<path d="M18.6313 83.7545L22.6086 80.2092L24.1004 82.5728L19.6251 85.5272L18.6313 83.7545Z" fill="#C62828"/>
<path d="M30.2107 42.0322C29.3796 43.6828 28.8545 45.9069 27.3047 46.4358C26.243 46.7942 25.0748 46.1084 24.4239 45.0506C23.7729 43.9928 23.5598 42.6386 23.523 41.327C23.4494 38.6652 24.0732 35.9238 25.5127 33.8838C26.9521 31.8438 29.2594 30.6098 31.4738 31.0185C33.0566 31.3111 34.4534 32.3747 35.9025 33.1786C37.3517 33.9826 39.0488 34.5677 40.5366 33.8606L39.7617 34.591L41.3968 34.7033L39.8004 35.7727C40.6165 35.693 41.4356 35.8909 42.1252 36.3346C38.3474 39.4692 32.9036 36.6678 30.2107 42.0322Z" fill="#263238"/>
<path d="M118.685 143.99C120.403 144.635 121.331 146.404 121.331 146.404C121.331 146.404 119.469 147.126 117.751 146.481C116.032 145.836 115.104 144.065 115.104 144.065C115.104 144.065 116.966 143.345 118.685 143.99Z" fill="url(#paint10_linear_895_62325)"/>
<path d="M118.603 144.209C120.019 144.74 120.783 146.197 120.783 146.197C120.783 146.197 119.25 146.791 117.832 146.26C116.414 145.73 115.647 144.279 115.647 144.279C115.647 144.279 117.185 143.676 118.603 144.209Z" fill="#FFCC80"/>
<path d="M126.422 133.323C128.113 133.958 129.024 135.698 129.024 135.698C129.024 135.698 127.193 136.409 125.502 135.774C123.811 135.138 122.9 133.399 122.9 133.399C122.9 133.399 124.731 132.69 126.422 133.323Z" fill="url(#paint11_linear_895_62325)"/>
<path d="M126.349 133.523C127.765 134.053 128.528 135.51 128.528 135.51C128.528 135.51 126.996 136.105 125.578 135.574C124.159 135.043 123.396 133.586 123.396 133.586C123.396 133.586 124.932 132.992 126.349 133.523Z" fill="#00ACC1"/>
<path d="M114.205 133.304C116.034 133.991 117.02 135.872 117.02 135.872C117.02 135.872 115.04 136.647 113.21 135.954C111.379 135.26 110.395 133.385 110.395 133.385C110.395 133.385 112.377 132.618 114.205 133.304Z" fill="url(#paint12_linear_895_62325)"/>
<path d="M114.097 133.604C115.513 134.135 116.276 135.592 116.276 135.592C116.276 135.592 114.744 136.186 113.326 135.656C111.908 135.125 111.146 133.668 111.146 133.668C111.146 133.668 112.677 133.073 114.097 133.604Z" fill="#B2EBF2"/>
<path d="M117.584 137.436C119.397 137.205 121.034 138.331 121.034 138.331C121.034 138.331 119.733 139.832 117.919 140.063C116.106 140.293 114.469 139.168 114.469 139.168C114.469 139.168 115.773 137.666 117.584 137.436Z" fill="url(#paint13_linear_895_62325)"/>
<path d="M117.615 137.663C119.117 137.469 120.471 138.403 120.471 138.403C120.471 138.403 119.394 139.644 117.892 139.836C116.391 140.028 115.037 139.096 115.037 139.096C115.037 139.096 116.114 137.854 117.615 137.663Z" fill="#8D6E63"/>
<path d="M101.514 112.739C99.8944 111.842 99.2299 109.943 99.2299 109.943C99.2299 109.943 101.192 109.496 102.812 110.393C104.432 111.29 105.096 113.188 105.096 113.188C105.096 113.188 103.134 113.634 101.514 112.739Z" fill="url(#paint14_linear_895_62325)"/>
<path d="M101.632 112.524C100.309 111.792 99.7646 110.24 99.7646 110.24C99.7646 110.24 101.369 109.874 102.692 110.606C104.015 111.338 104.56 112.894 104.56 112.894C104.56 112.894 102.957 113.256 101.632 112.524Z" fill="#FFCC80"/>
<path d="M91.2733 125.717C89.9501 124.985 89.4058 123.433 89.4058 123.433C89.4058 123.433 91.0098 123.067 92.333 123.799C93.6562 124.531 94.2006 126.083 94.2006 126.083C94.2006 126.083 92.5926 126.455 91.2733 125.717Z" fill="#00ACC1"/>
<path d="M103.281 127.654C101.634 126.744 100.956 124.812 100.956 124.812C100.956 124.812 102.951 124.359 104.598 125.27C106.245 126.18 106.923 128.112 106.923 128.112C106.923 128.112 104.928 128.565 103.281 127.654Z" fill="url(#paint15_linear_895_62325)"/>
<path d="M103.411 127.424C102.087 126.691 101.543 125.14 101.543 125.14C101.543 125.14 103.147 124.773 104.47 125.506C105.794 126.238 106.348 127.788 106.348 127.788C106.348 127.788 104.734 128.152 103.411 127.424Z" fill="#B2EBF2"/>
<path d="M100.516 122.892C99.0033 122.863 97.8041 121.744 97.8041 121.744C97.8041 121.744 99.0517 120.672 100.565 120.701C102.078 120.73 103.277 121.85 103.277 121.85C103.277 121.85 102.029 122.921 100.516 122.892Z" fill="#8D6E63"/>
<path d="M42.7297 131.078C41.2012 132.087 39.2309 131.8 39.2309 131.8C39.2309 131.8 39.7385 129.875 41.267 128.865C42.7956 127.856 44.7658 128.143 44.7658 128.143C44.7658 128.143 44.2583 130.068 42.7297 131.078Z" fill="url(#paint16_linear_895_62325)"/>
<path d="M42.6096 130.886C41.3465 131.721 39.7191 131.483 39.7191 131.483C39.7191 131.483 40.1376 129.892 41.4007 129.059C42.6639 128.226 44.2912 128.462 44.2912 128.462C44.2912 128.462 43.865 130.051 42.6096 130.886Z" fill="#FFCC80"/>
<path d="M49.6266 146.371C48.0961 147.382 46.1239 147.093 46.1239 147.093C46.1239 147.093 46.6315 145.156 48.162 144.155C49.6925 143.153 51.6647 143.432 51.6647 143.432C51.6647 143.432 51.1551 145.36 49.6266 146.371Z" fill="url(#paint17_linear_895_62325)"/>
<path d="M49.4968 146.177C48.2337 147.012 46.6063 146.774 46.6063 146.774C46.6063 146.774 47.0248 145.183 48.2879 144.35C49.5511 143.517 51.1784 143.754 51.1784 143.754C51.1784 143.754 50.7599 145.342 49.4968 146.177Z" fill="#00ACC1"/>
<path d="M56.7172 136.336C55.2701 137.293 53.4025 137.019 53.4025 137.019C53.4025 137.019 53.8829 135.194 55.3398 134.239C56.7967 133.284 58.6546 133.555 58.6546 133.555C58.6546 133.555 58.1664 135.388 56.7172 136.336Z" fill="url(#paint18_linear_895_62325)"/>
<path d="M56.6301 136.21C55.3669 137.045 53.7396 136.806 53.7396 136.806C53.7396 136.806 54.158 135.216 55.4212 134.383C56.6843 133.55 58.302 133.786 58.302 133.786C58.302 133.786 57.8912 135.367 56.6301 136.21Z" fill="#B2EBF2"/>
<path d="M51.4128 136.752C50.5836 138.273 48.809 138.899 48.809 138.899C48.809 138.899 48.3828 137.066 49.2139 135.549C50.045 134.032 51.8177 133.402 51.8177 133.402C51.8177 133.402 52.2439 135.235 51.4128 136.752Z" fill="url(#paint19_linear_895_62325)"/>
<path d="M51.2752 136.677C50.5526 138.004 49.0027 138.554 49.0027 138.554C49.0027 138.554 48.6308 136.952 49.3573 135.625C50.0838 134.298 51.6336 133.747 51.6336 133.747C51.6336 133.747 52.0017 135.349 51.2752 136.677Z" fill="#8D6E63"/>
<path d="M83.4756 104.635L85.6066 112.433C86.1829 113.068 86.8856 113.575 87.6697 113.923C88.4537 114.27 89.3018 114.45 90.1594 114.45C91.0169 114.45 91.865 114.27 92.6491 113.923C93.4331 113.575 94.1359 113.068 94.7121 112.433L104.98 104.441L83.4756 104.635Z" fill="url(#paint20_linear_895_62325)"/>
<path d="M83.7894 103.887L85.965 112.295C86.5177 112.902 87.1908 113.386 87.9414 113.718C88.692 114.049 89.5035 114.22 90.324 114.22C91.1446 114.22 91.9561 114.049 92.7067 113.718C93.4572 113.386 94.1304 112.902 94.683 112.295L104.639 103.887H83.7894Z" fill="#FF5252"/>
<path d="M93.1603 134.634V99.9467H86.3796V140.47H95.3049C96.0798 139.763 94.4292 137.655 93.6058 135.936C93.4076 135.521 93.2581 135.084 93.1603 134.634Z" fill="url(#paint21_linear_895_62325)"/>
<path d="M103.077 137.11C102.646 136.217 102.446 135.23 102.496 134.239H102.39V99.9486H95.9965V141.64H104.773C105.555 140.933 103.901 138.823 103.077 137.11Z" fill="url(#paint22_linear_895_62325)"/>
<path d="M92.6217 99.9447H86.8834V138.207H92.6217V99.9447Z" fill="#FFCD00"/>
<path d="M102.186 99.9447H96.4479V138.207H102.186V99.9447Z" fill="#FFCD00"/>
<path d="M97.9358 61.9906C99.438 61.9906 100.656 59.7979 100.656 57.093C100.656 54.3881 99.438 52.1954 97.9358 52.1954C96.4335 52.1954 95.2158 54.3881 95.2158 57.093C95.2158 59.7979 96.4335 61.9906 97.9358 61.9906Z" fill="#F5B89C"/>
<path d="M107.429 42.9931C106.859 42.1814 105.989 41.637 105.129 41.1507C103.367 40.1391 101.552 39.2233 99.691 38.4074C97.8447 37.5976 95.6362 36.9041 93.8926 37.9173C91.9824 39.0255 91.5019 41.7087 89.6634 42.9311C88.2298 43.8862 86.0309 43.9366 85.3238 45.5078C84.4133 47.5342 87.0442 49.857 86.213 51.9164C85.8721 52.7611 85.039 53.2726 84.3513 53.877C83.6635 54.4814 83.0533 55.392 83.371 56.2464C83.7023 57.1336 84.8531 57.4475 85.3083 58.2747C85.6958 58.9509 85.502 59.8246 85.0584 60.4659C84.6148 61.1071 83.9541 61.5449 83.3148 61.975C85.657 64.2998 86.9047 61.9014 89.9986 60.7642C92.397 59.8827 94.3886 58.1314 95.8454 56.0139C97.1109 57.2664 98.8172 57.9724 100.598 57.9803C104.525 57.9803 107.71 54.5415 107.71 50.2988C107.711 49.6929 107.646 49.0887 107.516 48.497C108.403 46.8309 108.339 44.2911 107.429 42.9931Z" fill="url(#paint23_linear_895_62325)"/>
<path d="M100.385 57.6374C104.141 57.6374 107.187 54.3483 107.187 50.291C107.187 46.2338 104.141 42.9447 100.385 42.9447C96.628 42.9447 93.5826 46.2338 93.5826 50.291C93.5826 54.3483 96.628 57.6374 100.385 57.6374Z" fill="#F8C198"/>
<path d="M95.2235 57.1704C95.2235 57.1704 81.1624 59.4042 85.2308 87.8344L83.5666 104.621H104.844L101.892 85.6143C101.892 85.6143 107.812 68.9532 105.776 63.9007C103.74 58.8481 100.226 58.3154 100.226 58.3154L95.2235 57.1704Z" fill="url(#paint24_linear_895_62325)"/>
<path d="M95.2158 57.6373C95.2158 57.6373 81.4317 59.8265 85.4246 87.6969L83.7914 104.154H104.647L101.741 85.5213C101.741 85.5213 107.553 69.1915 105.55 64.2339C103.546 59.2763 100.108 58.759 100.108 58.759L95.2158 57.6373Z" fill="#E10600"/>
<path d="M86.8834 132.461H92.5016C92.4527 133.431 92.6423 134.399 93.0537 135.28C93.8422 136.967 95.4211 139.038 94.6772 139.735H86.8834V132.461Z" fill="#E10600"/>
<path d="M96.4479 133.623H102.289C102.24 134.594 102.43 135.562 102.841 136.442C103.63 138.129 105.209 140.2 104.465 140.898H96.4479V133.623Z" fill="#E10600"/>
<path d="M92.4958 64.1661C92.4958 64.1661 87.112 81.0926 90.3202 85.3837L92.4958 64.1661Z" fill="#FF5252"/>
<path d="M103.378 63.6218C103.378 63.6218 102.165 81.1837 100.113 83.2101L103.378 63.6218Z" fill="#FF5252"/>
<path d="M86.5114 89.1944L90.8626 85.9301L92.4957 88.1057L87.5982 90.8276L86.5114 89.1944Z" fill="#FF5252"/>
<path d="M99.9506 83.7545L101.423 85.3857V87.0189L99.3268 84.8414L99.9506 83.7545Z" fill="#FF5252"/>
<path d="M105.503 49.9442C103.849 50.5254 101.822 49.301 101.551 47.569C101.311 50.7056 98.3213 51.0931 96.9206 53.9215C95.52 56.75 93.2068 59.2124 90.2485 60.2992C87.2902 61.3861 86.0968 63.676 83.8553 61.4616C84.4733 61.0509 85.1049 60.6266 85.5291 60.0183C85.9534 59.41 86.1297 58.5692 85.7674 57.9221C85.3238 57.1317 84.2176 56.8314 83.9076 55.9848C83.6034 55.1692 84.1885 54.2916 84.8453 53.7181C85.502 53.1447 86.2983 52.6526 86.6257 51.8447C87.42 49.8745 84.9053 47.6524 85.7752 45.715C86.4513 44.2117 88.5533 44.1652 89.9249 43.2507C91.684 42.0883 92.1432 39.5156 93.9701 38.4539C95.6381 37.4853 97.7498 38.1478 99.5147 38.9228C101.295 39.7035 103.031 40.5798 104.716 41.5478C105.538 42.0205 106.371 42.5359 106.915 43.3108C108.142 45.0525 107.766 49.1557 105.503 49.9442Z" fill="#263238"/>
<path d="M63.5211 88.4235C63.5211 91.0079 61.6496 93.1041 61.6496 93.1041C61.6496 93.1041 59.7781 91.0079 59.7781 88.4235C59.7781 85.8391 61.6496 83.7429 61.6496 83.7429C61.6496 83.7429 63.5211 85.8372 63.5211 88.4235Z" fill="url(#paint25_linear_895_62325)"/>
<path d="M63.3021 88.4234C63.3021 90.7056 61.6496 92.5577 61.6496 92.5577C61.6496 92.5577 59.9971 90.7075 59.9971 88.4234C59.9971 86.1393 61.6496 84.2892 61.6496 84.2892C61.6496 84.2892 63.3021 86.1393 63.3021 88.4234Z" fill="#00ACC1"/>
<path d="M63.9202 91.0215C66.1655 90.6127 68.2831 91.9088 68.2831 91.9088C68.2831 91.9088 66.7584 93.8674 64.513 94.2762C62.2676 94.685 60.1501 93.3889 60.1501 93.3889C60.1501 93.3889 61.6787 91.4303 63.9202 91.0215Z" fill="#81C3BF"/>
<path d="M68.9437 92.8619C66.3651 93.8035 63.5928 92.6992 63.5928 92.6992C63.5928 92.6992 65.0012 90.0683 67.5798 89.1268C70.1584 88.1852 72.9307 89.2895 72.9307 89.2895C72.9307 89.2895 71.5223 91.9204 68.9437 92.8619Z" fill="url(#paint26_linear_895_62325)"/>
<path d="M68.8294 92.552C66.6848 93.3269 64.3735 92.4164 64.3735 92.4164C64.3735 92.4164 65.5359 90.2292 67.6883 89.4445C69.8407 88.6599 72.1442 89.5801 72.1442 89.5801C72.1442 89.5801 70.974 91.7655 68.8294 92.552Z" fill="#B2EBF2"/>
<path d="M66.5917 95.9539C64.3096 95.9307 62.4749 94.2588 62.4749 94.2588C62.4749 94.2588 64.3425 92.6237 66.6247 92.6488C68.9068 92.674 70.7415 94.344 70.7415 94.344C70.7415 94.344 68.8739 95.9791 66.5917 95.9539Z" fill="#F9BC8B"/>
<path d="M70.9255 91.0021C73.2058 91.1299 74.961 92.8832 74.961 92.8832C74.961 92.8832 73.0237 94.4331 70.7415 94.3033C68.4593 94.1735 66.7061 92.4221 66.7061 92.4221C66.7061 92.4221 68.6472 90.8703 70.9255 91.0021Z" fill="#F2937C"/>
<path d="M56.5428 93.9643C59.0381 93.511 61.3861 94.9504 61.3861 94.9504C61.3861 94.9504 59.6929 97.126 57.1976 97.5793C54.7024 98.0327 52.3543 96.5932 52.3543 96.5932C52.3543 96.5932 54.0398 94.4176 56.5428 93.9643Z" fill="url(#paint27_linear_895_62325)"/>
<path d="M56.5758 94.1444C58.8211 93.7357 60.9386 95.0317 60.9386 95.0317C60.9386 95.0317 59.4139 96.9884 57.1686 97.3953C54.9232 97.8021 52.8057 96.508 52.8057 96.508C52.8057 96.508 54.3304 94.5532 56.5758 94.1444Z" fill="#00ACC1"/>
<path d="M61.7639 96.444C59.2125 97.3759 56.2949 95.8047 56.2949 95.8047C56.2949 95.8047 57.5134 92.7244 60.0649 91.7925C62.6164 90.8607 65.534 92.4318 65.534 92.4318C65.534 92.4318 64.3076 95.5122 61.7639 96.444Z" fill="url(#paint28_linear_895_62325)"/>
<path d="M61.4811 95.671C59.3364 96.4459 57.0252 95.5354 57.0252 95.5354C57.0252 95.5354 58.1876 93.3482 60.34 92.5636C62.4923 91.7789 64.7958 92.6992 64.7958 92.6992C64.7958 92.6992 63.6257 94.8883 61.4811 95.671Z" fill="#CFE8DF"/>
<path d="M59.2396 99.3713C56.5525 99.3442 54.3962 97.374 54.3962 97.374C54.3962 97.374 56.5932 95.4579 59.2706 95.4773C61.9479 95.4967 64.1139 97.4747 64.1139 97.4747C64.1139 97.4747 61.9286 99.3984 59.2396 99.3713Z" fill="url(#paint29_linear_895_62325)"/>
<path d="M59.2435 99.0788C56.9613 99.0555 55.1266 97.3836 55.1266 97.3836C55.1266 97.3836 56.9942 95.7485 59.2764 95.7737C61.5586 95.7989 63.3932 97.4689 63.3932 97.4689C63.3932 97.4689 61.5256 99.102 59.2435 99.0788Z" fill="#FFCC80"/>
<path d="M63.5869 93.9468C66.1055 94.0882 68.0428 96.0256 68.0428 96.0256C68.0428 96.0256 65.9001 97.7343 63.3816 97.5949C60.863 97.4554 58.9257 95.5161 58.9257 95.5161C58.9257 95.5161 61.0703 93.8073 63.5869 93.9468Z" fill="url(#paint30_linear_895_62325)"/>
<path d="M63.5772 94.1212C65.8575 94.249 67.6127 96.0023 67.6127 96.0023C67.6127 96.0023 65.6754 97.5521 63.3932 97.4223C61.111 97.2925 59.3577 95.5412 59.3577 95.5412C59.3577 95.5412 61.2989 93.9933 63.5772 94.1212Z" fill="#B56E5D"/>
<path d="M77.5435 96.8024C74.9765 96.4014 73.1864 94.218 73.1864 94.218C73.1864 94.218 75.5558 92.6836 78.1227 93.0847C80.6897 93.4857 82.4798 95.6691 82.4798 95.6691C82.4798 95.6691 80.1085 97.2015 77.5435 96.8024Z" fill="url(#paint31_linear_895_62325)"/>
<path d="M77.5783 96.5778C75.3232 96.2252 73.7482 94.3072 73.7482 94.3072C73.7482 94.3072 75.8308 92.9511 78.0878 93.3114C80.3448 93.6717 81.9179 95.582 81.9179 95.582C81.9179 95.582 79.8333 96.9284 77.5783 96.5778Z" fill="#00ACC1"/>
<path d="M73.4479 93.5206C75.7301 93.4857 77.6073 95.1092 77.6073 95.1092C77.6073 95.1092 75.7824 96.7908 73.5002 96.8257C71.218 96.8605 69.3408 95.237 69.3408 95.237C69.3408 95.237 71.1638 93.5593 73.4479 93.5206Z" fill="#B2EBF2"/>
<path d="M76.6794 91.0408C78.8279 91.8157 80.0097 93.9952 80.0097 93.9952C80.0097 93.9952 77.7081 94.9251 75.5538 94.1541C73.3995 93.383 72.2313 91.1958 72.2313 91.1958C72.2313 91.1958 74.5309 90.2697 76.6794 91.0408Z" fill="#FFCC80"/>
<path d="M70.9565 94.2955C68.8448 93.4256 67.7638 91.1957 67.7638 91.1957C67.7638 91.1957 70.1041 90.3724 72.2197 91.2403C74.3352 92.1082 75.4124 94.34 75.4124 94.34C75.4124 94.34 73.0682 95.1692 70.9565 94.2955Z" fill="#B56E5D"/>
<path d="M64.1623 91.2984C66.8397 91.6995 68.7209 93.9622 68.7209 93.9622C68.7209 93.9622 66.2605 95.576 63.5831 95.1769C60.9057 94.7778 59.0245 92.5131 59.0245 92.5131C59.0245 92.5131 61.4849 90.8994 64.1623 91.2984Z" fill="url(#paint32_linear_895_62325)"/>
<path d="M64.1139 91.6026C66.3709 91.9397 67.9576 93.848 67.9576 93.848C67.9576 93.848 65.8827 95.2041 63.6257 94.8728C61.3687 94.5415 59.782 92.6274 59.782 92.6274C59.782 92.6274 61.8589 91.2655 64.1139 91.6026Z" fill="#B2EBF2"/>
<path d="M68.2733 94.9057C65.6076 94.9638 63.4048 93.0808 63.4048 93.0808C63.4048 93.0808 65.5223 91.1028 68.1881 91.0447C70.8539 90.9865 73.0566 92.8696 73.0566 92.8696C73.0566 92.8696 70.9391 94.8476 68.2733 94.9057Z" fill="url(#paint33_linear_895_62325)"/>
<path d="M68.2675 94.6286C65.9853 94.679 64.0984 93.0652 64.0984 93.0652C64.0984 93.0652 65.9117 91.372 68.1939 91.3216C70.4761 91.2712 72.363 92.885 72.363 92.885C72.363 92.885 70.5497 94.5782 68.2675 94.6286Z" fill="#B2EBF2"/>
<path d="M64.9741 97.3506C62.5195 96.4865 61.1575 94.0087 61.1575 94.0087C61.1575 94.0087 63.7729 92.9315 66.2256 93.7956C68.6782 94.6596 70.0421 97.1375 70.0421 97.1375C70.0421 97.1375 67.4287 98.2146 64.9741 97.3506Z" fill="url(#paint34_linear_895_62325)"/>
<path d="M65.0515 97.1318C62.8992 96.3743 61.7019 94.1987 61.7019 94.1987C61.7019 94.1987 63.9957 93.2532 66.1578 94.0049C68.3198 94.7566 69.5074 96.938 69.5074 96.938C69.5074 96.938 67.2136 97.8912 65.0515 97.1318Z" fill="#FFCC80"/>
<path d="M70.85 93.6C73.2949 94.588 74.56 97.1608 74.56 97.1608C74.56 97.1608 71.8613 98.1294 69.4183 97.1414C66.9753 96.1534 65.7083 93.5806 65.7083 93.5806C65.7083 93.5806 68.4051 92.6119 70.85 93.6Z" fill="url(#paint35_linear_895_62325)"/>
<path d="M70.7531 93.8363C72.8687 94.6926 73.9652 96.9186 73.9652 96.9186C73.9652 96.9186 71.6307 97.7574 69.5093 96.9031C67.3879 96.0487 66.2972 93.8208 66.2972 93.8208C66.2972 93.8208 68.6356 92.9819 70.7531 93.8363Z" fill="#B56E5D"/>
<path d="M64.9586 90.4442C64.9586 92.984 63.1181 95.0453 63.1181 95.0453C63.1181 95.0453 61.2776 92.986 61.2776 90.4442C61.2776 87.9024 63.1181 85.843 63.1181 85.843C63.1181 85.843 64.9586 87.9024 64.9586 90.4442Z" fill="url(#paint36_linear_895_62325)"/>
<path d="M64.7707 90.4442C64.7707 92.7263 63.1181 94.5784 63.1181 94.5784C63.1181 94.5784 61.4656 92.7283 61.4656 90.4442C61.4656 88.1601 63.1181 86.3099 63.1181 86.3099C63.1181 86.3099 64.7707 88.1601 64.7707 90.4442Z" fill="#FFCC80"/>
<path d="M79.4304 84.2621C80.6083 86.492 79.9476 89.1539 79.9476 89.1539C79.9476 89.1539 77.3768 88.1988 76.1989 85.9689C75.021 83.739 75.6817 81.0771 75.6817 81.0771C75.6817 81.0771 78.2564 82.0323 79.4304 84.2621Z" fill="url(#paint37_linear_895_62325)"/>
<path d="M79.2773 84.3436C80.3429 86.3623 79.7462 88.7704 79.7462 88.7704C79.7462 88.7704 77.4214 87.9063 76.3539 85.8876C75.2864 83.8689 75.8851 81.4608 75.8851 81.4608C75.8851 81.4608 78.2118 82.3249 79.2773 84.3436Z" fill="#B56E5D"/>
<path d="M71.3905 86.7691C71.3905 89.3128 69.5481 91.376 69.5481 91.376C69.5481 91.376 67.7057 89.3128 67.7057 86.7691C67.7057 84.2254 69.5384 82.1621 69.5384 82.1621C69.5384 82.1621 71.3905 84.2215 71.3905 86.7691Z" fill="url(#paint38_linear_895_62325)"/>
<path d="M71.2006 86.769C71.2006 89.0512 69.5481 90.9033 69.5481 90.9033C69.5481 90.9033 67.8956 89.0531 67.8956 86.769C67.8956 84.4849 69.5384 82.6367 69.5384 82.6367C69.5384 82.6367 71.2006 84.4869 71.2006 86.769Z" fill="#B2EBF2"/>
<path d="M144.9 80.3468C144.9 82.2977 143.411 83.8786 143.411 83.8786C143.411 83.8786 141.927 82.2841 141.927 80.3468C141.927 78.4095 143.416 76.8151 143.416 76.8151C143.416 76.8151 144.9 78.3901 144.9 80.3468Z" fill="url(#paint39_linear_895_62325)"/>
<path d="M144.734 80.3468C144.734 82.0691 143.418 83.4639 143.418 83.4639C143.418 83.4639 142.103 82.0671 142.103 80.3468C142.103 78.6264 143.418 77.2296 143.418 77.2296C143.418 77.2296 144.734 78.6187 144.734 80.3468Z" fill="#00ACC1"/>
<path d="M145.23 82.3017C147.018 81.9936 148.703 82.9701 148.703 82.9701C148.703 82.9701 147.489 84.4463 145.703 84.7543C143.916 85.0624 142.229 84.0859 142.229 84.0859C142.229 84.0859 143.442 82.6097 145.23 82.3017Z" fill="#81C3BF"/>
<path d="M149.225 83.6907C147.171 84.4017 144.962 83.5687 144.962 83.5687C144.962 83.5687 146.084 81.5829 148.136 80.8739C150.187 80.1648 152.398 80.9959 152.398 80.9959C152.398 80.9959 151.278 82.9797 149.225 83.6907Z" fill="url(#paint40_linear_895_62325)"/>
<path d="M149.134 83.4466C147.427 84.0278 145.592 83.3439 145.592 83.3439C145.592 83.3439 146.524 81.6933 148.231 81.1024C149.938 80.5115 151.772 81.2051 151.772 81.2051C151.772 81.2051 150.84 82.8654 149.134 83.4466Z" fill="#B2EBF2"/>
<path d="M147.353 86.0232C145.536 86.0058 144.077 84.7446 144.077 84.7446C144.077 84.7446 145.563 83.5124 147.38 83.5298C149.197 83.5473 150.656 84.8085 150.656 84.8085C150.656 84.8085 149.163 86.0407 147.353 86.0232Z" fill="#F9BC8B"/>
<path d="M150.803 82.2841C152.619 82.381 154.016 83.7042 154.016 83.7042C154.016 83.7042 152.466 84.8666 150.656 84.7756C148.847 84.6845 147.444 83.3555 147.444 83.3555C147.444 83.3555 148.988 82.1873 150.803 82.2841Z" fill="#F2937C"/>
<path d="M139.354 84.5217C141.34 84.1788 143.211 85.2657 143.211 85.2657C143.211 85.2657 141.855 86.9066 139.877 87.2495C137.899 87.5924 136.02 86.5055 136.02 86.5055C136.02 86.5055 137.368 84.8627 139.354 84.5217Z" fill="url(#paint41_linear_895_62325)"/>
<path d="M139.381 84.6574C141.169 84.3493 142.855 85.3258 142.855 85.3258C142.855 85.3258 141.64 86.802 139.854 87.11C138.068 87.4181 136.376 86.4417 136.376 86.4417C136.376 86.4417 137.593 84.9654 139.381 84.6574Z" fill="#00ACC1"/>
<path d="M143.509 86.3912C141.479 87.0945 139.156 85.9088 139.156 85.9088C139.156 85.9088 140.125 83.5841 142.157 82.8827C144.19 82.1814 146.51 83.3651 146.51 83.3651C146.51 83.3651 145.54 85.688 143.509 86.3912Z" fill="url(#paint42_linear_895_62325)"/>
<path d="M143.285 85.8082C141.578 86.3894 139.743 85.7055 139.743 85.7055C139.743 85.7055 140.675 84.0549 142.382 83.464C144.089 82.8731 145.923 83.5667 145.923 83.5667C145.923 83.5667 144.992 85.2173 143.285 85.8082Z" fill="#CFE8DF"/>
<path d="M141.5 88.5998C139.369 88.5785 137.643 87.0945 137.643 87.0945C137.643 87.0945 139.387 85.6435 141.533 85.6648C143.68 85.6861 145.391 87.1701 145.391 87.1701C145.391 87.1701 143.641 88.6211 141.5 88.5998Z" fill="url(#paint43_linear_895_62325)"/>
<path d="M141.504 88.3789C139.687 88.3614 138.228 87.1002 138.228 87.1002C138.228 87.1002 139.714 85.8681 141.531 85.8856C143.349 85.903 144.807 87.1642 144.807 87.1642C144.807 87.1642 143.32 88.3963 141.504 88.3789Z" fill="#FFCC80"/>
<path d="M144.962 84.5081C146.968 84.6146 148.51 86.0754 148.51 86.0754C148.51 86.0754 146.803 87.3657 144.8 87.2591C142.797 87.1526 141.253 85.6918 141.253 85.6918C141.253 85.6918 142.963 84.4015 144.962 84.5081Z" fill="url(#paint44_linear_895_62325)"/>
<path d="M144.955 84.6399C146.77 84.7367 148.167 86.0599 148.167 86.0599C148.167 86.0599 146.617 87.2223 144.807 87.1313C142.998 87.0402 141.595 85.7112 141.595 85.7112C141.595 85.7112 143.139 84.543 144.955 84.6399Z" fill="#B56E5D"/>
<path d="M156.071 86.6625C154.029 86.3603 152.603 84.7136 152.603 84.7136C152.603 84.7136 154.49 83.5512 156.532 83.8592C158.574 84.1672 160 85.8082 160 85.8082C160 85.8082 158.113 86.9648 156.071 86.6625Z" fill="url(#paint45_linear_895_62325)"/>
<path d="M156.098 86.4921C154.302 86.2267 153.051 84.7795 153.051 84.7795C153.051 84.7795 154.709 83.7624 156.505 84.0278C158.301 84.2932 159.552 85.7404 159.552 85.7404C159.552 85.7404 157.894 86.7575 156.098 86.4921Z" fill="#00ACC1"/>
<path d="M152.811 84.1886C154.628 84.1614 156.121 85.3877 156.121 85.3877C156.121 85.3877 154.668 86.6567 152.851 86.6838C151.034 86.7109 149.54 85.4846 149.54 85.4846C149.54 85.4846 150.993 84.2215 152.811 84.1886Z" fill="#B2EBF2"/>
<path d="M155.383 82.3171C157.094 82.8983 158.036 84.5451 158.036 84.5451C158.036 84.5451 156.205 85.2464 154.494 84.6652C152.783 84.084 151.842 82.4372 151.842 82.4372C151.842 82.4372 153.673 81.734 155.383 82.3171Z" fill="#FFCC80"/>
<path d="M150.827 84.7737C149.147 84.1189 148.285 82.4334 148.285 82.4334C148.285 82.4334 150.149 81.8115 151.828 82.4663C153.508 83.1211 154.372 84.8028 154.372 84.8028C154.372 84.8028 152.508 85.4305 150.827 84.7737Z" fill="#B56E5D"/>
<path d="M145.42 82.5108C147.551 82.813 149.048 84.5198 149.048 84.5198C149.048 84.5198 147.09 85.7384 144.959 85.4362C142.828 85.1339 141.33 83.4272 141.33 83.4272C141.33 83.4272 143.289 82.2086 145.42 82.5108Z" fill="url(#paint46_linear_895_62325)"/>
<path d="M145.383 82.7395C147.181 82.9932 148.442 84.4346 148.442 84.4346C148.442 84.4346 146.791 85.4614 144.993 85.2096C143.196 84.9577 141.934 83.5144 141.934 83.5144C141.934 83.5144 143.587 82.4779 145.383 82.7395Z" fill="#B2EBF2"/>
<path d="M148.692 85.2308C146.57 85.2754 144.817 83.8553 144.817 83.8553C144.817 83.8553 146.503 82.3636 148.624 82.319C150.745 82.2745 152.499 83.6945 152.499 83.6945C152.499 83.6945 150.813 85.1902 148.692 85.2308Z" fill="url(#paint47_linear_895_62325)"/>
<path d="M148.688 85.0236C146.871 85.0604 145.369 83.8457 145.369 83.8457C145.369 83.8457 146.813 82.569 148.63 82.5302C150.447 82.4915 151.948 83.7081 151.948 83.7081C151.948 83.7081 150.503 84.9848 148.688 85.0236Z" fill="#B2EBF2"/>
<path d="M146.063 87.0752C144.11 86.4243 143.025 84.5567 143.025 84.5567C143.025 84.5567 145.106 83.7449 147.061 84.3959C149.015 85.0468 150.098 86.9144 150.098 86.9144C150.098 86.9144 148.02 87.7281 146.063 87.0752Z" fill="url(#paint48_linear_895_62325)"/>
<path d="M146.127 86.9105C144.412 86.3293 143.461 84.698 143.461 84.698C143.461 84.698 145.288 83.9851 147.002 84.5566C148.717 85.1281 149.668 86.7691 149.668 86.7691C149.668 86.7691 147.841 87.4839 146.127 86.9105Z" fill="#FFCC80"/>
<path d="M150.741 84.2467C152.688 84.9965 153.696 86.9338 153.696 86.9338C153.696 86.9338 151.549 87.6642 149.602 86.9202C147.655 86.1763 146.644 84.2312 146.644 84.2312C146.644 84.2312 148.796 83.5008 150.741 84.2467Z" fill="url(#paint49_linear_895_62325)"/>
<path d="M150.666 84.4249C152.351 85.07 153.223 86.7497 153.223 86.7497C153.223 86.7497 151.363 87.3832 149.68 86.7381C147.996 86.0929 147.123 84.4133 147.123 84.4133C147.123 84.4133 148.98 83.7798 150.666 84.4249Z" fill="#B56E5D"/>
<path d="M146.053 81.8657C146.053 83.7817 144.589 85.3355 144.589 85.3355C144.589 85.3355 143.124 83.7856 143.124 81.8657C143.124 79.9459 144.589 78.396 144.589 78.396C144.589 78.396 146.053 79.9497 146.053 81.8657Z" fill="url(#paint50_linear_895_62325)"/>
<path d="M145.904 81.8657C145.904 83.588 144.589 84.9828 144.589 84.9828C144.589 84.9828 143.273 83.586 143.273 81.8657C143.273 80.1453 144.589 78.7485 144.589 78.7485C144.589 78.7485 145.904 80.1531 145.904 81.8657Z" fill="#FFCC80"/>
<path d="M157.573 77.2026C158.51 78.8842 157.985 80.8835 157.985 80.8835C157.985 80.8835 155.939 80.1628 155.002 78.4812C154.064 76.7996 154.589 74.8003 154.589 74.8003C154.589 74.8003 156.635 75.521 157.573 77.2026Z" fill="url(#paint51_linear_895_62325)"/>
<path d="M157.45 77.2646C158.299 78.7874 157.822 80.6046 157.822 80.6046C157.822 80.6046 155.97 79.9517 155.122 78.4309C154.273 76.9101 154.75 75.0909 154.75 75.0909C154.75 75.0909 156.602 75.7419 157.45 77.2646Z" fill="#B56E5D"/>
<path d="M151.174 79.0935C151.174 81.0134 149.707 82.569 149.707 82.569C149.707 82.569 148.24 81.0192 148.24 79.0935C148.24 77.1678 149.707 75.6179 149.707 75.6179C149.707 75.6179 151.174 77.1755 151.174 79.0935Z" fill="url(#paint52_linear_895_62325)"/>
<path d="M151.022 79.0935C151.022 80.8157 149.707 82.2106 149.707 82.2106C149.707 82.2106 148.388 80.8157 148.388 79.0935C148.388 77.3712 149.703 75.9763 149.703 75.9763C149.703 75.9763 151.022 77.3712 151.022 79.0935Z" fill="#B2EBF2"/>
</g>
<defs>
<linearGradient id="paint0_linear_895_62325" x1="99.2841" y1="44.9653" x2="99.2841" y2="35.2787" gradientUnits="userSpaceOnUse">
<stop stop-color="#808080" stop-opacity="0.25"/>
<stop offset="0.54" stop-color="#808080" stop-opacity="0.12"/>
<stop offset="1" stop-color="#808080" stop-opacity="0.1"/>
</linearGradient>
<linearGradient id="paint1_linear_895_62325" x1="44860.9" y1="2797.33" x2="44860.9" y2="2312.99" gradientUnits="userSpaceOnUse">
<stop stop-color="#808080" stop-opacity="0.25"/>
<stop offset="0.54" stop-color="#808080" stop-opacity="0.12"/>
<stop offset="1" stop-color="#808080" stop-opacity="0.1"/>
</linearGradient>
<linearGradient id="paint2_linear_895_62325" x1="44909.1" y1="3311.11" x2="44909.1" y2="2826.77" gradientUnits="userSpaceOnUse">
<stop stop-color="#808080" stop-opacity="0.25"/>
<stop offset="0.54" stop-color="#808080" stop-opacity="0.12"/>
<stop offset="1" stop-color="#808080" stop-opacity="0.1"/>
</linearGradient>
<linearGradient id="paint3_linear_895_62325" x1="1368.62" y1="9768.43" x2="1368.62" y2="7615" gradientUnits="userSpaceOnUse">
<stop stop-color="#808080" stop-opacity="0.25"/>
<stop offset="0.54" stop-color="#808080" stop-opacity="0.12"/>
<stop offset="1" stop-color="#808080" stop-opacity="0.1"/>
</linearGradient>
<linearGradient id="paint4_linear_895_62325" x1="2792.56" y1="9789.05" x2="2792.56" y2="7635.62" gradientUnits="userSpaceOnUse">
<stop stop-color="#808080" stop-opacity="0.25"/>
<stop offset="0.54" stop-color="#808080" stop-opacity="0.12"/>
<stop offset="1" stop-color="#808080" stop-opacity="0.1"/>
</linearGradient>
<linearGradient id="paint5_linear_895_62325" x1="7022.72" y1="6449.19" x2="7022.72" y2="4475.99" gradientUnits="userSpaceOnUse">
<stop stop-color="#808080" stop-opacity="0.25"/>
<stop offset="0.54" stop-color="#808080" stop-opacity="0.12"/>
<stop offset="1" stop-color="#808080" stop-opacity="0.1"/>
</linearGradient>
<linearGradient id="paint6_linear_895_62325" x1="23404.7" y1="13586.4" x2="23404.7" y2="3158.5" gradientUnits="userSpaceOnUse">
<stop stop-color="#808080" stop-opacity="0.25"/>
<stop offset="0.54" stop-color="#808080" stop-opacity="0.12"/>
<stop offset="1" stop-color="#808080" stop-opacity="0.1"/>
</linearGradient>
<linearGradient id="paint7_linear_895_62325" x1="11883.8" y1="30326.6" x2="11883.8" y2="16752.5" gradientUnits="userSpaceOnUse">
<stop stop-color="#808080" stop-opacity="0.25"/>
<stop offset="0.54" stop-color="#808080" stop-opacity="0.12"/>
<stop offset="1" stop-color="#808080" stop-opacity="0.1"/>
</linearGradient>
<linearGradient id="paint8_linear_895_62325" x1="2739.36" y1="34896.2" x2="2739.36" y2="25014.7" gradientUnits="userSpaceOnUse">
<stop stop-color="#808080" stop-opacity="0.25"/>
<stop offset="0.54" stop-color="#808080" stop-opacity="0.12"/>
<stop offset="1" stop-color="#808080" stop-opacity="0.1"/>
</linearGradient>
<linearGradient id="paint9_linear_895_62325" x1="2988.84" y1="34897.8" x2="2988.84" y2="25015.8" gradientUnits="userSpaceOnUse">
<stop stop-color="#808080" stop-opacity="0.25"/>
<stop offset="0.54" stop-color="#808080" stop-opacity="0.12"/>
<stop offset="1" stop-color="#808080" stop-opacity="0.1"/>
</linearGradient>
<linearGradient id="paint10_linear_895_62325" x1="5079.36" y1="2649.91" x2="5079.36" y2="2602.59" gradientUnits="userSpaceOnUse">
<stop stop-color="#808080" stop-opacity="0.25"/>
<stop offset="0.54" stop-color="#808080" stop-opacity="0.12"/>
<stop offset="1" stop-color="#808080" stop-opacity="0.1"/>
</linearGradient>
<linearGradient id="paint11_linear_895_62325" x1="5250.12" y1="2433.46" x2="5250.12" y2="2387.68" gradientUnits="userSpaceOnUse">
<stop stop-color="#808080" stop-opacity="0.25"/>
<stop offset="0.54" stop-color="#808080" stop-opacity="0.12"/>
<stop offset="1" stop-color="#808080" stop-opacity="0.1"/>
</linearGradient>
<linearGradient id="paint12_linear_895_62325" x1="5238.59" y1="2626.65" x2="5238.59" y2="2573.04" gradientUnits="userSpaceOnUse">
<stop stop-color="#808080" stop-opacity="0.25"/>
<stop offset="0.54" stop-color="#808080" stop-opacity="0.12"/>
<stop offset="1" stop-color="#808080" stop-opacity="0.1"/>
</linearGradient>
<linearGradient id="paint13_linear_895_62325" x1="5333.28" y1="2271.08" x2="5333.28" y2="2233.76" gradientUnits="userSpaceOnUse">
<stop stop-color="#808080" stop-opacity="0.25"/>
<stop offset="0.54" stop-color="#808080" stop-opacity="0.12"/>
<stop offset="1" stop-color="#808080" stop-opacity="0.1"/>
</linearGradient>
<linearGradient id="paint14_linear_895_62325" x1="4290.06" y1="2381.41" x2="4290.06" y2="2319.34" gradientUnits="userSpaceOnUse">
<stop stop-color="#808080" stop-opacity="0.25"/>
<stop offset="0.54" stop-color="#808080" stop-opacity="0.12"/>
<stop offset="1" stop-color="#808080" stop-opacity="0.1"/>
</linearGradient>
<linearGradient id="paint15_linear_895_62325" x1="4418.53" y1="2705.42" x2="4418.53" y2="2641.3" gradientUnits="userSpaceOnUse">
<stop stop-color="#808080" stop-opacity="0.25"/>
<stop offset="0.54" stop-color="#808080" stop-opacity="0.12"/>
<stop offset="1" stop-color="#808080" stop-opacity="0.1"/>
</linearGradient>
<linearGradient id="paint16_linear_895_62325" x1="2274.52" y1="2930.71" x2="2274.52" y2="2858.81" gradientUnits="userSpaceOnUse">
<stop stop-color="#808080" stop-opacity="0.25"/>
<stop offset="0.54" stop-color="#808080" stop-opacity="0.12"/>
<stop offset="1" stop-color="#808080" stop-opacity="0.1"/>
</linearGradient>
<linearGradient id="paint17_linear_895_62325" x1="2480.95" y1="3242.74" x2="2480.95" y2="3170.65" gradientUnits="userSpaceOnUse">
<stop stop-color="#808080" stop-opacity="0.25"/>
<stop offset="0.54" stop-color="#808080" stop-opacity="0.12"/>
<stop offset="1" stop-color="#808080" stop-opacity="0.1"/>
</linearGradient>
<linearGradient id="paint18_linear_895_62325" x1="2554.71" y1="2883.38" x2="2554.71" y2="2818.85" gradientUnits="userSpaceOnUse">
<stop stop-color="#808080" stop-opacity="0.25"/>
<stop offset="0.54" stop-color="#808080" stop-opacity="0.12"/>
<stop offset="1" stop-color="#808080" stop-opacity="0.1"/>
</linearGradient>
<linearGradient id="paint19_linear_895_62325" x1="1490.51" y1="4460.16" x2="1490.51" y2="4304.29" gradientUnits="userSpaceOnUse">
<stop stop-color="#808080" stop-opacity="0.25"/>
<stop offset="0.54" stop-color="#808080" stop-opacity="0.12"/>
<stop offset="1" stop-color="#808080" stop-opacity="0.1"/>
</linearGradient>
<linearGradient id="paint20_linear_895_62325" x1="14565.3" y1="6719.88" x2="14565.3" y2="6203.15" gradientUnits="userSpaceOnUse">
<stop stop-color="#808080" stop-opacity="0.25"/>
<stop offset="0.54" stop-color="#808080" stop-opacity="0.12"/>
<stop offset="1" stop-color="#808080" stop-opacity="0.1"/>
</linearGradient>
<linearGradient id="paint21_linear_895_62325" x1="6078.11" y1="32329.6" x2="6078.11" y2="23853.4" gradientUnits="userSpaceOnUse">
<stop stop-color="#808080" stop-opacity="0.25"/>
<stop offset="0.54" stop-color="#808080" stop-opacity="0.12"/>
<stop offset="1" stop-color="#808080" stop-opacity="0.1"/>
</linearGradient>
<linearGradient id="paint22_linear_895_62325" x1="6434.48" y1="33510.1" x2="6434.48" y2="24538.1" gradientUnits="userSpaceOnUse">
<stop stop-color="#808080" stop-opacity="0.25"/>
<stop offset="0.54" stop-color="#808080" stop-opacity="0.12"/>
<stop offset="1" stop-color="#808080" stop-opacity="0.1"/>
</linearGradient>
<linearGradient id="paint23_linear_895_62325" x1="17018" y1="10131.4" x2="17018" y2="6764.28" gradientUnits="userSpaceOnUse">
<stop stop-color="#808080" stop-opacity="0.25"/>
<stop offset="0.54" stop-color="#808080" stop-opacity="0.12"/>
<stop offset="1" stop-color="#808080" stop-opacity="0.1"/>
</linearGradient>
<linearGradient id="paint24_linear_895_62325" x1="15403.7" y1="29016.5" x2="15403.7" y2="17394.3" gradientUnits="userSpaceOnUse">
<stop stop-color="#808080" stop-opacity="0.25"/>
<stop offset="0.54" stop-color="#808080" stop-opacity="0.12"/>
<stop offset="1" stop-color="#808080" stop-opacity="0.1"/>
</linearGradient>
<linearGradient id="paint25_linear_895_62325" x1="1950.96" y1="5240.34" x2="1950.96" y2="4787.92" gradientUnits="userSpaceOnUse">
<stop stop-color="#808080" stop-opacity="0.25"/>
<stop offset="0.54" stop-color="#808080" stop-opacity="0.12"/>
<stop offset="1" stop-color="#808080" stop-opacity="0.1"/>
</linearGradient>
<linearGradient id="paint26_linear_895_62325" x1="5100.56" y1="2568.22" x2="5100.56" y2="2463.89" gradientUnits="userSpaceOnUse">
<stop stop-color="#808080" stop-opacity="0.25"/>
<stop offset="0.54" stop-color="#808080" stop-opacity="0.12"/>
<stop offset="1" stop-color="#808080" stop-opacity="0.1"/>
</linearGradient>
<linearGradient id="paint27_linear_895_62325" x1="4393.23" y1="2271.82" x2="4393.23" y2="2197.62" gradientUnits="userSpaceOnUse">
<stop stop-color="#808080" stop-opacity="0.25"/>
<stop offset="0.54" stop-color="#808080" stop-opacity="0.12"/>
<stop offset="1" stop-color="#808080" stop-opacity="0.1"/>
</linearGradient>
<linearGradient id="paint28_linear_895_62325" x1="6104.58" y1="4905.84" x2="6116.45" y2="4759.92" gradientUnits="userSpaceOnUse">
<stop stop-color="#808080" stop-opacity="0.25"/>
<stop offset="0.54" stop-color="#808080" stop-opacity="0.12"/>
<stop offset="1" stop-color="#808080" stop-opacity="0.1"/>
</linearGradient>
<linearGradient id="paint29_linear_895_62325" x1="4844.7" y1="2366.71" x2="4844.7" y2="2288.43" gradientUnits="userSpaceOnUse">
<stop stop-color="#808080" stop-opacity="0.25"/>
<stop offset="0.54" stop-color="#808080" stop-opacity="0.12"/>
<stop offset="1" stop-color="#808080" stop-opacity="0.1"/>
</linearGradient>
<linearGradient id="paint30_linear_895_62325" x1="4752.03" y1="2197.46" x2="4752.03" y2="2128.17" gradientUnits="userSpaceOnUse">
<stop stop-color="#808080" stop-opacity="0.25"/>
<stop offset="0.54" stop-color="#808080" stop-opacity="0.12"/>
<stop offset="1" stop-color="#808080" stop-opacity="0.1"/>
</linearGradient>
<linearGradient id="paint31_linear_895_62325" x1="5545.22" y1="2289.12" x2="5545.22" y2="2212.6" gradientUnits="userSpaceOnUse">
<stop stop-color="#808080" stop-opacity="0.25"/>
<stop offset="0.54" stop-color="#808080" stop-opacity="0.12"/>
<stop offset="1" stop-color="#808080" stop-opacity="0.1"/>
</linearGradient>
<linearGradient id="paint32_linear_895_62325" x1="5069.7" y1="2341.79" x2="5069.7" y2="2258.96" gradientUnits="userSpaceOnUse">
<stop stop-color="#808080" stop-opacity="0.25"/>
<stop offset="0.54" stop-color="#808080" stop-opacity="0.12"/>
<stop offset="1" stop-color="#808080" stop-opacity="0.1"/>
</linearGradient>
<linearGradient id="paint33_linear_895_62325" x1="5268.21" y1="2255.34" x2="5268.21" y2="2178.3" gradientUnits="userSpaceOnUse">
<stop stop-color="#808080" stop-opacity="0.25"/>
<stop offset="0.54" stop-color="#808080" stop-opacity="0.12"/>
<stop offset="1" stop-color="#808080" stop-opacity="0.1"/>
</linearGradient>
<linearGradient id="paint34_linear_895_62325" x1="4731.51" y1="2521.43" x2="4731.51" y2="2429.25" gradientUnits="userSpaceOnUse">
<stop stop-color="#808080" stop-opacity="0.25"/>
<stop offset="0.54" stop-color="#808080" stop-opacity="0.12"/>
<stop offset="1" stop-color="#808080" stop-opacity="0.1"/>
</linearGradient>
<linearGradient id="paint35_linear_895_62325" x1="4925.89" y1="2635.8" x2="4925.89" y2="2534.49" gradientUnits="userSpaceOnUse">
<stop stop-color="#808080" stop-opacity="0.25"/>
<stop offset="0.54" stop-color="#808080" stop-opacity="0.12"/>
<stop offset="1" stop-color="#808080" stop-opacity="0.1"/>
</linearGradient>
<linearGradient id="paint36_linear_895_62325" x1="1949.08" y1="5247.06" x2="1949.08" y2="4810.04" gradientUnits="userSpaceOnUse">
<stop stop-color="#808080" stop-opacity="0.25"/>
<stop offset="0.54" stop-color="#808080" stop-opacity="0.12"/>
<stop offset="1" stop-color="#808080" stop-opacity="0.1"/>
</linearGradient>
<linearGradient id="paint37_linear_895_62325" x1="2804.38" y1="4365.46" x2="2804.38" y2="4028.74" gradientUnits="userSpaceOnUse">
<stop stop-color="#808080" stop-opacity="0.25"/>
<stop offset="0.54" stop-color="#808080" stop-opacity="0.12"/>
<stop offset="1" stop-color="#808080" stop-opacity="0.1"/>
</linearGradient>
<linearGradient id="paint38_linear_895_62325" x1="2079.79" y1="5075.45" x2="2079.79" y2="4637.24" gradientUnits="userSpaceOnUse">
<stop stop-color="#808080" stop-opacity="0.25"/>
<stop offset="0.54" stop-color="#808080" stop-opacity="0.12"/>
<stop offset="1" stop-color="#808080" stop-opacity="0.1"/>
</linearGradient>
<linearGradient id="paint39_linear_895_62325" x1="2899.67" y1="3631.17" x2="2899.67" y2="3373.63" gradientUnits="userSpaceOnUse">
<stop stop-color="#808080" stop-opacity="0.25"/>
<stop offset="0.54" stop-color="#808080" stop-opacity="0.12"/>
<stop offset="1" stop-color="#808080" stop-opacity="0.1"/>
</linearGradient>
<linearGradient id="paint40_linear_895_62325" x1="7242.27" y1="1788.47" x2="7242.27" y2="1729.1" gradientUnits="userSpaceOnUse">
<stop stop-color="#808080" stop-opacity="0.25"/>
<stop offset="0.54" stop-color="#808080" stop-opacity="0.12"/>
<stop offset="1" stop-color="#808080" stop-opacity="0.1"/>
</linearGradient>
<linearGradient id="paint41_linear_895_62325" x1="6663.76" y1="1575.23" x2="6663.76" y2="1532.96" gradientUnits="userSpaceOnUse">
<stop stop-color="#808080" stop-opacity="0.25"/>
<stop offset="0.54" stop-color="#808080" stop-opacity="0.12"/>
<stop offset="1" stop-color="#808080" stop-opacity="0.1"/>
</linearGradient>
<linearGradient id="paint42_linear_895_62325" x1="8097.26" y1="3649.81" x2="8104.02" y2="3566.61" gradientUnits="userSpaceOnUse">
<stop stop-color="#808080" stop-opacity="0.25"/>
<stop offset="0.54" stop-color="#808080" stop-opacity="0.12"/>
<stop offset="1" stop-color="#808080" stop-opacity="0.1"/>
</linearGradient>
<linearGradient id="paint43_linear_895_62325" x1="7246.17" y1="1634.44" x2="7246.17" y2="1589.93" gradientUnits="userSpaceOnUse">
<stop stop-color="#808080" stop-opacity="0.25"/>
<stop offset="0.54" stop-color="#808080" stop-opacity="0.12"/>
<stop offset="1" stop-color="#808080" stop-opacity="0.1"/>
</linearGradient>
<linearGradient id="paint44_linear_895_62325" x1="6926.04" y1="1523.54" x2="6926.04" y2="1484.11" gradientUnits="userSpaceOnUse">
<stop stop-color="#808080" stop-opacity="0.25"/>
<stop offset="0.54" stop-color="#808080" stop-opacity="0.12"/>
<stop offset="1" stop-color="#808080" stop-opacity="0.1"/>
</linearGradient>
<linearGradient id="paint45_linear_895_62325" x1="7503.83" y1="1588.53" x2="7503.83" y2="1544.94" gradientUnits="userSpaceOnUse">
<stop stop-color="#808080" stop-opacity="0.25"/>
<stop offset="0.54" stop-color="#808080" stop-opacity="0.12"/>
<stop offset="1" stop-color="#808080" stop-opacity="0.1"/>
</linearGradient>
<linearGradient id="paint46_linear_895_62325" x1="7369.45" y1="1628.12" x2="7369.45" y2="1580.98" gradientUnits="userSpaceOnUse">
<stop stop-color="#808080" stop-opacity="0.25"/>
<stop offset="0.54" stop-color="#808080" stop-opacity="0.12"/>
<stop offset="1" stop-color="#808080" stop-opacity="0.1"/>
</linearGradient>
<linearGradient id="paint47_linear_895_62325" x1="7476.03" y1="1569.03" x2="7476.03" y2="1525.21" gradientUnits="userSpaceOnUse">
<stop stop-color="#808080" stop-opacity="0.25"/>
<stop offset="0.54" stop-color="#808080" stop-opacity="0.12"/>
<stop offset="1" stop-color="#808080" stop-opacity="0.1"/>
</linearGradient>
<linearGradient id="paint48_linear_895_62325" x1="6817.21" y1="1744.06" x2="6817.21" y2="1691.62" gradientUnits="userSpaceOnUse">
<stop stop-color="#808080" stop-opacity="0.25"/>
<stop offset="0.54" stop-color="#808080" stop-opacity="0.12"/>
<stop offset="1" stop-color="#808080" stop-opacity="0.1"/>
</linearGradient>
<linearGradient id="paint49_linear_895_62325" x1="6932.02" y1="1824.59" x2="6932.02" y2="1766.92" gradientUnits="userSpaceOnUse">
<stop stop-color="#808080" stop-opacity="0.25"/>
<stop offset="0.54" stop-color="#808080" stop-opacity="0.12"/>
<stop offset="1" stop-color="#808080" stop-opacity="0.1"/>
</linearGradient>
<linearGradient id="paint50_linear_895_62325" x1="2877.24" y1="3622.74" x2="2877.24" y2="3374.16" gradientUnits="userSpaceOnUse">
<stop stop-color="#808080" stop-opacity="0.25"/>
<stop offset="0.54" stop-color="#808080" stop-opacity="0.12"/>
<stop offset="1" stop-color="#808080" stop-opacity="0.1"/>
</linearGradient>
<linearGradient id="paint51_linear_895_62325" x1="3820.62" y1="3042.31" x2="3820.62" y2="2850.99" gradientUnits="userSpaceOnUse">
<stop stop-color="#808080" stop-opacity="0.25"/>
<stop offset="0.54" stop-color="#808080" stop-opacity="0.12"/>
<stop offset="1" stop-color="#808080" stop-opacity="0.1"/>
</linearGradient>
<linearGradient id="paint52_linear_895_62325" x1="2963.48" y1="3526.63" x2="2963.48" y2="3277.23" gradientUnits="userSpaceOnUse">
<stop stop-color="#808080" stop-opacity="0.25"/>
<stop offset="0.54" stop-color="#808080" stop-opacity="0.12"/>
<stop offset="1" stop-color="#808080" stop-opacity="0.1"/>
</linearGradient>
<clipPath id="clip0_895_62325">
<rect width="160" height="147.13" fill="white"/>
</clipPath>
</defs>
</svg>
