<svg width="40" height="40" viewBox="0 0 40 40" fill="none" xmlns="http://www.w3.org/2000/svg">
<path d="M36.25 37.5H3.75C1.67891 37.5 0 35.8211 0 33.75V6.25C0 4.17891 1.67891 2.5 3.75 2.5H36.25C38.3211 2.5 40 4.17891 40 6.25V33.75C40 35.8211 38.3211 37.5 36.25 37.5ZM10 9.375C8.27414 9.375 6.875 10.7741 6.875 12.5C6.875 14.2259 8.27414 15.625 10 15.625C11.7259 15.625 13.125 14.2259 13.125 12.5C13.125 10.7741 11.7259 9.375 10 9.375ZM10 16.875C8.27414 16.875 6.875 18.2741 6.875 20C6.875 21.7259 8.27414 23.125 10 23.125C11.7259 23.125 13.125 21.7259 13.125 20C13.125 18.2741 11.7259 16.875 10 16.875ZM10 24.375C8.27414 24.375 6.875 25.7741 6.875 27.5C6.875 29.2259 8.27414 30.625 10 30.625C11.7259 30.625 13.125 29.2259 13.125 27.5C13.125 25.7741 11.7259 24.375 10 24.375ZM32.5 13.75V11.25C32.5 10.7323 32.0802 10.3125 31.5625 10.3125H15.9375C15.4198 10.3125 15 10.7323 15 11.25V13.75C15 14.2677 15.4198 14.6875 15.9375 14.6875H31.5625C32.0802 14.6875 32.5 14.2677 32.5 13.75ZM32.5 21.25V18.75C32.5 18.2323 32.0802 17.8125 31.5625 17.8125H15.9375C15.4198 17.8125 15 18.2323 15 18.75V21.25C15 21.7677 15.4198 22.1875 15.9375 22.1875H31.5625C32.0802 22.1875 32.5 21.7677 32.5 21.25ZM32.5 28.75V26.25C32.5 25.7323 32.0802 25.3125 31.5625 25.3125H15.9375C15.4198 25.3125 15 25.7323 15 26.25V28.75C15 29.2677 15.4198 29.6875 15.9375 29.6875H31.5625C32.0802 29.6875 32.5 29.2677 32.5 28.75Z" fill="#00BF6F"/>
</svg>
