<svg width="40" height="40" viewBox="0 0 40 40" fill="none" xmlns="http://www.w3.org/2000/svg">
<path d="M32.0286 21.7905L25.8571 18.7048C28.3143 16.8 29.8952 13.8286 29.8952 10.4762C29.8952 4.70476 25.1905 0 19.419 0C13.6476 0 8.94286 4.70476 8.94286 10.4762C8.94286 14.5333 11.2667 18.0571 14.6571 19.7905V26L11.1524 25.2571L10.9619 25.219C10.7714 25.181 10.581 25.1619 10.3524 25.1619C9.34286 25.1619 8.39048 25.5619 7.66667 26.2857L5 28.9905L14.6952 38.6857C15.5143 39.5238 16.6571 40 17.8381 40H29.8381C31.7048 40 33.2857 38.6667 33.5905 36.819L35.1143 27.8476C35.5333 25.3714 34.2952 22.9333 32.0286 21.7905ZM31.3619 27.219L29.8381 36.1905H17.8381C17.6667 36.1905 17.5143 36.1143 17.381 36L10.3714 28.9905L18.4667 30.6857V10.4762C18.4667 9.94286 18.8857 9.52381 19.419 9.52381C19.9524 9.52381 20.3714 9.94286 20.3714 10.4762V21.9048H23.7238L30.3143 25.2C31.0762 25.581 31.4952 26.4 31.3619 27.219ZM12.7524 10.4762C12.7524 6.8 15.7429 3.80952 19.419 3.80952C23.0952 3.80952 26.0857 6.8 26.0857 10.4762C26.0857 12.2857 25.3619 13.9238 24.181 15.1238V10.4762C24.181 9.21325 23.6793 8.00205 22.7862 7.10902C21.8932 6.21598 20.682 5.71429 19.419 5.71429C18.1561 5.71429 16.9449 6.21598 16.0519 7.10902C15.1588 8.00205 14.6571 9.21325 14.6571 10.4762V15.1238C13.4762 13.9238 12.7524 12.2857 12.7524 10.4762Z" fill="#00BF6F"/>
</svg>
