<svg width="40" height="40" viewBox="0 0 40 40" fill="none" xmlns="http://www.w3.org/2000/svg">
<path d="M35.2569 0.449479C35.2569 0.449479 4.76438 0.440104 4.77313 0.449479C1.96251 0.449479 0.382507 1.9026 0.382507 4.87073V35.4745C0.382507 38.2514 1.80313 39.7051 4.61126 39.7051H35.3444C38.1525 39.7051 39.575 38.3238 39.575 35.4745V4.87073C39.5756 1.97448 38.1531 0.449479 35.2569 0.449479ZM19.2181 14.6089C19.2181 15.5689 18.3438 16.597 17.2088 16.597V32.8064C17.2088 35.1076 14.0725 35.1076 14.0725 32.8064V16.597C12.9681 16.597 12.0063 15.7464 12.0063 14.472V5.55135C12.0063 4.7751 13.1281 4.7451 13.1281 5.58198V12.1757H14.0675V5.52073C14.0675 4.8076 15.1481 4.76198 15.1481 5.55135V12.1757H16.1188V5.5301C16.1188 4.78448 17.1675 4.75448 17.1675 5.55948V12.1757H18.1225V5.5301C18.1225 4.7926 19.2181 4.76323 19.2181 5.55948V14.6089ZM27.5844 32.7989C27.5844 35.0495 24.4419 35.0157 24.4419 32.7989V22.8101H22.7688V7.62448C22.7688 4.08948 27.585 4.08948 27.585 7.62448V32.7989H27.5844Z" fill="#00BF6F"/>
</svg>
