<svg width="359" height="272" viewBox="0 0 359 272" fill="none" xmlns="http://www.w3.org/2000/svg">
<g clip-path="url(#clip0_895_55968)">
<path opacity="0.1" d="M354.432 78.4603C354.37 78.7524 354.311 79.0446 354.242 79.3335C352.085 89.2637 348.56 98.8329 343.318 107.621C343.144 107.913 342.97 108.205 342.792 108.497C339.336 114.151 335.201 119.362 330.478 124.015C327.867 126.588 325.019 129.034 321.633 130.797C316.888 133.272 311.341 134.276 305.889 135.097C300.226 135.954 294.485 136.67 288.76 137.441C286.726 137.71 284.704 137.996 282.694 138.298C277.163 139.115 271.672 140.061 266.312 141.315C259.686 142.861 253.264 144.886 247.197 147.736C246.713 147.954 246.234 148.186 245.761 148.432C245.287 148.668 244.81 148.908 244.343 149.15C243.876 149.393 243.416 149.636 242.959 149.886C242.722 150.014 242.485 150.142 242.252 150.276C242.019 150.411 241.788 150.529 241.561 150.661C240.878 151.041 240.207 151.432 239.536 151.826L239.51 151.842C239.066 152.102 238.628 152.368 238.194 152.633C235.715 154.137 233.288 155.706 230.862 157.285L229.336 158.27L226.972 159.796C226.511 160.095 226.041 160.394 225.578 160.689C225.249 160.906 224.92 161.123 224.561 161.346C222.838 162.429 221.092 163.493 219.3 164.507C218.876 164.75 218.449 164.993 218.018 165.229C214.397 167.246 210.611 168.95 206.7 170.324L206.647 170.344C204.68 171.029 202.673 171.595 200.636 172.038C199.463 172.294 198.285 172.504 197.095 172.665C193.913 173.115 190.687 173.16 187.494 172.799C181.223 172.074 175.347 169.671 169.08 168.86C156.177 167.219 143.645 172.507 131.512 176.65C128.528 177.667 125.523 178.621 122.496 179.509C120.483 180.103 118.464 180.665 116.429 181.206C103.959 184.496 91.2315 186.724 78.3843 187.867C73.0138 188.392 67.6112 188.512 62.2227 188.225C60.1742 188.1 58.1486 187.896 56.1593 187.568C49.3527 186.518 43.0065 184.315 37.8834 180.281C33.6877 176.968 30.6855 172.652 28.4002 168.134C26.0609 163.525 24.4092 158.599 23.4975 153.513C23.3726 152.821 23.2608 152.125 23.1687 151.429C23.0043 150.238 22.8815 149.041 22.8004 147.837C22.358 141.422 23.1254 134.98 25.0627 128.847C27.2329 121.979 30.85 115.388 32.4415 108.468C32.5072 108.174 32.5697 107.882 32.6289 107.591C32.8462 106.54 33.0076 105.478 33.1122 104.41C33.9244 95.908 30.8105 87.6191 28.3674 79.3039C28.2819 79.0151 28.1964 78.7229 28.1142 78.4307C27.8511 77.5072 27.599 76.5848 27.3579 75.6634C25.0956 66.8723 24.4675 57.4607 26.4832 48.686C26.5457 48.3938 26.6213 48.1016 26.6937 47.8128C28.0431 42.2662 30.5806 37.0774 34.1316 32.6039C37.9064 27.8768 42.8618 23.9408 48.1558 20.4841C50.7359 18.799 53.4038 17.2243 56.1593 15.7602C58.1322 14.7098 60.1534 13.7151 62.2227 12.7762C78.8117 5.22598 97.7354 1.53948 116.449 2.3536C117.435 2.39628 118.421 2.4488 119.408 2.52102C120.394 2.59324 121.473 2.67859 122.505 2.77379C134.56 3.94244 146.289 6.7623 157.936 9.84478C161.839 10.8788 165.735 11.9392 169.629 12.9798C171.362 13.4394 173.091 13.8989 174.824 14.3454C183.311 16.535 191.923 18.5177 200.643 19.9982C202.662 20.3462 204.683 20.6635 206.707 20.9502C213.732 21.981 220.813 22.5806 227.912 22.7459C230.672 22.8006 233.433 22.7765 236.195 22.6737C237.589 22.6233 238.985 22.5478 240.381 22.4472C254.8 21.4328 268.735 18.0385 282.694 14.8673C284.713 14.4078 286.735 13.9547 288.76 13.5083C291.417 12.924 294.074 12.3593 296.744 11.8374C313.359 8.57764 328.17 10.4521 343.618 17.1784C347.129 18.7049 350.638 20.5497 352.788 23.4156C354.939 26.2814 355.478 29.8005 355.879 33.1981C356.448 38.0368 356.82 42.9379 356.961 47.8653C356.961 48.1542 356.961 48.4463 356.981 48.7385C357.204 58.6917 356.461 68.7401 354.432 78.4603Z" fill="#00BF6F"/>
<path opacity="0.1" d="M244.218 107.621H243.133V108.008V108.497H244.363L244.218 107.621ZM231.911 107.621C231.909 107.628 231.909 107.636 231.911 107.644C231.881 107.883 231.848 108.123 231.815 108.366V108.432V108.497H241.22V108.445L241.877 107.621H231.911ZM206.707 107.621V79.3336H217.525C217.41 79.2581 217.291 79.1794 217.17 79.1071L217.012 79.0054L216.808 78.8806C216.69 78.8117 216.571 78.7428 216.446 78.6771C216.321 78.6115 216.246 78.5655 216.14 78.5097L216.068 78.4703H216.052H206.707V76.911L206.453 77.0095L206.187 77.1342H206.167L206.111 77.1638L205.944 77.2524L205.776 77.341C205.612 77.4297 205.447 77.5282 205.283 77.6299L205.125 77.735L204.796 77.9451C204.372 78.2274 203.954 78.5228 203.524 78.7986C203.415 78.8675 203.307 78.9364 203.195 78.9988C202.961 79.1367 202.721 79.268 202.475 79.3862C202.369 79.4387 202.267 79.4847 202.146 79.5273L201.968 79.5963L201.804 79.6521C201.418 79.7861 201.022 79.8893 200.62 79.9606V107.614H184.399C184.399 107.647 184.422 107.673 184.432 107.706C184.521 107.969 184.61 108.228 184.695 108.491H200.643V138.81C200.726 138.81 200.809 138.81 200.89 138.81L201.176 138.826L201.692 138.856L202.517 138.954L202.896 138.991L203.307 139.033H203.369L204.096 139.122L204.25 139.142L204.602 139.191L205.105 139.263L206.312 139.211L206.476 139.24C206.542 139.24 206.611 139.26 206.68 139.273V108.497H231.782V108.432V108.366C231.815 108.123 231.848 107.883 231.878 107.644C231.876 107.636 231.876 107.628 231.878 107.621H206.707ZM244.218 107.621H243.133V108.008V108.497H244.363L244.218 107.621ZM231.233 107.621C231.194 107.913 231.158 108.205 231.118 108.497H241.604L242.318 107.621H231.233ZM206.707 107.621V79.3336H217.525C217.41 79.2581 217.291 79.1794 217.17 79.1071L217.012 79.0054L216.808 78.8806C216.69 78.8117 216.571 78.7428 216.446 78.6771C216.321 78.6115 216.246 78.5655 216.14 78.5097L216.068 78.4703H216.045H206.707V76.911L206.453 77.0095L206.187 77.1342H206.167L206.111 77.1638L205.944 77.2524L205.776 77.341C205.612 77.4297 205.447 77.5282 205.283 77.6299L205.125 77.735L204.796 77.9451C204.372 78.2274 203.954 78.5228 203.524 78.7986C203.415 78.8675 203.307 78.9364 203.195 78.9988C202.961 79.1367 202.721 79.268 202.475 79.3862C202.369 79.4387 202.267 79.4847 202.146 79.5273L201.968 79.5963L201.804 79.6521C201.418 79.7861 201.022 79.8893 200.62 79.9606V107.614H184.399C184.399 107.647 184.422 107.673 184.432 107.706C184.521 107.966 184.613 108.228 184.699 108.491H200.643V138.807H200.89L201.176 138.823L201.692 138.853L202.517 138.954L202.896 138.991L203.307 139.033H203.369L204.096 139.122L204.25 139.142L204.602 139.191L205.105 139.263L206.312 139.211L206.476 139.24C206.542 139.24 206.611 139.26 206.68 139.273V108.497H231.125C231.164 108.205 231.2 107.913 231.24 107.621H206.707ZM288.76 48.7157H356.981C356.981 48.4235 356.981 48.1314 356.961 47.8425H288.76V13.4986C286.735 13.9363 284.713 14.3893 282.694 14.8577V47.8425H208.499L208.311 47.6751L208.594 47.4256L236.192 22.6673C233.43 22.7723 230.669 22.7964 227.909 22.7395L206.703 41.7596V20.9504C204.678 20.6637 202.657 20.3464 200.64 19.9984V40.801L169.635 12.9799C165.742 11.9393 161.846 10.879 157.942 9.84493L200.107 47.6751L199.92 47.8425H122.515V2.80349C121.483 2.7072 120.45 2.62294 119.418 2.55072C118.431 2.4785 117.445 2.42598 116.458 2.3833V47.8425H62.2227V12.806C60.1753 13.7426 58.1541 14.7373 56.1593 15.7899V47.8425H26.6937C26.6213 48.1314 26.5457 48.4235 26.4832 48.7157H56.1593V78.4604H28.1142C28.1964 78.7526 28.2819 79.0448 28.3674 79.3336H56.1593V107.621H32.6289C32.5697 107.912 32.5072 108.204 32.4414 108.497H56.1593V187.588C58.1322 187.893 60.1742 188.107 62.2227 188.245V108.497H116.449V181.22C118.484 180.678 120.503 180.117 122.515 179.522V108.497H200.643V172.035C202.679 171.592 204.686 171.026 206.654 170.341L206.707 170.321V108.497H282.694V138.298C284.71 138.003 286.733 137.719 288.76 137.448V108.497H342.792C342.97 108.205 343.144 107.913 343.318 107.621H288.76V79.3336H354.242C354.311 79.0448 354.37 78.7526 354.432 78.4604H288.76V48.7157ZM62.2227 48.7157H116.449V78.4604H62.2227V48.7157ZM62.2227 107.621V79.3336H116.449V107.621H62.2227ZM122.515 48.7157H200.643V78.4604H122.515V48.7157ZM122.515 107.621V79.3336H200.643V107.621H122.515ZM282.694 107.621H206.707V79.3336H282.694V107.621ZM282.694 78.4604H206.707V49.5134L207.772 48.7157H282.694V78.4604ZM231.911 107.621C231.909 107.628 231.909 107.636 231.911 107.644C231.881 107.883 231.848 108.123 231.815 108.366V108.432V108.497H241.22V108.445L241.877 107.621H231.911ZM244.218 107.621H243.133V108.008V108.497H244.363L244.218 107.621ZM206.707 107.621V79.3336H217.525C217.41 79.2581 217.291 79.1794 217.17 79.1071L217.012 79.0054L216.808 78.8806C216.69 78.8117 216.571 78.7428 216.446 78.6771C216.321 78.6115 216.246 78.5655 216.14 78.5097L216.068 78.4703H216.052H206.707V76.911L206.453 77.0095L206.187 77.1342H206.167L206.111 77.1638L205.944 77.2524L205.776 77.341C205.612 77.4297 205.447 77.5282 205.283 77.6299L205.125 77.735L204.796 77.9451C204.372 78.2274 203.954 78.5228 203.524 78.7986C203.415 78.8675 203.307 78.9364 203.195 78.9988C202.961 79.1367 202.721 79.268 202.475 79.3862C202.369 79.4387 202.267 79.4847 202.146 79.5273L201.968 79.5963L201.804 79.6521C201.418 79.7861 201.022 79.8893 200.62 79.9606V107.614H184.399C184.399 107.647 184.422 107.673 184.432 107.706C184.521 107.969 184.61 108.228 184.695 108.491H200.643V138.81C200.726 138.81 200.809 138.81 200.89 138.81L201.176 138.826L201.692 138.856L202.517 138.954L202.896 138.991L203.307 139.033H203.369L204.096 139.122L204.25 139.142L204.602 139.191L205.105 139.263L206.312 139.211L206.476 139.24C206.542 139.24 206.611 139.26 206.68 139.273V108.497H231.782V108.432V108.366C231.815 108.123 231.848 107.883 231.878 107.644C231.876 107.636 231.876 107.628 231.878 107.621H206.707Z" fill="#00BF6F"/>
<path opacity="0.1" d="M88.295 28.238H88.7652C88.6102 28.1726 88.4753 28.0673 88.3743 27.933C88.2732 27.7986 88.2095 27.64 88.1898 27.4731C88.1898 26.8691 89.094 26.3767 90.1989 26.3767H104.259C105.364 26.3767 106.265 26.8691 106.265 27.4731C106.265 28.0739 105.364 28.5696 104.259 28.5696H103.789C103.944 28.6339 104.079 28.7384 104.18 28.8723C104.282 29.0062 104.345 29.1646 104.364 29.3312C104.364 29.8465 103.707 30.2799 102.829 30.3948H106.877C107.978 30.3948 108.882 30.8872 108.882 31.4912C108.882 32.0952 107.978 32.5876 106.877 32.5876H92.813C91.7114 32.5876 90.8072 32.0919 90.8072 31.4912C90.8072 30.9758 91.4648 30.5458 92.3428 30.4276H88.295C87.1902 30.4276 86.2892 29.9352 86.2892 29.3312C86.2892 28.7271 87.1902 28.238 88.295 28.238Z" fill="#00BF6F"/>
<path opacity="0.1" d="M240.684 38.6672H241.154C241 38.6013 240.865 38.4959 240.765 38.3615C240.664 38.2272 240.601 38.0688 240.582 37.9023C240.582 37.2983 241.483 36.8059 242.588 36.8059H256.648C257.753 36.8059 258.657 37.2983 258.657 37.9023C258.657 38.5031 257.753 38.9955 256.648 38.9955H256.181C256.335 39.0614 256.47 39.1668 256.57 39.3012C256.671 39.4355 256.734 39.5939 256.753 39.7604C256.753 40.2757 256.096 40.7091 255.218 40.824H259.265C260.37 40.824 261.271 41.3164 261.271 41.9204C261.271 42.5244 260.37 43.0168 259.265 43.0168H245.205C244.1 43.0168 243.196 42.5211 243.196 41.9204C243.196 41.405 243.854 40.9717 244.731 40.8568H240.684C239.582 40.8568 238.678 40.3644 238.678 39.7604C238.678 39.1563 239.582 38.6672 240.684 38.6672Z" fill="#00BF6F"/>
<path opacity="0.1" d="M66.7145 83.299H67.1814C67.0268 83.2334 66.8924 83.128 66.7919 82.9937C66.6914 82.8593 66.6284 82.7008 66.6093 82.5342C66.6093 81.9334 67.5135 81.4377 68.6151 81.4377H82.6787C83.7802 81.4377 84.6845 81.9334 84.6845 82.5342C84.6845 83.1382 83.7802 83.6306 82.6787 83.6306H82.2085C82.3632 83.6951 82.4978 83.7997 82.5984 83.9336C82.699 84.0675 82.7619 84.2259 82.7806 84.3922C82.7806 84.9076 82.123 85.3409 81.245 85.4558H85.2928C86.3977 85.4558 87.3019 85.9515 87.3019 86.5522C87.3019 87.153 86.3977 87.6487 85.2928 87.6487H71.2456C70.1408 87.6487 69.2398 87.1562 69.2398 86.5522C69.2398 86.0401 69.8975 85.6068 70.7754 85.4886H66.7145C65.6096 85.4886 64.7054 84.9962 64.7054 84.3922C64.7054 83.7882 65.6228 83.299 66.7145 83.299Z" fill="#00BF6F"/>
<path opacity="0.1" d="M331.465 200.28C333.827 188.741 304.908 173.097 266.873 165.337C228.838 157.577 196.09 160.64 193.728 172.179C191.366 183.718 220.284 199.362 258.32 207.122C296.355 214.882 329.103 211.819 331.465 200.28Z" fill="#00BF6F"/>
<path d="M254.655 126.346C254.655 126.346 258.394 108.025 272.668 109.722C272.668 109.722 282.533 110.398 284.562 116.845V131.096L254.655 126.346Z" fill="#3A3768"/>
<path d="M332.826 133.134L205.713 122.613L189.401 126.007L190.42 148.74L191.531 148.875L192.797 183.012L317.529 205.403L330.787 194.206V157.2L332.484 156.205L332.826 133.134Z" fill="#D48A9B"/>
<path opacity="0.05" d="M332.997 133.134L332.655 156.205L318.89 162.652L318.719 138.56L332.997 133.134Z" fill="black"/>
<path opacity="0.05" d="M330.787 157.223L330.955 193.53L317.7 204.727L318.552 162.652L330.787 157.223Z" fill="black"/>
<path opacity="0.05" d="M191.703 150.234L318.654 165.699L318.719 162.764L191.607 149.078L191.703 150.234Z" fill="black"/>
<path opacity="0.05" d="M330.787 158.555V157.223L318.21 162.764V165.705L330.787 158.555Z" fill="black"/>
<path d="M189.23 126.007L205.543 122.613L332.655 133.134L318.381 138.561L189.23 126.007Z" fill="#EFC6CD"/>
<path opacity="0.1" d="M319.114 133.787L325.352 134.194L315.014 137.284L309.749 136.906L319.114 133.787Z" fill="black"/>
<path d="M319.114 133.515L325.352 133.922L315.014 137.015L309.749 136.634L319.114 133.515Z" fill="white"/>
<path d="M318.368 134.214C318.614 134.109 318.874 134.309 319.137 134.359C319.288 134.388 319.443 134.359 319.594 134.388C319.9 134.428 320.202 134.631 320.495 134.529" fill="#D3DAE1"/>
<path d="M318.046 134.401C318.289 134.296 318.552 134.493 318.815 134.546C318.966 134.572 319.121 134.546 319.272 134.572C319.578 134.615 319.88 134.818 320.173 134.716" fill="#D3DAE1"/>
<path d="M317.302 134.776C317.549 134.67 317.812 134.867 318.075 134.917C318.223 134.946 318.381 134.917 318.529 134.946C318.838 134.989 319.14 135.192 319.43 135.087" fill="#D3DAE1"/>
<path opacity="0.1" d="M292.151 130.721L298.388 131.132L288.05 134.221L282.786 133.84L292.151 130.721Z" fill="black"/>
<path d="M292.151 130.452L298.388 130.859L288.05 133.948L282.786 133.571L292.151 130.452Z" fill="white"/>
<path d="M291.404 131.151C291.651 131.046 291.911 131.243 292.174 131.296C292.325 131.322 292.48 131.296 292.631 131.322C292.937 131.365 293.239 131.568 293.532 131.467" fill="#D3DAE1"/>
<path d="M291.082 131.339C291.325 131.233 291.588 131.43 291.851 131.48C292.003 131.509 292.157 131.48 292.309 131.509C292.614 131.552 292.917 131.755 293.209 131.65" fill="#D3DAE1"/>
<path d="M290.339 131.709C290.585 131.604 290.849 131.805 291.112 131.854C291.26 131.883 291.417 131.854 291.565 131.883C291.874 131.923 292.177 132.13 292.466 132.025" fill="#D3DAE1"/>
<path opacity="0.1" d="M305.083 132.254L311.324 132.661L300.986 135.754L295.718 135.373L305.083 132.254Z" fill="black"/>
<path d="M305.083 131.985L311.324 132.392L300.986 135.481L295.718 135.101L305.083 131.985Z" fill="white"/>
<path d="M304.337 132.684C304.584 132.579 304.847 132.776 305.11 132.826C305.258 132.855 305.412 132.826 305.563 132.855C305.869 132.895 306.175 133.101 306.464 132.996" fill="#D3DAE1"/>
<path d="M304.015 132.868C304.261 132.763 304.524 132.964 304.787 133.013C304.935 133.042 305.09 133.013 305.241 133.042C305.547 133.082 305.853 133.289 306.142 133.184" fill="#D3DAE1"/>
<path d="M303.275 133.243C303.518 133.138 303.781 133.334 304.044 133.387C304.195 133.413 304.35 133.387 304.501 133.413C304.807 133.456 305.109 133.659 305.402 133.558" fill="#D3DAE1"/>
<path opacity="0.1" d="M163.858 259.788C200.629 259.788 230.438 253.662 230.438 246.106C230.438 238.549 200.629 232.423 163.858 232.423C127.087 232.423 97.2784 238.549 97.2784 246.106C97.2784 253.662 127.087 259.788 163.858 259.788Z" fill="#00BF6F"/>
<path d="M236.767 134.06C236.057 127.829 233.246 121.884 233.246 121.884L233.459 119.783C233.459 119.783 233.506 118.733 233.436 117.157C233.444 116.173 233.573 115.194 233.821 114.242C234.397 112.42 233.101 110.181 232.956 109.975C232.812 109.768 233.029 105.773 231.733 103.813C230.438 101.853 221.809 98.2092 221.809 98.2092C221.809 98.2092 221.346 97.2408 220.691 96.1083L220.751 95.9934C220.215 95.0238 219.552 94.1306 218.778 93.3377C218.248 92.7731 217.739 92.4513 217.328 92.6089C217.16 92.064 217.033 91.5078 216.946 90.9446C217.032 90.9676 217.12 90.9905 217.206 91.0069C217.562 91.0894 217.931 91.0983 218.291 91.0332C219.093 90.8527 219.626 90.1337 220.073 89.4575C222.303 86.0763 224.223 82.3668 224.614 78.3652C224.719 77.5484 224.68 76.7196 224.499 75.9163C224.314 75.2917 224.056 74.6912 223.73 74.1272C223.153 72.9699 222.423 71.8956 221.559 70.9331C220.024 69.318 217.906 68.3299 215.729 67.7456C213.277 67.0872 210.722 66.8967 208.199 67.1842C207.542 67.2597 206.884 67.368 206.227 67.4107C205.392 67.4474 204.557 67.4332 203.724 67.368L199.42 67.1186L199.4 67.0529L198.683 67.0102C198.401 67.5716 198.683 68.238 199.035 68.7632C199.387 69.2884 199.792 69.8367 199.762 70.4571C199.732 71.0775 199.282 71.5765 198.93 72.0985C198.578 72.6204 198.312 73.3032 198.664 73.8153C198.713 73.8861 198.772 73.9502 198.838 74.0057C199.21 74.3898 199.857 74.4325 200.42 74.4259H200.518C199.102 76.2878 198.336 78.5617 198.338 80.8994C198.348 82.8972 198.908 84.8538 199.957 86.5549C201.006 88.2561 202.504 89.6362 204.287 90.5441C204.349 90.7575 204.411 90.9774 204.471 91.2006C205.122 93.5064 205.356 95.91 205.161 98.2979L205.086 98.462L205.039 98.288C205.039 98.288 199.969 101.722 198.463 102.631C196.957 103.54 195.445 106.623 195.372 107.463C195.3 108.304 192.926 120.978 192.926 120.978C192.443 122.255 192.046 123.562 191.735 124.891L188.707 127.547C188.707 127.547 182.459 128.108 180.651 127.688L180.703 128.036C179.109 127.673 177.484 127.453 175.85 127.38C174.958 127.265 174.051 127.386 173.22 127.731L173.157 127.76L173.108 127.783C172.156 127.913 171.226 128.174 170.346 128.558C170.24 128.601 170.145 128.643 170.053 128.686L170.073 128.256L163.312 127.908L159.86 127.209C159.86 127.209 158.636 126.224 157.916 126.368C157.196 126.513 155.687 125.528 155.687 125.528C155.343 125.259 154.97 125.028 154.575 124.839C154.46 124.044 154.388 123.562 154.388 123.562C154.388 123.562 151.702 112.919 149.689 106.662C148.341 102.483 146.401 100.425 145.257 99.5289C144.747 98.6426 144.412 98.0714 144.412 98.0714C144.191 97.3032 142.981 95.5732 142.672 95.5305C142.623 95.4518 142.587 95.4124 142.567 95.4124C142.501 95.4053 142.434 95.4155 142.373 95.4419C141.807 92.6319 141.478 89.1095 142.343 86.0402C143.527 85.0689 144.481 83.8483 145.137 82.4659C145.793 81.0834 146.135 79.5732 146.138 78.0435C146.138 77.9975 146.138 77.9516 146.138 77.9056C146.138 77.8596 146.138 77.8104 146.138 77.7644C146.137 75.3248 145.272 72.9641 143.695 71.1005L143.583 70.9758C143.613 70.9546 143.641 70.9316 143.668 70.9068C143.915 70.7068 144.104 70.4437 144.213 70.1454C144.323 69.8472 144.349 69.525 144.29 69.2129C144.142 68.5827 143.649 68.087 143.396 67.4895C143.243 67.0296 143.122 66.5603 143.031 66.0845C142.837 65.4088 142.481 64.7903 141.995 64.2823L142.044 64.4136C140.755 62.9659 138.539 62.247 136.543 62.5687C135.06 62.8051 133.679 63.4944 132.189 63.7078C131.121 63.8588 130.032 63.7603 128.957 63.8687C127.959 63.9711 126.988 64.2513 126.09 64.6959C125.855 64.7956 125.647 64.9484 125.481 65.1424C125.328 65.4022 125.226 65.6884 125.179 65.986C124.814 67.3155 123.656 68.2642 122.818 69.3738C121.86 70.6415 121.306 72.1671 121.226 73.753C121.194 74.156 121.233 74.5617 121.341 74.9511C121.414 75.1842 121.526 75.4042 121.578 75.6405C121.743 76.3627 121.365 77.0816 121.18 77.7973C120.948 78.7102 121.031 79.6744 121.414 80.5351C122.713 83.437 126.977 84.4054 127.865 87.4518C128.545 87.7635 129.262 87.9842 129.999 88.1083C130.059 88.4103 130.111 88.7156 130.154 89.0242C130.134 89.0326 130.115 89.0437 130.098 89.057C128.947 90.1764 128.661 92.3397 128.661 92.3397L128.523 92.4513C128.053 92.8387 126.445 94.1387 124.991 95.1399C123.265 96.3315 120.388 100.323 118.376 101.515C116.363 102.707 114.706 110.05 115.14 112.719C115.574 115.388 117.369 122.872 116.649 125.604C115.929 128.335 117.728 140.799 117.728 140.799C118.935 141.029 120.116 141.379 121.253 141.843L121.217 142.388L121.108 144.03C121.108 144.03 117.849 155.795 119.096 164.852C120.342 173.909 118.52 174.841 118.52 174.841C118.52 174.841 118.902 178.856 117.945 180.258C116.988 181.659 116.794 184.739 116.794 184.739C116.794 184.739 116.699 191.649 116.889 193.602C117.08 195.555 117.175 199.114 116.505 199.954C115.834 200.794 114.588 206.3 114.683 207.98C114.778 209.661 112.286 213.492 113.627 218.439C114.969 223.386 109.682 223.481 109.682 223.481C109.682 223.481 110.356 231.032 111.793 233.192L112.003 233.5C111.967 233.625 111.931 233.756 111.891 233.897C111.349 235.867 110.605 238.976 111.122 239.727C111.888 240.85 112.273 240.66 112.273 240.66L112.559 245.702C112.559 245.702 118.313 250.557 122.726 250.373C127.139 250.19 126.274 245.702 126.274 245.702L122.515 235.972L122.387 235.644L126.563 227.765C126.563 227.765 127.714 224.312 128 223.097C128.286 221.883 129.848 217.579 129.848 217.579C129.848 217.579 133.794 208.243 133.876 207.12C133.958 205.998 134.261 199.934 135.027 198.716C135.793 197.499 137.904 190.51 137.904 190.51L137.957 190.556C138.315 190.907 138.571 191.349 138.697 191.834C138.823 192.319 138.815 192.829 138.674 193.31C138.19 195.082 138.48 198.723 138.48 198.723C138.48 198.723 138.289 201.805 137.904 203.394C137.519 204.983 137.427 217.96 138.098 221.039C138.634 223.504 138.618 228.12 138.591 229.866C138.141 231.721 137.746 234.025 138.48 234.298C139.729 234.767 146.059 234.672 146.059 234.672C146.059 234.672 148.742 233.737 152.389 237.006C156.035 240.276 167.251 236.074 167.251 236.074C167.251 236.074 170.704 235.138 163.894 232.433C159.143 230.546 156.075 229.288 154.069 227.943C154.115 227.854 154.164 227.765 154.207 227.67C154.207 227.67 151.425 225.044 153.727 220.389C156.029 215.734 155.933 211.798 155.933 211.798L156.318 196.11L155.167 175.284L154.276 153.428L154.434 153.375C154.585 157.393 155.371 166.959 159.485 165.105C164.664 162.771 160.251 156.701 160.251 156.701L157.926 152.177L158.62 151.941L156.019 143.55C155.769 141.913 155.736 140.249 155.92 138.603C155.972 137.64 155.952 136.675 155.861 135.714C159.268 135.12 162.53 134.49 163.115 134.634C163.805 134.802 167.669 134.835 169.188 134.841C168.692 135.229 168.294 135.613 168.294 135.613L174.479 139.769C174.479 139.769 176.577 138.623 177.014 137.408C177.444 137.3 177.842 137.088 178.172 136.791C178.237 138.226 178.619 139.778 179.947 139.814C180.279 139.821 180.609 139.756 180.914 139.624L191.028 137.625L190.16 143.038L190.765 144.112C190.46 148.678 190.108 153.526 189.799 157.791L189.657 158.723L189.73 158.739C189.25 165.305 188.865 170.278 188.865 170.278C189.431 169.2 190.31 168.318 191.387 167.747L191.453 177.49C191.453 177.49 191.959 192.896 191.959 194.997C191.959 197.098 192.028 201.789 192.028 201.789C192.028 201.789 193.11 207.531 193.754 209.421C194.399 211.312 194.905 219.926 194.905 219.926C194.905 219.926 196.418 222.306 195.77 223.209C195.122 224.112 198.289 226.078 198.289 226.078C198.289 226.078 196.273 228.809 196.128 230.631C196.112 230.841 196.319 231.064 196.694 231.288C196.576 231.383 196.454 231.478 196.319 231.57C195.385 232.194 194.017 232.627 191.959 232.45C186.346 231.957 182.39 237.141 185.843 238.191C189.296 239.242 199.653 239.452 199.653 239.452C199.653 239.452 202.79 237.499 205.243 238.378C205.207 240.433 205.309 242.318 205.326 242.567L205.296 242.59C203.829 243.903 201.021 246.162 198.279 247.084C194.333 248.414 193.458 253.807 198.565 254.506C203.672 255.206 211.152 253.666 211.152 253.666C211.152 253.666 215.036 250.797 217.985 250.167C220.935 249.536 223.453 248.135 222.95 246.454C222.622 245.38 221.776 242.567 221.204 240.676C221.171 240.562 221.139 240.453 221.106 240.348C221.194 240.151 221.283 239.947 221.365 239.737C221.365 239.737 219.856 231.895 221.079 229.935C222.303 227.975 221.655 208.364 221.655 208.364C221.655 208.364 219.567 203.394 220.649 200.384C221.73 197.374 218.922 193.1 218.922 193.1C218.922 193.1 219.228 184.535 220.05 179.762C220.087 179.558 220.124 179.361 220.159 179.171C221.535 178.763 222.876 178.246 224.17 177.625C224.17 177.625 224.89 166.838 225.321 164.389C225.364 164.159 225.423 163.788 225.495 163.306L225.824 161.576L226.212 159.606L227.528 152.893L229.902 149.827L236.018 143.59C236.018 143.59 237.488 140.294 236.767 134.06ZM142.448 95.5437L142.402 95.5765C142.395 95.5528 142.39 95.5287 142.386 95.5043C142.405 95.52 142.426 95.5332 142.448 95.5437ZM202.876 103.189L202.639 103.705L203.504 102.844L202.33 104.158L202.725 103.33L202.876 103.189ZM197.036 115.237C196.809 115.837 196.566 116.487 196.313 117.164L196.776 115.782L197.036 115.237Z" fill="url(#paint0_linear_895_55968)"/>
<path d="M178.165 134.877C178.165 134.877 177.359 140.231 179.776 140.3C182.193 140.369 183.807 136.171 183.807 136.171L182.821 132.812L178.165 134.877Z" fill="#585B8A"/>
<path opacity="0.2" d="M178.165 134.877C178.165 134.877 177.359 140.231 179.776 140.3C182.193 140.369 183.807 136.171 183.807 136.171L182.821 132.812L178.165 134.877Z" fill="black"/>
<path d="M124.031 250.77C119.73 250.958 114.121 246.106 114.121 246.106L113.841 241.067C113.841 241.067 113.469 241.254 112.72 240.134C112.217 239.383 112.94 236.267 113.469 234.308C113.726 233.349 113.936 232.666 113.936 232.666L123.374 235.187L123.824 236.379L127.487 246.102C127.487 246.102 128.329 250.583 124.031 250.77Z" fill="#636992"/>
<path d="M167.393 236.497C167.393 236.497 156.459 240.696 152.925 237.43C149.39 234.163 146.756 235.096 146.756 235.096C146.756 235.096 140.587 235.191 139.371 234.721C138.654 234.449 139.042 232.115 139.489 230.257C139.792 228.973 140.12 227.913 140.12 227.913C140.12 227.913 150.866 224.272 152.55 226.511C153.055 227.169 153.66 227.745 154.342 228.218C156.288 229.623 159.33 230.897 164.141 232.857C170.757 235.562 167.393 236.497 167.393 236.497Z" fill="#636992"/>
<path d="M157.581 151.216L160.57 157.187C160.57 157.187 164.871 163.253 159.823 165.584C154.776 167.915 154.871 152.151 154.871 152.151L157.581 151.216Z" fill="#FFD6D6"/>
<path d="M145.056 99.4336C145.056 99.4336 148.328 100.927 150.291 107.178C152.254 113.428 154.871 124.067 154.871 124.067C154.871 124.067 156.647 136.102 156.364 139.089C156.184 140.734 156.216 142.396 156.46 144.033L158.982 152.43L153.934 154.203L146.177 124.533L145.056 99.4336Z" fill="#DCE6F2"/>
<path opacity="0.05" d="M145.056 99.4336C145.056 99.4336 148.328 100.927 150.291 107.178C152.254 113.428 154.871 124.067 154.871 124.067C154.871 124.067 156.647 136.102 156.364 139.089C156.184 140.734 156.216 142.396 156.46 144.033L158.982 152.43L153.934 154.203L146.177 124.533L145.056 99.4336Z" fill="black"/>
<path opacity="0.1" d="M123.374 235.191L123.824 236.382L123.272 237.436C121.121 238.368 115.794 237.623 115.794 237.623C115.794 237.623 114.808 236.372 113.46 234.314C113.716 233.356 113.927 232.673 113.927 232.673L123.374 235.191Z" fill="black"/>
<path opacity="0.1" d="M154.684 228.658C151.958 234.823 142.692 232.535 140.117 231.764C139.693 231.636 139.459 231.55 139.459 231.55C139.459 231.55 139.476 231.048 139.482 230.257C139.785 228.973 140.114 227.913 140.114 227.913C140.114 227.913 150.86 224.272 152.543 226.511C153.049 227.169 153.653 227.745 154.335 228.218C154.438 228.375 154.555 228.522 154.684 228.658Z" fill="black"/>
<path d="M154.214 220.822C151.971 225.484 154.684 228.1 154.684 228.1C151.958 234.262 142.692 231.977 140.117 231.202C139.693 231.078 139.459 230.992 139.459 230.992C139.459 230.992 139.647 224.551 138.993 221.472C138.338 218.393 138.43 205.426 138.805 203.841C139.18 202.255 139.364 199.173 139.364 199.173C139.364 199.173 139.085 195.536 139.552 193.763C139.692 193.284 139.701 192.776 139.579 192.292C139.456 191.809 139.206 191.366 138.854 191.012L138.805 190.963C138.805 190.963 136.75 197.961 136 199.169C135.251 200.378 134.974 206.447 134.879 207.567C134.784 208.686 130.953 218.019 130.953 218.019C130.953 218.019 129.46 222.309 129.18 223.521C128.901 224.732 127.776 228.189 127.776 228.189L123.272 236.868C121.121 237.801 115.794 237.055 115.794 237.055C115.794 237.055 114.768 235.742 113.364 233.602C111.96 231.462 111.309 223.901 111.309 223.901C111.309 223.901 116.449 223.806 115.14 218.863C113.831 213.919 116.261 210.091 116.169 208.41C116.077 206.73 117.29 201.228 117.945 200.387C118.599 199.547 118.504 196.002 118.316 194.042C118.129 192.082 118.224 185.179 118.224 185.179C118.224 185.179 118.412 182.099 119.345 180.701C120.279 179.302 119.908 175.288 119.908 175.288C119.908 175.288 121.68 174.355 120.467 165.305C119.253 156.254 122.44 144.499 122.44 144.499L122.548 142.858L122.719 140.199C122.719 140.199 149.449 138.518 151.6 140.57C152.162 141.139 152.623 141.799 152.964 142.523C153.7 144.102 154.22 145.772 154.51 147.49L155.631 175.76L156.752 196.566L156.377 212.241C156.377 212.241 156.459 216.154 154.214 220.822Z" fill="#565988"/>
<path opacity="0.1" d="M146.289 165.026L143.484 225.671L140.117 231.199C139.693 231.074 139.46 230.989 139.46 230.989C139.46 230.989 139.647 224.548 138.993 221.469C138.338 218.39 138.43 205.423 138.805 203.838C139.18 202.252 139.364 199.169 139.364 199.169C139.364 199.169 139.085 195.532 139.552 193.76C139.692 193.281 139.702 192.773 139.579 192.289C139.456 191.805 139.206 191.363 138.854 191.009L138.901 190.68L146.289 165.026Z" fill="black"/>
<path opacity="0.1" d="M116.084 230.152C116.084 230.152 123.374 227.26 124.495 228.182C125.616 229.105 115.899 230.513 115.899 230.513L116.084 230.152Z" fill="black"/>
<path opacity="0.1" d="M152.066 222.5C151.787 222.595 144.684 225.126 145.339 227.818C145.993 230.509 152.066 222.5 152.066 222.5Z" fill="black"/>
<path d="M129.871 84.4612C129.871 84.4612 132.252 90.1994 130.992 93.1407C129.733 96.0821 144.589 101.118 144.589 101.118C144.589 101.118 140.245 89.9204 144.451 83.6208C148.657 77.3213 129.871 84.4612 129.871 84.4612Z" fill="#FFD6D6"/>
<path d="M216.857 250.583C213.983 251.214 210.199 254.083 210.199 254.083C210.199 254.083 202.909 255.622 197.93 254.923C192.952 254.224 193.797 248.834 197.651 247.504C200.324 246.585 203.063 244.317 204.494 243.017C205.125 242.436 205.5 242.032 205.5 242.032L219.452 239.232C219.452 239.232 219.679 240.01 219.994 241.083C220.553 242.977 221.379 245.787 221.694 246.858C222.184 248.555 219.731 249.953 216.857 250.583Z" fill="#505484"/>
<path d="M213.283 239.806C213.283 239.806 207.394 240.436 204.941 239.038C202.488 237.64 198.983 239.878 198.983 239.878C198.983 239.878 188.888 239.668 185.524 238.618C182.16 237.567 186.014 232.381 191.482 232.88C193.475 233.06 194.823 232.624 195.734 232C196.685 231.349 197.348 230.356 197.585 229.229L209.423 229.928L211.067 234.117L213.283 239.806Z" fill="#505484"/>
<path opacity="0.1" d="M211.248 236.028C211.248 236.028 197.49 233.782 195.734 232C196.685 231.349 197.348 230.356 197.585 229.229L209.423 229.928L211.067 234.117L211.248 236.028Z" fill="black"/>
<path d="M190.851 157.446L190.992 177.947C190.992 177.947 191.482 193.343 191.482 195.444C191.482 197.545 191.551 202.229 191.551 202.229C191.551 202.229 192.604 207.967 193.235 209.858C193.866 211.749 194.356 220.363 194.356 220.363C194.356 220.363 195.829 222.743 195.198 223.646C194.567 224.548 197.651 226.515 197.651 226.515C197.651 226.515 195.678 229.246 195.55 231.065C195.422 232.883 211.248 235.467 211.248 235.467L205.082 172.35L200.173 156.537L190.851 157.446Z" fill="#575988"/>
<path opacity="0.1" d="M190.851 157.446L190.992 177.947C190.992 177.947 191.482 193.343 191.482 195.444C191.482 197.545 191.551 202.229 191.551 202.229C191.551 202.229 192.604 207.967 193.235 209.858C193.866 211.749 194.356 220.363 194.356 220.363C194.356 220.363 195.829 222.743 195.198 223.646C194.567 224.548 197.651 226.515 197.651 226.515C197.651 226.515 195.678 229.246 195.55 231.065C195.422 232.883 211.248 235.467 211.248 235.467L205.082 172.35L200.173 156.537L190.851 157.446Z" fill="black"/>
<path opacity="0.1" d="M219.994 241.1C215.414 252.001 204.52 243.588 204.52 243.588C204.52 243.588 204.52 243.378 204.494 243.017C205.125 242.436 205.5 242.032 205.5 242.032L219.452 239.232C219.452 239.232 219.678 240.026 219.994 241.1Z" fill="black"/>
<path d="M220.152 240.158C215.664 251.647 204.52 243.027 204.52 243.027C204.52 243.027 204.168 237.078 204.872 234.35C205.576 231.622 204.099 223.432 204.099 223.432C204.099 223.432 203.257 216.154 202.488 214.477C201.718 212.799 201.788 209.438 201.788 209.159C201.788 208.88 202.067 206.638 201.436 205.098C200.804 203.558 200.449 199.78 200.449 199.78C200.449 199.78 200.449 194.462 199.818 191.314L197.644 180.481L193.718 158.296L194.945 158.086L216.92 154.239C216.92 154.239 221.056 175.248 219.652 177.402C219.35 177.874 219.084 178.908 218.863 180.241C218.061 185.008 217.762 193.566 217.762 193.566C217.762 193.566 220.494 197.833 219.445 200.844C218.396 203.854 220.432 208.821 220.432 208.821C220.432 208.821 221.063 228.415 219.869 230.375C218.676 232.335 220.152 240.158 220.152 240.158Z" fill="#575988"/>
<path d="M218.048 96.916C218.048 96.916 198.141 110.91 202.626 103.911C205.043 100.143 204.599 95.3435 203.652 91.7194C203.173 89.8761 202.512 88.0848 201.679 86.3718C201.679 86.3718 218.593 79.1892 216.351 85.6267C215.825 87.1264 215.602 88.715 215.693 90.3013C215.828 92.6857 216.645 94.9815 218.048 96.916Z" fill="#D28690"/>
<path d="M182.206 128.965C182.206 128.965 173.795 126.539 172.394 128.919C170.993 131.299 172.815 136.522 175.354 137.362C177.892 138.203 183.719 134.516 183.719 134.516L182.206 128.965Z" fill="#D28690"/>
<path d="M191.834 124.839L188.329 128.059C188.329 128.059 182.229 128.617 180.477 128.197C180.477 128.197 182.091 138.974 179.776 140.303L193.935 137.434L191.834 124.839Z" fill="#585B8A"/>
<path opacity="0.1" d="M191.834 124.839L188.329 128.059C188.329 128.059 182.229 128.617 180.477 128.197C180.477 128.197 182.091 138.974 179.776 140.303L193.935 137.434L191.834 124.839Z" fill="black"/>
<path opacity="0.1" d="M146.832 78.5818C146.832 81.3678 145.723 84.0397 143.75 86.0097C141.776 87.9798 139.1 89.0865 136.309 89.0865C130.91 86.4964 125.787 84.3889 125.787 78.5818C125.731 77.1684 125.962 75.7583 126.465 74.4361C126.968 73.1138 127.733 71.9066 128.715 70.8869C129.697 69.8672 130.875 69.0559 132.179 68.5017C133.482 67.9475 134.884 67.6619 136.301 67.6619C137.718 67.6619 139.12 67.9475 140.424 68.5017C141.727 69.0559 142.905 69.8672 143.887 70.8869C144.869 71.9066 145.634 73.1138 146.138 74.4361C146.641 75.7583 146.871 77.1684 146.815 78.5818H146.832Z" fill="black"/>
<path d="M146.832 78.2994C146.833 80.7699 145.961 83.1616 144.369 85.0527C142.776 86.9438 140.566 88.2129 138.128 88.6361C135.69 89.0593 133.181 88.6095 131.043 87.366C128.904 86.1224 127.275 84.1651 126.441 81.8391C125.607 79.5131 125.623 76.9678 126.485 74.6522C127.347 72.3366 129.001 70.3993 131.154 69.1821C133.308 67.9649 135.822 67.5458 138.255 67.9989C140.688 68.4519 142.882 69.748 144.451 71.6585C145.987 73.532 146.828 75.878 146.832 78.2994Z" fill="#FFD6D6"/>
<path opacity="0.1" d="M152.964 142.533C151.923 143.178 150.834 143.742 149.706 144.22C149.706 144.22 144.379 143.449 143.609 144.358C142.84 145.267 136.046 145.618 136.046 145.618C136.046 145.618 125.672 145.129 124.13 143.8C123.653 143.414 123.122 143.1 122.555 142.867L122.726 140.208C122.726 140.208 149.456 138.528 151.606 140.579C152.166 141.149 152.625 141.81 152.964 142.533Z" fill="black"/>
<path d="M154.263 140.652C154.053 141.84 149.705 143.659 149.705 143.659C149.705 143.659 144.379 142.89 143.609 143.8C142.84 144.709 136.046 145.06 136.046 145.06C136.046 145.06 125.672 144.568 124.13 143.238C122.588 141.909 119.151 141.269 119.151 141.269C119.151 141.269 117.399 128.814 118.103 126.086C118.806 123.358 117.05 115.867 116.629 113.208C116.208 110.549 117.82 103.202 119.783 102.014C121.746 100.826 124.551 96.8338 126.231 95.6454C127.648 94.6442 129.213 93.3475 129.67 92.9569L129.805 92.8453C129.805 92.8453 130.088 90.6754 131.209 89.5625C132.331 88.4497 142.633 96.6303 142.633 96.6303C142.633 96.6303 142.705 97.2605 143.405 96.0722C143.563 95.8063 144.921 97.7628 145.158 98.59C145.158 98.59 150.764 108.389 151.116 110.408C151.468 112.427 152.938 119.015 153.217 120.624C153.29 121.037 153.408 122.488 153.546 124.432C153.572 124.812 153.595 125.216 153.625 125.636C153.832 128.86 154.056 132.977 154.191 136.089C154.191 136.443 154.22 136.785 154.23 137.113C154.301 138.291 154.312 139.472 154.263 140.652Z" fill="#DCE6F2"/>
<path opacity="0.1" d="M118.668 115.388C118.668 115.388 122.522 120.075 123.784 120.075C125.047 120.075 118.668 115.388 118.668 115.388Z" fill="black"/>
<path opacity="0.1" d="M126.787 125.466C126.787 125.466 120.477 132.323 121.319 133.584C122.16 134.845 126.787 125.466 126.787 125.466Z" fill="black"/>
<path opacity="0.1" d="M122.16 139.112C122.16 139.112 129.394 131.204 129.723 128.476L122.16 139.112Z" fill="black"/>
<path opacity="0.1" d="M131.272 139.67C131.272 139.67 139.614 135.261 140.314 131.762C141.015 128.262 131.272 139.67 131.272 139.67Z" fill="black"/>
<path opacity="0.1" d="M141.857 97.1262L140.699 99.9231L142.626 100.832L144.52 106.118C144.52 106.118 149.742 116.544 149.531 121.967C149.321 127.39 150.478 135.541 150.478 135.541L153.49 134.983L152.07 119.032C151.849 116.562 151.229 114.144 150.235 111.872C147.828 106.37 143.349 96.2136 143.067 96.2136C142.682 96.2136 142.952 96.3548 142.952 96.3548L141.857 97.1262Z" fill="black"/>
<path d="M142.136 96.8439L140.979 99.644L142.909 100.553L144.8 105.839C144.8 105.839 150.021 116.264 149.811 121.688C149.6 127.111 150.758 135.262 150.758 135.262L153.773 134.704L152.349 118.753C152.131 116.283 151.512 113.865 150.518 111.593C148.111 106.088 143.632 95.9346 143.353 95.9346C142.965 95.9346 143.234 96.0757 143.234 96.0757L142.136 96.8439Z" fill="#575989"/>
<path d="M176.271 137.97C174.804 137.858 171.286 136.082 169.889 135.343L169.297 135.015L169.369 129.595C169.715 129.393 170.073 129.212 170.441 129.054C172.309 128.24 176.139 127.133 178.06 130.695C180.651 135.471 178.129 138.094 176.271 137.97Z" fill="#FFD6D6"/>
<path opacity="0.1" d="M144.451 71.6584C144.3 71.7527 144.135 71.8204 143.961 71.8587C142.741 72.1246 141.354 71.0774 140.308 71.7504C139.67 72.164 139.522 73.0208 139.437 73.7758C139.287 75.0889 139.138 76.3932 138.989 77.6888C138.958 78.1501 138.861 78.6044 138.7 79.038C138.184 80.2165 136.766 80.7713 135.474 80.7516C134.968 80.7876 134.468 80.6224 134.083 80.292C133.856 80.0622 133.735 79.7405 133.485 79.5304C131.841 78.155 131.341 81.5263 131.775 82.4849C132.472 84.0507 134.948 85.5608 133.909 87.5501C133.734 87.8734 133.469 88.1392 133.146 88.315C131.58 87.8254 130.151 86.9771 128.972 85.8377C127.793 84.6983 126.897 83.2994 126.357 81.7529C125.816 80.2063 125.645 78.5549 125.857 76.9306C126.069 75.3062 126.659 73.754 127.58 72.3979C128.5 71.0418 129.726 69.9194 131.158 69.1203C132.59 68.3212 134.19 67.8676 135.829 67.7958C137.469 67.7239 139.102 68.0358 140.599 68.7065C142.096 69.3772 143.415 70.3881 144.451 71.6584Z" fill="black"/>
<path d="M133.205 79.5175C133.452 79.7243 133.577 80.046 133.804 80.2758C134.189 80.6058 134.689 80.771 135.195 80.7354C136.487 80.7551 137.904 80.2036 138.417 79.0185C138.581 78.5868 138.679 78.1332 138.71 77.6726L139.157 73.7596C139.243 73.0046 139.387 72.1478 140.028 71.7342C141.074 71.0776 142.462 72.1084 143.682 71.8425C144.121 71.7309 144.502 71.4564 144.746 71.0747C144.991 70.693 145.08 70.2328 144.997 69.7875C144.855 69.1605 144.375 68.6648 144.129 68.0674C143.979 67.6083 143.86 67.1401 143.77 66.6656C143.09 64.1182 140.094 62.687 137.49 63.1137C136.043 63.3534 134.698 64.0427 133.248 64.2528C132.209 64.4038 131.147 64.3054 130.098 64.417C129.123 64.5174 128.176 64.7967 127.303 65.2409C127.074 65.3422 126.871 65.495 126.711 65.6874C126.562 65.9472 126.462 66.232 126.415 66.5278C126.063 67.8408 124.932 68.8093 124.113 69.9155C123.177 71.1884 122.635 72.7075 122.555 74.2848C122.523 74.6877 122.56 75.093 122.667 75.483C122.736 75.7128 122.844 75.936 122.897 76.1724C123.058 76.8913 122.69 77.6102 122.509 78.3258C122.284 79.2391 122.365 80.2006 122.739 81.0636C124.002 83.9623 128.161 84.9307 129.026 87.9738C129.794 88.3413 130.623 88.5639 131.472 88.6303C132.321 88.6467 133.235 88.2823 133.63 87.5306C134.665 85.561 132.193 84.0312 131.496 82.4686C131.058 81.5068 131.548 78.1387 133.205 79.5175Z" fill="#353045"/>
<path opacity="0.1" d="M216.367 85.6267C215.842 87.1264 215.618 88.7151 215.71 90.3013C215.203 90.7313 214.651 89.4445 214.066 89.776C212.461 90.7018 210.606 92.9045 208.62 92.9045C206.898 92.9056 205.2 92.4995 203.665 91.7194C203.186 89.8761 202.525 88.0848 201.692 86.3719C201.692 86.3719 218.61 79.1892 216.367 85.6267Z" fill="black"/>
<path d="M219.544 81.4279C219.544 83.5873 218.902 85.6982 217.701 87.4937C216.499 89.2893 214.791 90.6887 212.793 91.5151C210.794 92.3415 208.595 92.5577 206.474 92.1364C204.352 91.7151 202.403 90.6752 200.874 89.1483C199.344 87.6213 198.303 85.6759 197.881 83.5579C197.459 81.44 197.675 79.2447 198.503 77.2496C199.331 75.2545 200.733 73.5493 202.531 72.3496C204.33 71.1499 206.444 70.5095 208.607 70.5095C210.044 70.5091 211.466 70.7912 212.793 71.3397C214.12 71.8883 215.326 72.6925 216.342 73.7065C217.357 74.7204 218.163 75.9242 218.712 77.2491C219.262 78.5739 219.544 79.9939 219.544 81.4279Z" fill="#D28690"/>
<path d="M219.077 99.342C219.077 99.342 217.019 101.581 216.739 101.765C216.46 101.948 210.491 127.042 210.386 127.334C210.281 127.626 203.28 150.283 203.28 150.283L192.064 155.788L193.001 128.076L201.222 105.221C201.222 105.221 203.935 102.142 204.773 101.023C205.612 99.9033 216.081 93.1836 216.081 93.1836L217.87 96.8635L219.077 99.342Z" fill="#F0F3F7"/>
<path opacity="0.1" d="M217.594 97.4248L204.698 106.643L204.49 101.581C205.332 100.461 215.798 93.7449 215.798 93.7449L217.594 97.4248Z" fill="black"/>
<path d="M217.873 96.8635L204.977 106.081L204.776 101.023C205.618 99.9 216.085 93.1836 216.085 93.1836L217.873 96.8635Z" fill="#F0F3F7"/>
<path d="M204.346 98.7705L204.777 101.022L201.893 103.947L204.194 98.8033C204.194 98.8033 199.262 102.234 197.782 103.143C196.303 104.052 194.823 107.132 194.767 107.972C194.711 108.812 192.383 121.477 192.383 121.477C192.383 121.477 190.631 126.165 191.124 127.494C191.617 128.824 188.46 170.741 188.46 170.741C188.882 169.927 189.479 169.216 190.208 168.658C190.936 168.1 191.779 167.71 192.676 167.514L191.551 142.743C191.551 142.743 192.919 126.263 192.988 126.053C193.057 125.843 196.178 116.29 196.178 116.29L204.346 98.7705Z" fill="#585B8A"/>
<path opacity="0.1" d="M205.059 101.302L204.836 105.898C204.836 105.898 201.715 115.729 200.666 117.338C199.617 118.946 196.424 128.535 196.424 128.535L194.626 145.192L191.541 146.594L190.022 143.8L192.548 127.715C192.548 127.715 197.312 114.141 198.016 112.739L201.531 105.346L205.059 101.302Z" fill="black"/>
<path d="M204.776 101.023L204.556 105.619C204.556 105.619 201.436 115.45 200.383 117.059C199.331 118.667 196.145 128.256 196.145 128.256L194.356 144.909L191.272 146.308L189.73 143.511L192.255 127.426C192.255 127.426 197.02 113.848 197.72 112.45L201.261 105.067L204.776 101.023Z" fill="#E10600"/>
<path d="M168.422 136.102L174.449 140.267C174.449 140.267 178.701 137.887 176.225 136.348C173.749 134.808 171.552 134.575 170.757 134.575C169.961 134.575 168.422 136.102 168.422 136.102Z" fill="#D28690"/>
<path d="M172.924 128.4C172.789 128.484 172.678 128.6 172.602 128.739C172.525 128.877 172.485 129.033 172.486 129.191C172.486 130.468 172.631 133.85 173.703 132.323C175.018 130.455 174.778 128.778 176.787 129.989C178.036 130.766 179.129 131.767 180.01 132.944L179.451 128.932C179.451 128.932 175.321 126.897 172.924 128.4Z" fill="#D28690"/>
<path opacity="0.1" d="M219.659 177.388C219.356 177.861 219.09 178.895 218.87 180.228C206.578 183.908 197.585 176.128 197.585 176.128C196.497 172.447 195.608 168.71 194.922 164.934C194.701 163.64 194.751 161.132 194.955 158.073L216.93 154.226C216.93 154.226 221.063 175.219 219.659 177.388Z" fill="black"/>
<path d="M232.276 114.757C231.717 116.579 231.927 120.286 231.927 120.286L226.88 144.079C226.88 144.079 224.427 162.413 224.006 164.862C223.585 167.311 222.885 178.088 222.885 178.088C208.584 185.087 197.565 175.57 197.565 175.57C196.478 171.888 195.588 168.15 194.902 164.373C194.198 160.217 196.27 143.567 197.25 136.171C197.542 133.981 197.74 132.602 197.74 132.602L201.419 118.956C201.419 118.956 205.941 107.444 207.624 104.085C209.308 100.727 216.068 93.1834 216.068 93.1834C216.907 92.6516 218.248 94.5293 219.245 96.2396C219.998 97.533 220.56 98.7345 220.56 98.7345C220.56 98.7345 228.971 102.372 230.231 104.315C231.49 106.259 231.283 110.263 231.424 110.474C231.566 110.684 232.838 112.939 232.276 114.757Z" fill="#585B8A"/>
<path opacity="0.1" d="M212.441 106.291C212.441 106.291 213.073 110.001 211.455 111.12C209.893 112.204 198.266 135.028 197.542 136.453C197.835 134.26 198.032 132.881 198.032 132.881L201.712 119.238C201.712 119.238 206.236 107.726 207.917 104.364C209.597 101.003 216.364 93.4624 216.364 93.4624C217.203 92.9306 218.541 94.8084 219.537 96.5187C218.034 99.634 214.901 105.523 212.441 106.291Z" fill="black"/>
<path d="M212.162 106.012C212.162 106.012 212.79 109.722 211.175 110.841C209.561 111.961 197.99 134.746 197.256 136.171C197.549 133.981 197.746 132.602 197.746 132.602L201.426 118.956C201.426 118.956 205.947 107.444 207.631 104.085C209.314 100.727 216.075 93.1834 216.075 93.1834C216.913 92.6516 218.255 94.5293 219.251 96.2396C217.755 99.3516 214.618 105.244 212.162 106.012Z" fill="#585B8A"/>
<path d="M228.843 139.532L224.887 160.079V160.082L224.509 162.048V162.051L223.657 166.473L220.024 165.705L218.331 165.347L194.895 160.39L193.172 160.026L189.24 159.196L190.009 154.094L190.328 151.974L193.166 133.164L228.843 139.532Z" fill="#00BF6F"/>
<path d="M206.973 156.327C206.973 156.327 197.651 159.685 199.683 163.673C201.715 167.662 214.753 160.594 214.753 160.594L206.973 156.327Z" fill="#D28690"/>
<path opacity="0.1" d="M213.632 184.946C213.632 185.225 213.983 188.796 215.384 190.054C216.785 191.311 213.632 184.946 213.632 184.946Z" fill="black"/>
<path opacity="0.1" d="M204.24 197.61C204.24 197.61 205.921 202.229 212.579 204.12C219.238 206.011 204.24 197.61 204.24 197.61Z" fill="black"/>
<path opacity="0.1" d="M219.544 81.4281C219.544 83.3475 219.038 85.233 218.075 86.8946C217.113 88.5562 215.729 89.9351 214.062 90.8922C213.434 90.5413 212.877 90.0772 212.418 89.5233C211.941 88.9455 211.57 88.1577 211.856 87.4683C212.086 86.9135 212.694 86.5623 212.842 85.9878C212.912 85.6365 212.894 85.2734 212.79 84.9307C212.668 84.3891 212.553 83.8474 212.435 83.3091C212.333 82.8495 212.152 82.3078 211.695 82.1962C211.238 82.0846 210.856 82.4654 210.498 82.7477C209.62 83.4404 207.936 83.9098 206.881 83.3419C205.825 82.774 206.121 80.8733 205.95 79.8458C205.948 79.7565 205.926 79.6688 205.887 79.5889C205.847 79.5089 205.79 79.4386 205.72 79.3829C205.567 79.332 205.403 79.3207 205.243 79.3501C204.675 79.3501 204.217 78.8413 204.053 78.2963C203.937 77.74 203.873 77.174 203.862 76.6057C203.8 76.0378 203.593 75.4371 203.106 75.1449C202.717 74.9642 202.286 74.8938 201.86 74.9414L199.798 74.9644C201.166 73.1184 203.082 71.7498 205.273 71.0533C207.465 70.3568 209.821 70.3678 212.006 71.0847C214.191 71.8016 216.094 73.188 217.444 75.0467C218.794 76.9054 219.523 79.1418 219.527 81.4379L219.544 81.4281Z" fill="black"/>
<path d="M210.791 82.7475C211.149 82.4652 211.544 82.091 211.988 82.1993C212.431 82.3076 212.622 82.8558 212.724 83.3088L213.079 84.9272C213.184 85.2708 213.203 85.6349 213.135 85.9876C212.967 86.5653 212.362 86.9133 212.129 87.4681C211.843 88.1574 212.218 88.9453 212.691 89.5198C213.555 90.5589 214.749 91.2714 216.075 91.5386C216.421 91.6217 216.781 91.6295 217.13 91.5616C217.913 91.3811 218.446 90.6622 218.866 89.9892C221.04 86.608 222.911 82.9018 223.292 78.9034C223.397 78.0879 223.359 77.2604 223.181 76.4578C223.002 75.8339 222.751 75.2334 222.431 74.6687C221.871 73.5151 221.16 72.4409 220.317 71.4746C218.82 69.8661 216.755 68.878 214.634 68.2936C212.249 67.6328 209.758 67.4378 207.299 67.7192C206.641 67.7947 206.01 67.903 205.362 67.9457C204.548 67.9834 203.734 67.9703 202.922 67.9063L198.082 67.6174C197.806 68.1788 198.082 68.8451 198.411 69.3704C198.739 69.8956 199.147 70.4406 199.121 71.0643C199.094 71.688 198.651 72.1804 198.309 72.7056C197.967 73.2309 197.707 73.9104 198.049 74.4225C198.391 74.9346 199.088 74.9674 199.693 74.9609L202.133 74.9346C202.558 74.891 202.987 74.9648 203.372 75.148C203.859 75.4402 204.066 76.0442 204.129 76.6088C204.142 77.1768 204.206 77.7426 204.319 78.2994C204.487 78.8443 204.941 79.3597 205.51 79.3532C205.669 79.3214 205.834 79.3339 205.987 79.3893C206.056 79.4443 206.113 79.514 206.153 79.5934C206.193 79.6728 206.215 79.7601 206.217 79.8489C206.388 80.8764 206.072 82.7738 207.147 83.345C208.223 83.9162 209.913 83.4402 210.791 82.7475Z" fill="#663D5C"/>
<path opacity="0.1" d="M224.69 104.312C223.481 104.184 222.264 104.47 221.239 105.123C220.215 105.776 219.443 106.758 219.051 107.907C217.735 111.646 215.542 118.392 216.091 121.057C216.864 124.836 217.775 131.135 217.775 131.135C217.775 131.135 221.77 133.433 219.748 135.751C217.725 138.068 217.153 141.351 217.153 141.351C217.153 141.351 214.559 142.47 214 144.85C213.441 147.23 209.653 150.516 209.653 150.516L203.977 156.186C203.977 156.186 213.369 165.705 215.263 166.191L221.079 159.403L227.949 150.306L233.907 144.069C233.907 144.069 235.308 140.786 234.607 134.549C233.907 128.312 231.171 122.373 231.171 122.373L231.381 120.273C231.381 120.273 232.026 105.221 224.69 104.312Z" fill="black"/>
<path d="M225.249 104.312C224.041 104.185 222.826 104.472 221.802 105.125C220.779 105.778 220.008 106.759 219.616 107.906C218.301 111.645 216.108 118.391 216.657 121.057C217.426 124.835 218.337 131.135 218.337 131.135C218.337 131.135 222.332 133.433 220.31 135.75C218.288 138.068 217.719 141.351 217.719 141.351C217.719 141.351 215.124 142.47 214.562 144.85C214 147.23 210.218 150.516 210.218 150.516L204.54 156.185C204.54 156.185 213.931 165.705 215.825 166.191L221.642 159.402L228.494 150.306L234.452 144.069C234.452 144.069 235.856 140.786 235.153 134.549C234.449 128.312 231.72 122.373 231.72 122.373L231.93 120.272C231.93 120.272 232.585 105.221 225.249 104.312Z" fill="#585B8A"/>
<path opacity="0.1" d="M219.379 125.607C219.379 125.607 225.338 132.881 227.863 131.273C230.388 129.664 219.379 125.607 219.379 125.607Z" fill="black"/>
<path opacity="0.1" d="M221.622 120.007C222.253 120.217 227.442 127.426 230.106 126.572C232.769 125.719 221.622 120.007 221.622 120.007Z" fill="black"/>
<path opacity="0.1" d="M223.095 132.389C223.095 132.389 223.447 136.519 227.722 135.957C231.996 135.396 223.095 132.389 223.095 132.389Z" fill="black"/>
<path opacity="0.1" d="M204.204 99.0825L201.893 104.227L204.78 101.302L204.204 99.0825Z" fill="black"/>
<path d="M204.204 98.8035L201.893 103.947L204.78 101.023L204.204 98.8035Z" fill="#F0F3F7"/>
<path d="M194.895 160.39L193.172 160.026L190.009 154.094L190.328 151.974L194.895 160.39Z" fill="#FFCD00"/>
<path d="M224.887 160.082L224.509 162.048V162.052L220.024 165.705L218.33 165.348L224.887 160.082Z" fill="#FFCD00"/>
<path opacity="0.1" d="M154.22 137.126C153.352 137.27 152.51 137.402 151.741 137.5C147.466 138.061 137.299 133.023 137.299 133.023C137.299 133.023 124.893 122.666 121.318 112.87C117.744 103.074 125.593 101.604 125.593 101.604C128.552 99.9229 134.987 104.611 135.898 105.382C136.809 106.153 137.582 108.11 137.51 109.371C137.437 110.631 139.614 112.24 139.614 112.24C139.614 112.24 143.33 118.677 144.24 119.376C145.151 120.075 145.362 120.706 145.641 121.897C145.921 123.089 148.374 124.067 149.426 123.995C150.478 123.923 151.728 124.346 151.728 124.904C151.728 125.354 152.757 125.577 153.602 125.65C153.852 129.238 154.099 133.938 154.22 137.126Z" fill="black"/>
<path opacity="0.1" d="M154.181 136.102C153.523 136.207 152.892 136.302 152.3 136.381C148.025 136.942 137.861 131.903 137.861 131.903C137.861 131.903 125.455 121.546 121.881 111.751C118.306 101.955 126.155 100.484 126.155 100.484C129.115 98.8035 135.547 103.491 136.457 104.263C137.368 105.034 138.141 106.991 138.072 108.251C138.003 109.512 140.173 111.12 140.173 111.12C140.173 111.12 143.889 117.558 144.8 118.257C145.71 118.956 145.921 119.586 146.204 120.778C146.486 121.97 148.936 122.945 149.988 122.876C151.041 122.807 152.29 123.227 152.29 123.785C152.29 124.113 152.875 124.333 153.526 124.442C153.553 124.822 153.576 125.226 153.605 125.646C153.822 128.873 154.046 132.99 154.181 136.102Z" fill="black"/>
<path opacity="0.1" d="M170.441 129.054L170.175 135.343H169.889L169.297 135.015L169.369 129.595C169.715 129.392 170.073 129.212 170.441 129.054Z" fill="black"/>
<path d="M125.593 101.042C125.593 101.042 117.744 102.513 121.318 112.309C124.893 122.104 137.299 132.465 137.299 132.465C137.299 132.465 147.463 137.5 151.741 136.942C156.019 136.384 162.533 134.913 163.375 135.124C164.216 135.334 169.895 135.334 169.895 135.334L170.175 128.768L163.598 128.417L160.234 127.718C160.234 127.718 159.041 126.733 158.34 126.877C157.64 127.022 156.17 126.037 156.17 126.037C156.17 126.037 155.046 125.128 154.197 125.128C153.349 125.128 151.744 124.918 151.744 124.359C151.744 123.801 150.481 123.375 149.442 123.45C148.403 123.526 145.921 122.541 145.631 121.336C145.342 120.131 145.141 119.517 144.231 118.818C143.32 118.119 139.604 111.678 139.604 111.678C139.604 111.678 137.431 110.07 137.5 108.812C137.569 107.555 136.799 105.592 135.888 104.821C134.978 104.049 128.533 99.3648 125.593 101.042Z" fill="#DCE6F2"/>
<path opacity="0.1" d="M145.783 123.575C145.783 123.575 142.767 126.585 143.537 127.143L145.783 123.575Z" fill="black"/>
<path opacity="0.1" d="M149.005 125.955C149.005 125.955 145.079 128.965 146.131 129.175C147.184 129.385 149.005 125.955 149.005 125.955Z" fill="black"/>
<path opacity="0.1" d="M142.343 130.419C142.906 130.702 151.244 135.672 154.401 135.599L142.343 130.419Z" fill="black"/>
<path opacity="0.1" d="M142.909 97.1948C142.909 97.1948 141.436 102.024 140.873 102.024C140.433 102.024 133.034 96.0426 129.947 93.528L130.081 93.4164C130.081 93.4164 130.361 91.2465 131.482 90.1337C132.604 89.0208 142.909 97.1948 142.909 97.1948Z" fill="black"/>
<path d="M142.626 96.6335C142.626 96.6335 141.156 101.462 140.594 101.462C140.15 101.462 132.752 95.4813 129.664 92.9667L129.799 92.8551C129.799 92.8551 130.082 90.6852 131.203 89.5724C132.324 88.4595 142.626 96.6335 142.626 96.6335Z" fill="#DCE6F2"/>
<g opacity="0.15">
<path opacity="0.15" d="M122.775 81.0278C123.762 83.2765 126.478 84.3664 128.053 86.1587C127.116 83.956 124.377 82.876 122.775 81.0278Z" fill="black"/>
<path opacity="0.15" d="M132.827 86.2077C132.436 86.9594 131.512 87.3238 130.67 87.3074C129.922 87.2538 129.189 87.067 128.506 86.7559C128.754 87.1203 128.943 87.5213 129.065 87.9442C129.833 88.3125 130.663 88.5352 131.512 88.6008C132.364 88.6205 133.278 88.2561 133.669 87.5011C134.297 86.3029 133.643 85.2787 132.876 84.3103C133.019 84.6079 133.089 84.9351 133.081 85.2649C133.072 85.5948 132.985 85.9179 132.827 86.2077Z" fill="black"/>
<path opacity="0.15" d="M145.03 69.7547C144.888 69.1245 144.408 68.6288 144.162 68.0346C144.011 67.5749 143.891 67.1055 143.803 66.6296C143.616 65.9567 143.27 65.3386 142.794 64.8274C142.86 64.989 142.916 65.1545 142.961 65.3231C143.054 65.801 143.177 66.2725 143.33 66.7347C143.576 67.3288 144.056 67.8245 144.198 68.4548C144.281 68.9001 144.191 69.3603 143.947 69.742C143.703 70.1237 143.322 70.3982 142.882 70.5098C141.666 70.7757 140.278 69.7252 139.233 70.4014C138.591 70.8118 138.443 71.6686 138.358 72.4236C138.211 73.7367 138.062 75.0421 137.911 76.3399C137.881 76.8003 137.784 77.2538 137.621 77.6858C137.105 78.8676 135.688 79.4224 134.396 79.4027C133.891 79.4363 133.393 79.2714 133.008 78.9431C132.821 78.6788 132.62 78.4245 132.406 78.1815C130.762 76.8027 130.262 80.1741 130.696 81.1359C130.914 81.5686 131.183 81.9732 131.499 82.3407C131.137 81.2574 131.643 78.1388 133.248 79.4749C133.462 79.7171 133.662 79.9714 133.846 80.2365C134.233 80.5643 134.732 80.7292 135.237 80.696C136.53 80.7157 137.947 80.161 138.463 78.9792C138.626 78.5461 138.723 78.0915 138.752 77.63C138.902 76.3169 139.051 75.0126 139.2 73.717C139.285 72.962 139.433 72.1052 140.071 71.6948C141.12 71.0186 142.508 72.0691 143.724 71.7999C144.161 71.687 144.538 71.4132 144.78 71.0337C145.022 70.6543 145.111 70.1973 145.03 69.7547Z" fill="black"/>
</g>
<path opacity="0.1" d="M217.831 90.7248C217.481 90.7899 217.121 90.7809 216.775 90.6985C215.451 90.4314 214.258 89.7202 213.395 88.6829C212.918 88.1051 212.543 87.3173 212.833 86.6279C213.063 86.0731 213.668 85.7252 213.819 85.1474C213.887 84.7947 213.868 84.4307 213.763 84.0871L213.408 82.4687C213.306 82.0091 213.129 81.4675 212.672 81.3591C212.214 81.2508 211.833 81.625 211.475 81.9074C210.597 82.6 208.91 83.0727 207.858 82.5015C206.805 81.9303 207.098 80.0329 206.927 79.0054C206.924 78.9168 206.902 78.8298 206.862 78.7504C206.823 78.6711 206.766 78.6013 206.697 78.5458C206.543 78.4923 206.377 78.4798 206.217 78.5097C205.648 78.5097 205.194 78.0009 205.026 77.456C204.912 76.8993 204.85 76.3334 204.839 75.7654C204.773 75.2007 204.569 74.5967 204.079 74.3046C203.693 74.123 203.265 74.0492 202.84 74.0912L200.4 74.1174C199.798 74.1174 199.085 74.078 198.756 73.5791C198.427 73.0801 198.67 72.371 199.015 71.8622C199.361 71.3534 199.798 70.8478 199.828 70.2208C199.857 69.5938 199.45 69.0522 199.117 68.5269C198.927 68.2397 198.787 67.9222 198.703 67.5881L198.003 67.5454C197.73 68.1035 198.003 68.7699 198.332 69.2984C198.66 69.8269 199.071 70.3686 199.042 70.989C199.012 71.6094 198.575 72.1084 198.23 72.6304C197.884 73.1523 197.631 73.8351 197.973 74.3472C198.315 74.8593 199.009 74.8954 199.617 74.8889L202.057 74.8593C202.482 74.8182 202.911 74.8931 203.297 75.076C203.787 75.3682 203.994 75.9722 204.056 76.5368C204.067 77.1051 204.131 77.6711 204.247 78.2274C204.411 78.7691 204.869 79.2877 205.437 79.2779C205.597 79.2497 205.761 79.2622 205.914 79.314C205.984 79.37 206.04 79.4403 206.08 79.5202C206.12 79.6001 206.142 79.6877 206.144 79.7769C206.315 80.8011 206 82.7018 207.075 83.273C208.15 83.8442 209.827 83.3715 210.692 82.6788C211.05 82.3965 211.448 82.0223 211.892 82.1273C212.336 82.2323 212.527 82.7838 212.625 83.2369L212.984 84.8585C213.088 85.2024 213.106 85.5664 213.036 85.9189C212.872 86.4933 212.264 86.8446 212.034 87.3961C211.748 88.0855 212.119 88.8766 212.596 89.4511C213.465 90.4928 214.667 91.2045 215.999 91.4667C216.345 91.5491 216.705 91.558 217.055 91.4929C217.62 91.3209 218.105 90.9531 218.423 90.4556C218.243 90.5799 218.043 90.6711 217.831 90.7248Z" fill="black"/>
<path opacity="0.1" d="M66.9775 235.703C71.3668 235.703 74.9251 235.157 74.9251 234.485C74.9251 233.812 71.3668 233.267 66.9775 233.267C62.5882 233.267 59.0299 233.812 59.0299 234.485C59.0299 235.157 62.5882 235.703 66.9775 235.703Z" fill="#00BF6F"/>
<path opacity="0.1" d="M344.476 204.038C348.865 204.038 352.424 203.493 352.424 202.82C352.424 202.147 348.865 201.602 344.476 201.602C340.087 201.602 336.528 202.147 336.528 202.82C336.528 203.493 340.087 204.038 344.476 204.038Z" fill="#00BF6F"/>
<path opacity="0.1" d="M263.451 255.422C276.163 255.422 286.469 253.844 286.469 251.897C286.469 249.949 276.163 248.371 263.451 248.371C250.739 248.371 240.434 249.949 240.434 251.897C240.434 253.844 250.739 255.422 263.451 255.422Z" fill="#00BF6F"/>
<path opacity="0.1" d="M328.883 239.711C338.799 239.711 346.837 238.48 346.837 236.96C346.837 235.441 338.799 234.209 328.883 234.209C318.968 234.209 310.93 235.441 310.93 236.96C310.93 238.48 318.968 239.711 328.883 239.711Z" fill="#00BF6F"/>
<path opacity="0.1" d="M325.927 269.036C342.742 269.036 356.373 266.947 356.373 264.371C356.373 261.795 342.742 259.706 325.927 259.706C309.113 259.706 295.482 261.795 295.482 264.371C295.482 266.947 309.113 269.036 325.927 269.036Z" fill="#00BF6F"/>
<path opacity="0.1" d="M32.961 272C45.6732 272 55.9785 270.422 55.9785 268.474C55.9785 266.527 45.6732 264.949 32.961 264.949C20.2488 264.949 9.94354 266.527 9.94354 268.474C9.94354 270.422 20.2488 272 32.961 272Z" fill="#00BF6F"/>
<path d="M67.3392 195.697C67.3392 195.697 68.2402 196.872 66.9249 198.651C65.6097 200.43 64.5245 201.934 64.952 203.03C64.952 203.03 66.9249 199.747 68.569 199.688C70.2131 199.629 69.1182 197.679 67.3392 195.697Z" fill="#00BF6F"/>
<path opacity="0.1" d="M67.3393 195.697C67.4196 195.809 67.4817 195.933 67.5234 196.064C69.1017 197.916 69.9402 199.639 68.4244 199.675C67.0137 199.715 65.3203 202.236 64.9158 202.873C64.9282 202.922 64.9435 202.97 64.9619 203.017C64.9619 203.017 66.9348 199.734 68.5789 199.675C70.223 199.616 69.1182 197.679 67.3393 195.697Z" fill="black"/>
<path d="M69.0161 197.193C69.0161 197.607 68.9668 197.942 68.911 197.942C68.8551 197.942 68.8058 197.613 68.8058 197.193C68.8058 196.773 68.8649 196.977 68.9208 196.977C68.9767 196.977 69.0161 196.78 69.0161 197.193Z" fill="#FFCD00"/>
<path d="M69.5883 197.689C69.2266 197.886 68.9077 198.017 68.8813 197.955C68.855 197.893 69.1247 197.706 69.4897 197.505C69.8547 197.305 69.71 197.453 69.7363 197.505C69.7626 197.558 69.9533 197.489 69.5883 197.689Z" fill="#FFCD00"/>
<path d="M62.5845 195.697C62.5845 195.697 61.6835 196.872 62.9988 198.651C64.3141 200.43 65.4025 201.934 64.9717 203.03C64.9717 203.03 62.9988 199.747 61.3711 199.688C59.7435 199.629 60.7957 197.679 62.5845 195.697Z" fill="#00BF6F"/>
<path opacity="0.1" d="M62.5845 195.697C62.5059 195.81 62.4439 195.934 62.4003 196.064C60.822 197.916 59.9835 199.639 61.4994 199.675C62.91 199.715 64.6034 202.236 65.0112 202.873C64.9977 202.922 64.9812 202.97 64.9619 203.017C64.9619 203.017 62.9889 199.734 61.3613 199.675C59.7336 199.616 60.7957 197.679 62.5845 195.697Z" fill="black"/>
<path d="M60.9108 197.193C60.9108 197.607 60.9568 197.942 61.0127 197.942C61.0686 197.942 61.1179 197.613 61.1179 197.193C61.1179 196.773 61.0587 196.977 61.0028 196.977C60.9469 196.977 60.9108 196.78 60.9108 197.193Z" fill="#FFCD00"/>
<path d="M60.3353 197.689C60.7003 197.886 61.016 198.017 61.0456 197.955C61.0752 197.893 60.799 197.706 60.434 197.505C60.069 197.305 60.2137 197.453 60.1874 197.505C60.1611 197.558 59.9704 197.489 60.3353 197.689Z" fill="#FFCD00"/>
<path opacity="0.1" d="M64.9618 212.018C70.1611 212.018 74.376 211.373 74.376 210.577C74.376 209.781 70.1611 209.136 64.9618 209.136C59.7625 209.136 55.5477 209.781 55.5477 210.577C55.5477 211.373 59.7625 212.018 64.9618 212.018Z" fill="#00BF6F"/>
<path d="M69.8087 201.441L69.7626 201.809L69.7002 202.327L69.6739 202.544L69.6114 203.063L69.5818 203.279L69.5193 203.798L68.7992 209.707C68.7367 210.232 67.8752 210.643 66.8263 210.643H63.0974C62.0583 210.643 61.1968 210.232 61.1245 209.707L60.4044 203.798L60.3419 203.279L60.3156 203.063L60.2498 202.544L60.2235 202.327L60.161 201.809L60.115 201.441C60.0788 201.142 60.5458 200.893 61.1344 200.893H68.7926C69.3779 200.893 69.8449 201.142 69.8087 201.441Z" fill="#65617D"/>
<path d="M69.7626 201.809L69.7002 202.327H60.2235L60.1611 201.809H69.7626Z" fill="#9D9CB5"/>
<path d="M69.6738 202.544L69.6113 203.063H60.3156L60.2498 202.544H69.6738Z" fill="#9D9CB5"/>
<path d="M69.5851 203.28L69.5193 203.798H60.4044L60.3419 203.28H69.5851Z" fill="#9D9CB5"/>
<path d="M338.212 191.15C338.212 191.15 337.087 196.376 342.089 196.993L342.398 196.412C342.398 196.412 338.521 192.771 338.212 191.15Z" fill="#00BF6F"/>
<path d="M343.99 196.369L342.825 196.615L342.71 196.642C342.71 196.642 339.606 194.127 339.646 188.514C340.06 189.341 340.557 190.125 341.129 190.854C342.359 192.479 343.756 194.646 343.99 196.369Z" fill="#00BF6F"/>
<path d="M344.381 196.908C344.289 196.967 344.186 197.005 344.078 197.02C343.97 197.034 343.86 197.024 343.756 196.99C340.77 196.294 341.783 186.58 341.783 186.58C341.947 186.656 342.112 187.893 342.816 189.489C344.016 192.289 345.341 196.205 344.381 196.908Z" fill="#00BF6F"/>
<path d="M351.003 191.15C351.003 191.15 351.197 196.376 346.196 196.993L345.883 196.402C345.883 196.402 350.694 192.771 351.003 191.15Z" fill="#00BF6F"/>
<path d="M349.569 188.523C349.609 194.137 345.577 196.651 345.577 196.651L345.459 196.625L344.298 196.379C344.529 194.656 345.942 192.489 347.156 190.864C347.852 189.98 348.664 189.193 349.569 188.523Z" fill="#00BF6F"/>
<path d="M345.443 196.402C345.266 196.62 345.041 196.794 344.785 196.911C344.706 196.947 344.623 196.974 344.538 196.993C343.805 197.164 343.552 196.635 343.591 195.736C343.661 194.137 344.667 191.363 345.564 189.285C345.997 188.266 346.635 187.346 347.439 186.583C347.439 186.583 347.393 194.144 345.443 196.402Z" fill="#00BF6F"/>
<path d="M344.607 183.173C344.607 183.173 341.273 194.991 344.144 196.757C347.014 198.523 345.344 184.217 344.607 183.173Z" fill="#00BF6F"/>
<path opacity="0.1" d="M338.212 191.15C338.212 191.15 337.087 196.376 342.089 196.993L342.398 196.412C342.398 196.412 338.521 192.771 338.212 191.15Z" fill="black"/>
<path opacity="0.1" d="M343.99 196.369L342.825 196.615L342.71 196.642C342.71 196.642 339.606 194.127 339.646 188.514C340.06 189.341 340.557 190.125 341.129 190.854C342.359 192.479 343.756 194.646 343.99 196.369Z" fill="black"/>
<path opacity="0.1" d="M344.381 196.908C344.289 196.967 344.186 197.005 344.078 197.02C343.97 197.034 343.86 197.024 343.756 196.99C340.77 196.294 341.783 186.58 341.783 186.58C341.947 186.656 342.112 187.893 342.816 189.489C344.016 192.289 345.341 196.205 344.381 196.908Z" fill="black"/>
<path opacity="0.1" d="M351.003 191.15C351.003 191.15 351.197 196.376 346.196 196.993L345.883 196.402C345.883 196.402 350.694 192.771 351.003 191.15Z" fill="black"/>
<path opacity="0.1" d="M349.569 188.523C349.609 194.137 345.577 196.651 345.577 196.651L345.459 196.625L344.298 196.379C344.529 194.656 345.942 192.489 347.156 190.864C347.852 189.98 348.664 189.193 349.569 188.523Z" fill="black"/>
<path opacity="0.1" d="M345.443 196.402C345.266 196.62 345.041 196.794 344.785 196.911C344.706 196.947 344.623 196.974 344.538 196.993C343.805 197.164 343.552 196.635 343.591 195.736C343.661 194.137 344.667 191.363 345.564 189.285C345.997 188.266 346.635 187.346 347.439 186.583C347.439 186.583 347.393 194.144 345.443 196.402Z" fill="black"/>
<path opacity="0.1" d="M344.607 183.173C344.607 183.173 341.273 194.991 344.144 196.757C347.014 198.523 345.344 184.217 344.607 183.173Z" fill="black"/>
<path d="M338.212 191.15C338.212 191.15 337.554 196.376 342.552 196.993L342.861 196.412C342.861 196.412 338.521 192.771 338.212 191.15Z" fill="#00BF6F"/>
<path d="M344.453 196.369L343.289 196.615L343.174 196.642C343.174 196.642 339.606 194.127 339.636 188.523C339.636 188.523 340.55 189.508 341.582 190.864C342.822 192.479 344.219 194.646 344.453 196.369Z" fill="#00BF6F"/>
<path opacity="0.1" d="M344.453 196.369L343.289 196.616C342.187 195.651 341.75 193.129 341.592 190.854C342.822 192.479 344.22 194.646 344.453 196.369Z" fill="black"/>
<path d="M344.848 196.908C344.756 196.967 344.651 197.005 344.543 197.02C344.434 197.034 344.324 197.024 344.22 196.99C341.234 196.294 341.78 186.58 341.78 186.58C341.944 186.656 342.589 187.893 343.276 189.489C344.483 192.289 345.804 196.205 344.848 196.908Z" fill="#00BF6F"/>
<path d="M351.003 191.15C351.003 191.15 351.661 196.376 346.663 196.993L346.354 196.412C346.354 196.412 350.694 192.771 351.003 191.15Z" fill="#00BF6F"/>
<path d="M349.569 188.523C349.609 194.137 346.041 196.651 346.041 196.651L345.926 196.625L344.762 196.379C344.992 194.656 346.406 192.489 347.623 190.864C348.655 189.508 349.569 188.523 349.569 188.523Z" fill="#00BF6F"/>
<path opacity="0.1" d="M347.623 190.854C347.471 192.975 347.083 195.309 346.14 196.399C346.075 196.478 346.004 196.55 345.926 196.616L344.762 196.369C344.992 194.646 346.393 192.479 347.623 190.854Z" fill="black"/>
<path d="M345.906 196.402C345.731 196.621 345.505 196.796 345.249 196.911C345.171 196.946 345.089 196.974 345.005 196.993C344.269 197.164 344.019 196.635 344.055 195.736C344.127 194.137 345.134 191.363 346.028 189.285C346.686 187.792 347.281 186.659 347.439 186.583C347.439 186.58 347.856 194.144 345.906 196.402Z" fill="#00BF6F"/>
<path opacity="0.1" d="M344.847 196.908C344.677 196.91 344.511 196.857 344.374 196.757C342.97 195.883 342.94 192.607 343.276 189.489C344.482 192.289 345.804 196.205 344.847 196.908Z" fill="black"/>
<path opacity="0.1" d="M345.906 196.402C345.745 196.753 345.528 196.937 345.249 196.911C345.106 196.894 344.969 196.842 344.851 196.76C344.485 196.51 344.207 196.152 344.055 195.736C344.127 194.137 345.134 191.363 346.028 189.285C346.35 192.164 346.459 195.217 345.906 196.402Z" fill="black"/>
<path d="M344.608 183.173C344.608 183.173 341.74 194.991 344.608 196.757C347.475 198.523 345.344 184.217 344.608 183.173Z" fill="#00BF6F"/>
<path d="M350.112 196.179H338.172V198.152H339.994L340.04 198.385L340.77 202.216H347.712L348.442 198.385L348.484 198.152H350.112V196.179Z" fill="#4B4770"/>
<path opacity="0.1" d="M350.112 196.179H338.172V198.152H339.994L340.04 198.385L340.77 202.216H347.712L348.442 198.385L348.484 198.152H350.112V196.179Z" fill="black"/>
<path d="M349.106 197.338L348.905 198.385L348.175 202.216H341.234L340.504 198.385L340.303 197.338H349.106Z" fill="#4B4770"/>
<path opacity="0.1" d="M349.106 197.338L348.905 198.385H340.504L340.303 197.338H349.106Z" fill="black"/>
<path d="M350.576 196.179H338.636V198.152H350.576V196.179Z" fill="#4B4770"/>
<path d="M45.8343 229.938C45.5196 230.372 45.2672 230.847 45.0846 231.35C45.0386 231.472 44.9926 231.613 44.9465 231.747C44.8631 231.708 44.7761 231.678 44.6868 231.655C44.3035 231.559 43.9069 231.525 43.5129 231.557C43.5129 231.403 43.5326 231.229 43.5359 231.074C43.5852 229.344 43.3813 226.935 41.7274 227.956C40.1425 228.941 41.2736 230.582 42.2962 231.632C42.385 231.724 42.4738 231.81 42.5593 231.892C41.6254 232.548 41.4479 234.101 41.2933 235.713C41.1388 237.325 39.7676 239.087 38.8568 240.089C38.7647 240.19 38.6825 240.282 38.6003 240.368C38.2321 240.074 37.8059 239.862 37.3497 239.745C36.8934 239.628 36.4175 239.609 35.9533 239.688C35.9171 239.547 35.8744 239.399 35.8316 239.245C35.0951 236.589 33.566 231.99 31.6161 230.982L31.8726 230.654C32.7012 229.574 33.6351 227.966 32.2573 227.555C30.8796 227.145 30.7546 228.947 30.8303 230.3C30.8434 230.47 30.8566 230.631 30.8697 230.782C30.5943 230.795 30.3244 230.863 30.0766 230.984C29.8289 231.105 29.6087 231.275 29.4295 231.485L29.2158 231.232C28.0978 229.919 26.0492 227.828 25.4277 229.407C24.849 230.877 26.6542 232.788 27.9235 233.894L28.0024 233.963C27.1508 237.413 30.8697 240.227 32.8722 241.458L33.132 241.615C30.3699 244.865 28.6633 250.958 28.6633 250.958L36.3972 252.336C36.3972 252.336 41.5268 247.918 40.8692 243.769H40.9218C46.0481 242.744 47.2121 237.288 46.4131 234.048L46.5051 234.012C47.4391 233.631 48.2574 233.013 48.8792 232.22C50.3129 230.234 47.314 227.989 45.8343 229.938Z" fill="#00BF6F"/>
<path opacity="0.1" d="M45.8343 229.938C45.5196 230.372 45.2672 230.847 45.0846 231.35C45.0386 231.472 44.9926 231.613 44.9465 231.747C44.8631 231.708 44.7761 231.678 44.6868 231.655C44.3035 231.559 43.9069 231.525 43.5129 231.557C43.5129 231.403 43.5326 231.229 43.5359 231.074C43.5852 229.344 43.3813 226.935 41.7274 227.956C40.1425 228.941 41.2736 230.582 42.2962 231.632C42.385 231.724 42.4738 231.81 42.5593 231.892C41.6254 232.548 41.4479 234.101 41.2933 235.713C41.1388 237.325 39.7676 239.087 38.8568 240.089C38.7647 240.19 38.6825 240.282 38.6003 240.368C38.2321 240.074 37.8059 239.862 37.3497 239.745C36.8934 239.628 36.4175 239.609 35.9533 239.688C35.9171 239.547 35.8744 239.399 35.8316 239.245C35.0951 236.589 33.566 231.99 31.6161 230.982L31.8726 230.654C32.7012 229.574 33.6351 227.966 32.2573 227.555C30.8796 227.145 30.7546 228.947 30.8303 230.3C30.8434 230.47 30.8566 230.631 30.8697 230.782C30.5943 230.795 30.3244 230.863 30.0766 230.984C29.8289 231.105 29.6087 231.275 29.4295 231.485L29.2158 231.232C28.0978 229.919 26.0492 227.828 25.4277 229.407C24.849 230.877 26.6542 232.788 27.9235 233.894L28.0024 233.963C27.1508 237.413 30.8697 240.227 32.8722 241.458L33.132 241.615C30.3699 244.865 28.6633 250.958 28.6633 250.958L36.3972 252.336C36.3972 252.336 41.5268 247.918 40.8692 243.769H40.9218C46.0481 242.744 47.2121 237.288 46.4131 234.048L46.5051 234.012C47.4391 233.631 48.2574 233.013 48.8792 232.22C50.3129 230.234 47.314 227.989 45.8343 229.938Z" fill="black"/>
<path d="M30.4389 232.184L29.5347 234.81C29.5347 234.81 29.0316 234.456 28.3969 233.898C27.1277 232.791 25.3225 230.881 25.9012 229.41C26.5227 227.831 28.5712 229.916 29.6892 231.235C30.1397 231.76 30.4389 232.184 30.4389 232.184Z" fill="#00BF6F"/>
<path d="M32.3461 230.657C32.0714 231.019 31.7772 231.365 31.4648 231.695C31.3876 231.234 31.3338 230.769 31.3037 230.303C31.2281 228.95 31.3727 227.155 32.7308 227.559C34.0888 227.962 33.1747 229.577 32.3461 230.657Z" fill="#00BF6F"/>
<path d="M44.0258 231.074C43.9995 231.944 43.914 232.64 43.914 232.64C43.5163 232.329 43.1395 231.993 42.7862 231.632C41.7635 230.572 40.6324 228.937 42.2173 227.956C43.8548 226.931 44.0587 229.344 44.0258 231.074Z" fill="#00BF6F"/>
<path d="M49.3527 232.213C48.7309 233.006 47.9126 233.624 46.9786 234.005C46.7194 234.117 46.4536 234.214 46.1829 234.294L45.1175 232.801C45.2294 232.307 45.3766 231.822 45.5581 231.35C45.7407 230.847 45.9931 230.371 46.3078 229.938C47.7809 227.988 50.7864 230.234 49.3527 232.213Z" fill="#00BF6F"/>
<path opacity="0.1" d="M29.6892 231.235C30.1397 231.761 30.4389 232.168 30.4389 232.168L29.5347 234.794C29.5347 234.794 29.0316 234.439 28.397 233.881C28.538 233.035 28.8883 232.237 29.4163 231.56C29.5051 231.452 29.6005 231.34 29.6892 231.235Z" fill="black"/>
<path opacity="0.1" d="M32.3461 230.657C32.0715 231.019 31.7773 231.365 31.4649 231.695C31.3877 231.234 31.3339 230.769 31.3038 230.303C31.6796 230.311 32.0437 230.434 32.3461 230.657Z" fill="black"/>
<path d="M36.7918 241.149L34.5426 242.134C34.5426 242.134 34.0527 241.898 33.3457 241.458C30.9815 240.007 26.2301 236.353 29.3999 232.046C32.5697 227.739 35.243 235.463 36.3051 239.242C36.6241 240.391 36.7918 241.149 36.7918 241.149Z" fill="#00BF6F"/>
<path opacity="0.1" d="M42.7697 231.633C43.0969 231.296 43.5401 231.096 44.0094 231.074C43.9831 231.944 43.8976 232.64 43.8976 232.64C43.4998 232.33 43.1231 231.993 42.7697 231.633Z" fill="black"/>
<path opacity="0.1" d="M46.9852 234.006C46.7259 234.118 46.4602 234.214 46.1895 234.295L45.1241 232.801C45.2359 232.307 45.3832 231.823 45.5647 231.35C46.2454 231.751 46.7518 232.749 46.9852 234.006Z" fill="black"/>
<path d="M41.3952 243.762C41.2736 243.788 41.1453 243.811 41.0171 243.831C33.4772 244.973 38.5312 240.913 38.5312 240.913C38.5312 240.913 38.86 240.584 39.3302 240.089C40.2411 239.087 41.609 237.334 41.7668 235.713C42.0035 233.274 42.2765 230.986 45.1602 231.655C47.9914 232.318 48.5339 242.334 41.3952 243.762Z" fill="#00BF6F"/>
<path d="M41.2538 262.503H26.8482V266.285H41.2538V262.503Z" fill="#D4DFEC"/>
<path d="M43.3813 250.213H24.5596V263.409H43.3813V250.213Z" fill="#D4DFEC"/>
<path opacity="0.1" d="M41.2538 262.503H26.8482V266.285H41.2538V262.503Z" fill="black"/>
<path opacity="0.1" d="M43.3813 250.213H24.5596V263.409H43.3813V250.213Z" fill="black"/>
<path d="M42.2009 262.503H27.7952V266.285H42.2009V262.503Z" fill="#D4DFEC"/>
<path opacity="0.1" d="M36.3051 239.245C36.634 240.374 36.7918 241.149 36.7918 241.149L34.5427 242.134C34.5427 242.134 34.0527 241.897 33.3458 241.457C34.227 240.345 35.22 239.504 36.3051 239.245Z" fill="black"/>
<path opacity="0.1" d="M41.3952 243.762C41.2736 243.788 41.1453 243.811 41.0171 243.831C33.4772 244.973 38.5312 240.913 38.5312 240.913C38.5312 240.913 38.86 240.584 39.3302 240.089C40.7376 241.215 41.3196 242.482 41.3952 243.762Z" fill="black"/>
<path d="M29.1368 250.961C29.1368 250.961 33.3588 235.86 39.2809 240.519C45.203 245.177 36.8706 252.336 36.8706 252.336L29.1368 250.961Z" fill="#00BF6F"/>
<path opacity="0.1" d="M31.2676 234.886C31.5291 234.886 31.7411 234.674 31.7411 234.413C31.7411 234.152 31.5291 233.94 31.2676 233.94C31.0061 233.94 30.7941 234.152 30.7941 234.413C30.7941 234.674 31.0061 234.886 31.2676 234.886Z" fill="black"/>
<path opacity="0.1" d="M31.2281 237.091C31.4896 237.091 31.7016 236.88 31.7016 236.619C31.7016 236.358 31.4896 236.146 31.2281 236.146C30.9666 236.146 30.7546 236.358 30.7546 236.619C30.7546 236.88 30.9666 237.091 31.2281 237.091Z" fill="black"/>
<path opacity="0.1" d="M44.9629 235.319C45.2245 235.319 45.4364 235.107 45.4364 234.846C45.4364 234.585 45.2245 234.374 44.9629 234.374C44.7014 234.374 44.4894 234.585 44.4894 234.846C44.4894 235.107 44.7014 235.319 44.9629 235.319Z" fill="black"/>
<path opacity="0.1" d="M33.9145 246.628C34.1761 246.628 34.388 246.416 34.388 246.155C34.388 245.894 34.1761 245.683 33.9145 245.683C33.653 245.683 33.441 245.894 33.441 246.155C33.441 246.416 33.653 246.628 33.9145 246.628Z" fill="black"/>
<path opacity="0.1" d="M43.9765 238.982C44.238 238.982 44.45 238.771 44.45 238.51C44.45 238.249 44.238 238.037 43.9765 238.037C43.715 238.037 43.503 238.249 43.503 238.51C43.503 238.771 43.715 238.982 43.9765 238.982Z" fill="black"/>
<path opacity="0.1" d="M39.0837 243.87C39.3452 243.87 39.5572 243.659 39.5572 243.398C39.5572 243.137 39.3452 242.925 39.0837 242.925C38.8222 242.925 38.6102 243.137 38.6102 243.398C38.6102 243.659 38.8222 243.87 39.0837 243.87Z" fill="black"/>
<path opacity="0.1" d="M32.8854 235.831C33.1469 235.831 33.3589 235.619 33.3589 235.358C33.3589 235.097 33.1469 234.885 32.8854 234.885C32.6239 234.885 32.4119 235.097 32.4119 235.358C32.4119 235.619 32.6239 235.831 32.8854 235.831Z" fill="black"/>
<path opacity="0.1" d="M43.6608 236.737C43.9223 236.737 44.1343 236.525 44.1343 236.264C44.1343 236.003 43.9223 235.792 43.6608 235.792C43.3993 235.792 43.1873 236.003 43.1873 236.264C43.1873 236.525 43.3993 236.737 43.6608 236.737Z" fill="black"/>
<path opacity="0.1" d="M42.043 240.401C42.3045 240.401 42.5165 240.189 42.5165 239.928C42.5165 239.667 42.3045 239.455 42.043 239.455C41.7815 239.455 41.5695 239.667 41.5695 239.928C41.5695 240.189 41.7815 240.401 42.043 240.401Z" fill="black"/>
<path opacity="0.1" d="M37.0713 246.273C37.3328 246.273 37.5448 246.061 37.5448 245.8C37.5448 245.539 37.3328 245.328 37.0713 245.328C36.8098 245.328 36.5978 245.539 36.5978 245.8C36.5978 246.061 36.8098 246.273 37.0713 246.273Z" fill="black"/>
<path opacity="0.1" d="M36.0453 243.949C36.3068 243.949 36.5188 243.737 36.5188 243.476C36.5188 243.215 36.3068 243.004 36.0453 243.004C35.7838 243.004 35.5718 243.215 35.5718 243.476C35.5718 243.737 35.7838 243.949 36.0453 243.949Z" fill="black"/>
<path opacity="0.1" d="M33.5956 238.707C33.8571 238.707 34.0691 238.495 34.0691 238.234C34.0691 237.973 33.8571 237.761 33.5956 237.761C33.3341 237.761 33.1221 237.973 33.1221 238.234C33.1221 238.495 33.3341 238.707 33.5956 238.707Z" fill="black"/>
<path opacity="0.1" d="M42.2009 262.503H27.7952V263.885H42.2009V262.503Z" fill="black"/>
<path d="M44.3284 250.213H25.5067V263.409H44.3284V250.213Z" fill="#D4DFEC"/>
<path opacity="0.1" d="M37.7026 248.4C37.9641 248.4 38.1761 248.189 38.1761 247.928C38.1761 247.666 37.9641 247.455 37.7026 247.455C37.4411 247.455 37.2291 247.666 37.2291 247.928C37.2291 248.189 37.4411 248.4 37.7026 248.4Z" fill="black"/>
<path opacity="0.1" d="M34.8616 248.991C35.1231 248.991 35.3351 248.78 35.3351 248.519C35.3351 248.258 35.1231 248.046 34.8616 248.046C34.6001 248.046 34.3881 248.258 34.3881 248.519C34.3881 248.78 34.6001 248.991 34.8616 248.991Z" fill="black"/>
<path opacity="0.1" d="M16.441 20.5039C18.3406 20.5039 19.8805 18.9666 19.8805 17.0702C19.8805 15.1738 18.3406 13.6365 16.441 13.6365C14.5414 13.6365 13.0015 15.1738 13.0015 17.0702C13.0015 18.9666 14.5414 20.5039 16.441 20.5039Z" fill="#00BF6F"/>
<path opacity="0.1" d="M346.765 129.697C349.307 129.697 351.368 127.64 351.368 125.101C351.368 122.563 349.307 120.506 346.765 120.506C344.222 120.506 342.161 122.563 342.161 125.101C342.161 127.64 344.222 129.697 346.765 129.697Z" fill="#00BF6F"/>
<path opacity="0.1" d="M355.64 118.608C357.495 118.608 359 117.106 359 115.253C359 113.4 357.495 111.898 355.64 111.898C353.784 111.898 352.279 113.4 352.279 115.253C352.279 117.106 353.784 118.608 355.64 118.608Z" fill="#00BF6F"/>
<path opacity="0.1" d="M22.3598 9.19163C24.9022 9.19163 26.9633 7.13401 26.9633 4.59581C26.9633 2.05762 24.9022 0 22.3598 0C19.8173 0 17.7563 2.05762 17.7563 4.59581C17.7563 7.13401 19.8173 9.19163 22.3598 9.19163Z" fill="#00BF6F"/>
<path opacity="0.1" d="M4.60349 30.2009C7.14593 30.2009 9.20698 28.1433 9.20698 25.6051C9.20698 23.0669 7.14593 21.0093 4.60349 21.0093C2.06105 21.0093 0 23.0669 0 25.6051C0 28.1433 2.06105 30.2009 4.60349 30.2009Z" fill="#00BF6F"/>
</g>
<defs>
<linearGradient id="paint0_linear_895_55968" x1="173.331" y1="254.69" x2="173.331" y2="62.4866" gradientUnits="userSpaceOnUse">
<stop stop-color="#808080" stop-opacity="0.25"/>
<stop offset="0.54" stop-color="#808080" stop-opacity="0.12"/>
<stop offset="1" stop-color="#808080" stop-opacity="0.1"/>
</linearGradient>
<clipPath id="clip0_895_55968">
<rect width="359" height="272" fill="white"/>
</clipPath>
</defs>
</svg>
