<svg width="160" height="107" viewBox="0 0 160 107" fill="none" xmlns="http://www.w3.org/2000/svg">
<g clip-path="url(#clip0_895_62915)">
<path d="M92.6393 18.6964C92.307 18.6853 91.9685 18.6797 91.6333 18.6797V18.3425C91.9723 18.3425 92.3144 18.3482 92.6505 18.3594L92.6393 18.6964Z" fill="#E6E6E6"/>
<path d="M91.6333 78.3637C91.18 78.3637 90.723 78.3534 90.2746 78.3334L90.2898 77.9965C90.961 78.0266 91.6483 78.034 92.3237 78.0186L92.3312 78.3558C92.0994 78.361 91.8668 78.3637 91.6333 78.3637ZM94.3847 78.2393L94.3541 77.9035C95.0278 77.8422 95.7065 77.7569 96.3717 77.6502L96.425 77.9831C95.7524 78.091 95.066 78.1773 94.3847 78.2393ZM88.2246 78.1723C87.545 78.0954 86.8605 77.9942 86.1902 77.8714L86.2512 77.5398C86.9137 77.6611 87.5904 77.7612 88.2625 77.8371L88.2246 78.1723ZM98.4431 77.5877L98.367 77.259C99.0246 77.1066 99.6854 76.9291 100.331 76.7315L100.43 77.0539C99.7766 77.2538 99.1083 77.4334 98.4431 77.5877ZM84.1812 77.4311C83.52 77.2622 82.8558 77.0677 82.2073 76.8533L82.313 76.5333C82.9544 76.7452 83.611 76.9373 84.2649 77.1044L84.1812 77.4311ZM102.374 76.3843L102.253 76.0695C102.883 75.8278 103.513 75.5612 104.124 75.2773L104.266 75.5833C103.648 75.8702 103.012 76.1398 102.374 76.3843H102.374ZM80.275 76.1398C79.6415 75.8804 79.0097 75.5961 78.3972 75.2945L78.5463 74.9918C79.1517 75.29 79.7764 75.5712 80.4027 75.8276L80.275 76.1398ZM106.099 74.6538L105.936 74.3585C106.527 74.0325 107.114 73.6821 107.681 73.3169L107.864 73.6004C107.29 73.9697 106.697 74.324 106.099 74.6538ZM76.5827 74.3224C75.9911 73.9788 75.4046 73.6108 74.8394 73.2283L75.0284 72.9491C75.5872 73.3271 76.1671 73.6911 76.7521 74.031L76.5827 74.3224ZM109.553 72.4286L109.351 72.1583C109.893 71.7547 110.427 71.3275 110.939 70.8882L111.159 71.1441C110.64 71.5884 110.1 72.0206 109.553 72.4286H109.553ZM73.1753 72.0177C72.6374 71.5975 72.1067 71.1531 71.598 70.6967L71.8232 70.4458C72.3262 70.8969 72.8509 71.3363 73.3829 71.7519L73.1753 72.0177ZM112.673 69.7528L112.437 69.5124C112.918 69.0389 113.39 68.5428 113.838 68.0377L114.09 68.2616C113.637 68.7723 113.16 69.274 112.673 69.7528ZM70.1147 69.2715C69.6384 68.7817 69.1732 68.2693 68.732 67.7489L68.9892 67.5309C69.4255 68.0456 69.8855 68.552 70.3564 69.0364L70.1147 69.2715ZM115.402 66.6765L115.136 66.4704C115.548 65.9364 115.947 65.3806 116.323 64.8185L116.603 65.0058C116.223 65.5744 115.819 66.1365 115.402 66.6765H115.402ZM67.4565 66.136C67.0513 65.5862 66.6604 65.0156 66.2943 64.4401L66.5788 64.259C66.9408 64.828 67.3274 65.3923 67.728 65.9361L67.4565 66.136ZM117.688 63.2561L117.395 63.0885C117.731 62.5021 118.051 61.8966 118.346 61.2888L118.649 61.436C118.351 62.0508 118.028 62.6631 117.688 63.2561H117.688ZM65.251 62.6692C64.925 62.0697 64.6158 61.4513 64.3319 60.8312L64.6385 60.6909C64.9192 61.3039 65.2249 61.9154 65.5472 62.5082L65.251 62.6692ZM119.484 59.5536L119.171 59.4278C119.424 58.8005 119.657 58.1564 119.866 57.5133L120.187 57.6173C119.976 58.2678 119.739 58.9193 119.484 59.5536ZM63.5417 58.9353C63.3008 58.2962 63.0792 57.6405 62.883 56.9867L63.2061 56.8899C63.4 57.5363 63.619 58.1844 63.8572 58.8164L63.5417 58.9353ZM120.753 55.6397L120.426 55.5581C120.589 54.9028 120.732 54.2337 120.85 53.5693L121.182 53.6282C121.062 54.3002 120.918 54.9769 120.753 55.6397ZM62.3608 54.9974C62.2103 54.3316 62.0811 53.6518 61.9768 52.977L62.31 52.9254C62.4132 53.5927 62.5409 54.2648 62.6898 54.923L62.3608 54.9974ZM121.471 51.5923L121.136 51.5562C121.208 50.886 121.258 50.2037 121.284 49.5282L121.621 49.5414C121.594 50.2243 121.544 50.9144 121.471 51.5923ZM61.7323 50.935C61.6745 50.2558 61.6391 49.5648 61.6273 48.8811L61.9645 48.8754C61.9761 49.5514 62.0111 50.2347 62.0683 50.9064L61.7323 50.935ZM121.294 47.4942C121.275 46.8185 121.233 46.1357 121.168 45.4646L121.503 45.4322C121.569 46.1109 121.612 46.8014 121.631 47.4847L121.294 47.4942ZM120.903 43.4484C120.792 42.7814 120.657 42.1108 120.501 41.4551L120.829 41.377C120.987 42.0401 121.124 42.7184 121.236 43.393L120.903 43.4484ZM119.962 39.4944C119.761 38.8506 119.535 38.2057 119.29 37.5776L119.604 37.4551C119.851 38.0904 120.08 38.7427 120.284 39.3938L119.962 39.4944ZM118.487 35.7113C118.199 35.1004 117.886 34.4924 117.557 33.904L117.852 33.7395C118.184 34.3347 118.5 34.9496 118.792 35.5674L118.487 35.7113ZM116.506 32.1643C116.136 31.5982 115.743 31.0383 115.337 30.5003L115.606 30.2973C116.017 30.8413 116.414 31.4075 116.788 31.9801L116.506 32.1643ZM114.058 28.9196C113.616 28.4096 113.15 27.9082 112.674 27.4294L112.913 27.1916C113.395 27.6759 113.865 28.183 114.313 28.6986L114.058 28.9196ZM111.191 26.0369C110.683 25.5911 110.153 25.1575 109.617 24.7483L109.821 24.4802C110.364 24.8941 110.899 25.3325 111.413 25.7833L111.191 26.0369ZM107.958 23.5699C107.394 23.1974 106.81 22.84 106.223 22.5078L106.388 22.2143C106.982 22.5503 107.573 22.9116 108.144 23.2885L107.958 23.5699ZM104.417 21.5673C103.807 21.2755 103.18 21.0016 102.552 20.753L102.676 20.4395C103.311 20.6909 103.946 20.968 104.563 21.263L104.417 21.5673ZM100.634 20.0694C99.9908 19.8648 99.332 19.6802 98.6761 19.5205L98.7558 19.1928C99.4193 19.3543 100.086 19.5411 100.736 19.748L100.634 20.0694ZM96.6847 19.1079C96.0198 18.994 95.342 18.9016 94.6697 18.8332L94.704 18.4977C95.3838 18.5668 96.0694 18.6604 96.7416 18.7755L96.6847 19.1079Z" fill="#E6E6E6"/>
<path d="M62.0003 46.7921L61.6636 46.7747C61.6812 46.4347 61.7047 46.0933 61.7333 45.7599L62.0692 45.7887C62.041 46.1183 62.0178 46.4559 62.0003 46.7921Z" fill="#E6E6E6"/>
<g filter="url(#filter0_d_895_62915)">
<path d="M117.345 106.148H32.2023V68.2131L74.7735 87.3491L117.345 68.2131V106.148Z" fill="#F2F2F2"/>
</g>
<path d="M32.2023 68.2131H117.345L74.8578 90.1309L32.2023 68.2131Z" fill="url(#paint0_linear_895_62915)"/>
<path d="M74.8577 93.6715C76.8131 93.6715 78.3983 92.0863 78.3983 90.1309C78.3983 88.1755 76.8131 86.5903 74.8577 86.5903C72.9023 86.5903 71.3172 88.1755 71.3172 90.1309C71.3172 92.0863 72.9023 93.6715 74.8577 93.6715Z" fill="#E6E6E6"/>
<path d="M11.1522 106.067C11.1135 106.004 10.2012 104.48 9.8849 101.317C9.59479 98.4152 9.78134 93.5235 12.3182 86.7001C17.1243 73.7735 11.2106 63.3436 11.1502 63.2397L11.442 63.0704C11.4573 63.0968 12.9832 65.756 13.8847 69.9904C15.0758 75.6043 14.642 81.4414 12.6343 86.8176C7.83654 99.7221 11.4034 105.831 11.44 105.891L11.1522 106.067Z" fill="#3F3D56"/>
<path d="M9.27293 62.4807C10.4834 62.4807 11.4647 61.4994 11.4647 60.2889C11.4647 59.0785 10.4834 58.0972 9.27293 58.0972C8.06244 58.0972 7.08115 59.0785 7.08115 60.2889C7.08115 61.4994 8.06244 62.4807 9.27293 62.4807Z" fill="#E10600"/>
<path d="M16.1855 70.5735C17.396 70.5735 18.3772 69.5922 18.3772 68.3817C18.3772 67.1712 17.396 66.1899 16.1855 66.1899C14.975 66.1899 13.9937 67.1712 13.9937 68.3817C13.9937 69.5922 14.975 70.5735 16.1855 70.5735Z" fill="#E10600"/>
<path d="M11.4647 75.9686C12.6752 75.9686 13.6565 74.9873 13.6565 73.7769C13.6565 72.5664 12.6752 71.5851 11.4647 71.5851C10.2542 71.5851 9.27292 72.5664 9.27292 73.7769C9.27292 74.9873 10.2542 75.9686 11.4647 75.9686Z" fill="#E10600"/>
<path d="M17.1971 80.5208C18.4075 80.5208 19.3888 79.5395 19.3888 78.329C19.3888 77.1185 18.4075 76.1372 17.1971 76.1372C15.9866 76.1372 15.0053 77.1185 15.0053 78.329C15.0053 79.5395 15.9866 80.5208 17.1971 80.5208Z" fill="#E10600"/>
<path d="M9.77873 87.6019C10.9892 87.6019 11.9705 86.6206 11.9705 85.4101C11.9705 84.1996 10.9892 83.2183 9.77873 83.2183C8.56824 83.2183 7.58694 84.1996 7.58694 85.4101C7.58694 86.6206 8.56824 87.6019 9.77873 87.6019Z" fill="#E10600"/>
<path d="M12.4763 106.148C12.4763 106.148 10.2845 100.753 16.8599 96.7062L12.4763 106.148Z" fill="#3F3D56"/>
<path d="M9.78075 106.05C9.78075 106.05 8.78325 100.313 1.06277 100.362L9.78075 106.05Z" fill="#3F3D56"/>
<g filter="url(#filter1_d_895_62915)">
<path d="M46.9547 23.2816C46.9476 18.6568 48.4934 14.1636 51.3443 10.522C48.2827 10.0708 45.159 10.3106 42.2021 11.2237C39.2453 12.1368 36.5303 13.7001 34.2562 15.799C31.9821 17.898 30.2066 20.4792 29.0599 23.3536C27.9132 26.2279 27.4244 29.3225 27.6293 32.4103C27.8341 35.4982 28.7275 38.5011 30.2439 41.1987C31.7602 43.8964 33.8612 46.2205 36.3926 48.0006C38.924 49.7807 41.8217 50.9716 44.8733 51.4861C47.9249 52.0006 51.0529 51.8256 54.0281 50.9739C57.9548 52.6797 62.2502 53.3613 66.5121 52.9549L59.8866 48.2406C61.6972 47.0178 63.3044 45.5181 64.6493 43.7963C59.7305 43.0658 55.2379 40.5925 51.99 36.8269C48.7421 33.0614 46.9551 28.2543 46.9547 23.2816V23.2816Z" fill="#FFCD00"/>
</g>
<path d="M93.9937 21.0898C93.9936 16.7714 92.6454 12.5607 90.1373 9.04535C87.6291 5.52999 84.0861 2.88532 80.0026 1.48037C75.9191 0.0754216 71.4989 -0.0197027 67.3588 1.20827C63.2187 2.43624 59.5652 4.92604 56.9081 8.33024C60.4952 8.86188 63.8802 10.3249 66.7253 12.5733C69.5705 14.8217 71.7762 17.7768 73.1226 21.144C74.469 24.5111 74.9088 28.1724 74.3983 31.7625C73.8878 35.3527 72.4447 38.7463 70.2131 41.6046C73.1435 42.0363 76.1323 41.8392 78.9807 41.0266C82.9074 42.7324 87.2028 43.414 91.4647 43.0076L84.8392 38.2933C87.6591 36.3966 89.9691 33.8353 91.5655 30.8352C93.162 27.835 93.9959 24.4882 93.9937 21.0898Z" fill="#00BF6F"/>
<path d="M54.0419 9.3418C51.811 12.2003 50.3686 15.5938 49.8585 19.1838C49.3484 22.7737 49.7884 26.4347 51.1347 29.8015C52.4809 33.1683 54.6864 36.1234 57.531 38.3719C60.3757 40.6204 63.7602 42.0838 67.3469 42.6161C69.5785 39.7578 71.0216 36.3643 71.5321 32.7741C72.0427 29.1839 71.6028 25.5226 70.2564 22.1555C68.9101 18.7884 66.7043 15.8332 63.8591 13.5848C61.014 11.3364 57.629 9.87343 54.0419 9.3418V9.3418Z" fill="black"/>
<path d="M160 106.148H0V106.485H160V106.148Z" fill="#3F3D56"/>
<path d="M135.915 27.068L134.915 33.7246L123.483 41.4569C123.483 41.4569 117.472 44.3372 117.85 46.1267C118.188 47.7219 122.826 47.5331 124.285 45.0664L137.953 38.8528L142.524 29.8034L135.915 27.068Z" fill="#FFB8B8"/>
<path d="M135.975 94.1772L136.481 101.258L141.37 100.921L140.527 94.1772H135.975Z" fill="#FFB8B8"/>
<path d="M137.323 99.0666C137.323 99.0666 136.649 96.5376 135.975 96.7062L134.963 98.5608C134.963 98.5608 130.411 102.776 129.062 102.944C129.062 102.944 124.679 104.293 129.062 106.316H134.12C134.12 106.316 137.492 106.148 138.166 106.316C138.841 106.485 142.719 106.485 142.887 105.473C143.056 104.462 142.381 102.439 142.381 102.439C142.381 102.439 141.76 97.4644 141.059 98.4341C140.693 98.9543 140.29 99.4474 139.852 99.9096L137.323 99.0666Z" fill="#2F2E41"/>
<path d="M148.62 94.2616L149.125 101.343L154.015 101.006L153.172 94.2616H148.62Z" fill="#FFB8B8"/>
<path d="M149.968 99.1509C149.968 99.1509 149.294 96.6219 148.62 96.7905L147.608 98.6451C147.608 98.6451 143.056 102.86 141.707 103.029C141.707 103.029 137.324 104.377 141.707 106.401H146.765C146.765 106.401 150.137 106.063 150.811 106.232C151.486 106.401 155.364 106.401 155.532 105.389C155.701 104.377 155.026 102.523 155.026 102.523C155.026 102.523 154.405 97.5488 153.704 98.5185C153.338 99.0386 152.935 99.5317 152.497 99.9939L149.968 99.1509Z" fill="#2F2E41"/>
<path d="M129.399 50.7631L128.556 51.9433V54.3037L133.952 74.3669L134.963 78.7505C134.963 78.7505 134.963 95.6103 135.975 95.6103C136.986 95.6103 141.538 96.1161 141.538 95.1045C141.538 94.0929 141.201 71.1635 141.201 71.1635L145.753 79.7621C145.753 79.7621 147.777 94.9359 148.451 95.1045C149.125 95.2731 153.846 95.1045 154.183 94.0929L153.172 84.4828C153.172 84.4828 153.34 73.6925 150.474 71.3321C150.474 71.3321 149.968 68.4659 149.463 67.2858C148.957 66.1056 148.114 65.4312 148.62 64.5882C149.125 63.7452 147.945 54.4723 147.945 54.4723C147.945 54.4723 148.282 51.6061 147.608 50.7631C146.934 49.9201 129.399 50.7631 129.399 50.7631Z" fill="#2F2E41"/>
<path d="M140.19 12.4913C143.076 12.4913 145.416 10.1513 145.416 7.26476C145.416 4.37822 143.076 2.03821 140.19 2.03821C137.303 2.03821 134.963 4.37822 134.963 7.26476C134.963 10.1513 137.303 12.4913 140.19 12.4913Z" fill="#FFB8B8"/>
<path d="M143.477 10.3837L143.14 13.7557L144.489 14.9359L135.89 18.9823C138.009 15.3635 138.636 12.0685 137.576 9.70935L143.477 10.3837Z" fill="#FFB8B8"/>
<path d="M137.576 15.4417C137.576 15.4417 136.228 18.1393 137.914 17.4649L143.14 13.7557C143.14 13.7557 148.873 15.9475 150.896 18.4765L149.21 36.3479L147.861 48.9928C147.861 48.9928 148.704 50.5102 148.535 50.6788C148.367 50.8474 148.198 50.5102 148.367 51.016C148.535 51.5218 149.041 51.016 148.535 51.5218C148.03 52.0276 147.524 51.5218 148.03 52.0276C148.535 52.5334 148.03 52.702 148.03 52.702C148.03 52.702 147.355 48.6556 141.454 51.6904C135.553 54.7252 133.024 55.5682 128.641 51.859L133.699 32.6388L134.107 25.3897C134.243 22.9683 134.674 20.5726 135.39 18.2555C135.777 17.0039 136.45 15.7739 137.576 15.1045V15.4417Z" fill="#D0CDE1"/>
<path d="M146.596 30.1941L149.125 36.4322L143.224 48.9085C143.224 48.9085 141.876 50.4259 142.719 52.2805C143.154 53.2715 143.661 54.2294 144.236 55.1467C144.236 55.1467 145.753 54.4723 145.753 51.6061L154.352 39.2984L153.678 29.1825L146.596 30.1941Z" fill="#FFB8B8"/>
<path d="M146.259 19.0667C146.259 19.0667 143.899 21.427 144.91 25.1362C145.922 28.8454 146.765 31.7116 146.765 31.7116C146.765 31.7116 150.811 28.6768 154.183 30.5314C154.183 30.5314 153.678 19.5725 150.811 18.5609C147.945 17.5493 146.259 19.0667 146.259 19.0667Z" fill="#D0CDE1"/>
<path d="M144.486 2.78108C144.486 2.78108 142.889 -0.678814 139.829 0.119623C136.768 0.91806 135.038 2.11572 134.905 3.31337C134.772 4.51103 134.972 6.30751 134.972 6.30751C134.972 6.30751 135.304 3.84567 137.433 4.37796C139.563 4.91025 142.889 4.51103 142.889 4.51103L143.422 9.30165C143.422 9.30165 144.329 8.3341 144.995 8.86639C145.66 9.39868 146.615 3.84566 144.486 2.78108Z" fill="#2F2E41"/>
<path d="M118.046 40.3811L121.157 39.6605C121.308 39.6257 121.465 39.643 121.604 39.7096C121.743 39.7763 121.855 39.8882 121.922 40.027L125.11 46.6371C125.145 46.7092 125.163 46.788 125.164 46.868C125.165 46.9481 125.149 47.0274 125.116 47.1004C125.083 47.1734 125.035 47.2384 124.974 47.2907C124.914 47.343 124.842 47.3815 124.765 47.4034L121.603 48.3019C121.434 48.35 121.253 48.3348 121.094 48.2592C120.935 48.1837 120.809 48.0528 120.739 47.8911L118.705 43.1669L118.643 43.2012L118.256 42.3061L118.32 42.2732L117.753 40.9545C117.728 40.898 117.717 40.8369 117.719 40.7754C117.721 40.714 117.736 40.6537 117.764 40.5989C117.792 40.5442 117.832 40.4963 117.881 40.4586C117.929 40.421 117.986 40.3945 118.046 40.3811Z" fill="#3F3D56"/>
<path d="M120.783 39.9057L121.146 39.8215C121.25 39.7974 121.36 39.8096 121.456 39.8562C121.552 39.9029 121.63 39.981 121.676 40.0778L124.787 46.6456C124.805 46.6834 124.815 46.7247 124.815 46.7665C124.816 46.8083 124.807 46.8498 124.79 46.888C124.773 46.9263 124.748 46.9604 124.717 46.9881C124.685 47.0158 124.648 47.0364 124.608 47.0485L121.468 47.9959C121.379 48.0227 121.284 48.0158 121.2 47.9768C121.116 47.9377 121.05 47.8691 121.013 47.7841L118.07 40.9326C118.051 40.8882 118.041 40.8403 118.043 40.792C118.044 40.7438 118.057 40.6965 118.078 40.6534C118.1 40.6103 118.131 40.5726 118.169 40.5428C118.207 40.513 118.251 40.492 118.298 40.4811L118.643 40.4013C118.676 40.3935 118.711 40.397 118.742 40.4112C118.773 40.4253 118.799 40.4494 118.815 40.4796V40.4796C118.829 40.5062 118.852 40.5274 118.88 40.5399C118.907 40.5524 118.938 40.5555 118.967 40.5487L120.603 40.1698C120.661 40.1565 120.712 40.1218 120.745 40.0729C120.778 40.0239 120.792 39.9642 120.783 39.9057V39.9057Z" fill="url(#paint1_linear_895_62915)"/>
</g>
<defs>
<filter id="filter0_d_895_62915" x="28.2023" y="68.2131" width="93.1423" height="45.9347" filterUnits="userSpaceOnUse" color-interpolation-filters="sRGB">
<feFlood flood-opacity="0" result="BackgroundImageFix"/>
<feColorMatrix in="SourceAlpha" type="matrix" values="0 0 0 0 0 0 0 0 0 0 0 0 0 0 0 0 0 0 127 0" result="hardAlpha"/>
<feOffset dy="4"/>
<feGaussianBlur stdDeviation="2"/>
<feColorMatrix type="matrix" values="0 0 0 0 0 0 0 0 0 0 0 0 0 0 0 0 0 0 0.25 0"/>
<feBlend mode="normal" in2="BackgroundImageFix" result="effect1_dropShadow_895_62915"/>
<feBlend mode="normal" in="SourceGraphic" in2="effect1_dropShadow_895_62915" result="shape"/>
</filter>
<filter id="filter1_d_895_62915" x="23.5838" y="10.3004" width="46.9283" height="50.7688" filterUnits="userSpaceOnUse" color-interpolation-filters="sRGB">
<feFlood flood-opacity="0" result="BackgroundImageFix"/>
<feColorMatrix in="SourceAlpha" type="matrix" values="0 0 0 0 0 0 0 0 0 0 0 0 0 0 0 0 0 0 127 0" result="hardAlpha"/>
<feOffset dy="4"/>
<feGaussianBlur stdDeviation="2"/>
<feColorMatrix type="matrix" values="0 0 0 0 0 0 0 0 0 0 0 0 0 0 0 0 0 0 0.25 0"/>
<feBlend mode="normal" in2="BackgroundImageFix" result="effect1_dropShadow_895_62915"/>
<feBlend mode="normal" in="SourceGraphic" in2="effect1_dropShadow_895_62915" result="shape"/>
</filter>
<linearGradient id="paint0_linear_895_62915" x1="117.345" y1="91.8052" x2="106.218" y2="48.982" gradientUnits="userSpaceOnUse">
<stop stop-color="#FFCD00"/>
<stop offset="1" stop-color="#00BF6F"/>
</linearGradient>
<linearGradient id="paint1_linear_895_62915" x1="124.815" y1="48.6386" x2="116.431" y2="41.7802" gradientUnits="userSpaceOnUse">
<stop stop-color="#FFCD00"/>
<stop offset="1" stop-color="#00BF6F"/>
</linearGradient>
<clipPath id="clip0_895_62915">
<rect width="160" height="106.485" fill="white"/>
</clipPath>
</defs>
</svg>
